SplineFontDB: 2.0
FontName: FreeSerifBold
FullName: Free Serif Bold
FamilyName: FreeSerif
Weight: Bold
Copyright: Copyleft 2002, 2003, 2005, 2008 Free Software Foundation.
Version: $Revision: 1.62 $
ItalicAngle: 0
UnderlinePosition: -100
UnderlineWidth: 50
Ascent: 800
Descent: 200
LayerCount: 2
Layer: 0 0 "Back" 
Layer: 1 0 "Fore" 
NeedsXUIDChange: 1
FSType: 0
OS2Version: 0
OS2_WeightWidthSlopeOnly: 0
OS2_UseTypoMetrics: 0
CreationTime: 1203284335
ModificationTime: 1206991873
PfmFamily: 17
TTFWeight: 700
TTFWidth: 5
LineGap: 90
VLineGap: 0
Panose: 2 2 8 3 7 5 5 2 3 4
OS2TypoAscent: 0
OS2TypoAOffset: 1
OS2TypoDescent: 0
OS2TypoDOffset: 1
OS2TypoLinegap: 0
OS2WinAscent: 900
OS2WinAOffset: 0
OS2WinDescent: 300
OS2WinDOffset: 0
HheadAscent: 900
HheadAOffset: 0
HheadDescent: -300
HheadDOffset: 0
OS2SubXSize: 650
OS2SubYSize: 699
OS2SubXOff: 47
OS2SubYOff: 140
OS2SupXSize: 650
OS2SupYSize: 699
OS2SupXOff: -163
OS2SupYOff: 479
OS2StrikeYSize: 49
OS2StrikeYPos: 258
OS2Vendor: 'GNU '
Lookup: 4 1 0 "'ccmp' Glyph Composition/Decomposition in Hebrew lookup 0"  {"'ccmp' Glyph Composition/Decomposition in Hebrew lookup 0 subtable"  } ['ccmp' ('hebr' <'dflt' > ) ]
Lookup: 4 1 1 "'liga' Standard Ligatures in Hebrew lookup 1"  {"'liga' Standard Ligatures in Hebrew lookup 1 subtable"  } ['liga' ('hebr' <'dflt' > ) ]
Lookup: 4 0 1 "'liga' Standard Ligatures lookup 2"  {"'liga' Standard Ligatures lookup 2 subtable"  } ['liga' ('DFLT' <'dflt' > ) ]
Lookup: 4 0 1 "'liga' Standard Ligatures in Latin"  {"'liga' Standard Ligatures in Latin subtable"  } ['liga' ('latn' <'dflt' > ) ]
Lookup: 4 1 0 "'dlig' Discretionary Ligatures in Hebrew lookup 3"  {"'dlig' Discretionary Ligatures in Hebrew lookup 3 subtable"  } ['dlig' ('hebr' <'dflt' > ) ]
Lookup: 4 8 0 "'dlig' Discretionary Ligatures in Latin"  {"'dlig' Discretionary Ligatures in Latin subtable"  } ['dlig' ('latn' <'dflt' > ) ]

StartChar: exclam
Encoding: 33 33 1
Width: 333
Flags: MW
LayerCount: 2
Fore
SplineSet
166 156 m 0
 213 156 251 117 251 70 c 0
 251 24 213 -13 165 -13 c 0
 118 -13 82 24 82 72 c 0
 82 117 120 156 166 156 c 0
250 589 m 0
 250 509 208 503 180 234 c 1
 151 234 l 1
 124 492 81 515 81 591 c 0
 81 654 112 691 166 691 c 0
 219 691 250 654 250 589 c 0
EndSplineSet
EndChar

StartChar: quotedbl
Encoding: 34 34 2
Width: 555
Flags: MW
LayerCount: 2
Fore
SplineSet
127 404 m 1
 114 463 83 582 83 620 c 0
 83 663 109 691 147 691 c 0
 184 691 212 662 212 624 c 0
 212 602 202 551 168 404 c 1
 127 404 l 1
387 404 m 1
 374 460 343 585 343 620 c 0
 343 663 369 691 407 691 c 0
 444 691 472 662 472 624 c 0
 472 602 459 537 428 404 c 1
 387 404 l 1
EndSplineSet
EndChar

StartChar: numbersign
Encoding: 35 35 3
Width: 500
Flags: MW
LayerCount: 2
Fore
SplineSet
467 283 m 1
 467 210 l 1
 369 210 l 1
 340 0 l 1
 262 0 l 1
 291 210 l 1
 178 210 l 1
 149 0 l 1
 71 0 l 1
 100 210 l 1
 4 210 l 1
 4 283 l 1
 111 283 l 1
 129 417 l 1
 33 417 l 1
 33 490 l 1
 139 490 l 1
 169 700 l 1
 246 700 l 1
 217 490 l 1
 330 490 l 1
 360 700 l 1
 437 700 l 1
 408 490 l 1
 496 490 l 1
 496 417 l 1
 398 417 l 1
 380 283 l 1
 467 283 l 1
320 417 m 1
 207 417 l 1
 189 283 l 1
 302 283 l 1
 320 417 l 1
EndSplineSet
EndChar

StartChar: dollar
Encoding: 36 36 4
Width: 500
Flags: MW
LayerCount: 2
Fore
SplineSet
29 496 m 0
 29 593 96 659 214 672 c 1
 214 750 l 1
 269 750 l 1
 269 674 l 1
 347 661 381 650 428 622 c 1
 428 481 l 1
 407 481 l 1
 378 581 340 625 269 641 c 1
 269 426 l 1
 369 374 472 325 472 196 c 0
 472 78 408 25 269 0 c 1
 269 -99 l 1
 214 -99 l 1
 214 0 l 1
 152 3 128 9 46 43 c 1
 46 199 l 1
 67 197 l 1
 99 89 139 44 213 30 c 1
 213 281 l 1
 79 348 29 407 29 496 c 0
269 250 m 1
 269 30 l 1
 332 42 362 75 362 134 c 0
 362 188 349 205 269 250 c 1
213 454 m 1
 213 644 l 1
 150 628 124 602 124 554 c 0
 124 508 153 475 213 454 c 1
EndSplineSet
EndChar

StartChar: percent
Encoding: 37 37 5
Width: 1000
Flags: MW
LayerCount: 2
Fore
SplineSet
877 257 m 0
 877 199 833 -14 668 -14 c 0
 588 -14 535 41 535 125 c 0
 535 248 648 372 761 372 c 0
 831 372 877 327 877 257 c 0
701 32 m 0
 773 32 844 165 844 249 c 0
 844 290 822 321 792 321 c 0
 713 321 652 135 652 88 c 0
 652 52 669 32 701 32 c 0
350 678 m 0
 425 678 420 623 518 623 c 0
 579 623 653 650 675 681 c 0
 680 688 685 692 690 692 c 2
 728 692 l 1
 334 -8 l 1
 279 -8 l 1
 627 612 l 1
 585 594 546 585 512 585 c 0
 498 585 486 586 465 590 c 1
 463 411 372 294 253 294 c 0
 177 294 124 350 124 430 c 0
 124 558 234 678 350 678 c 0
369 631 m 0
 334 631 238 489 238 392 c 0
 238 362 257 340 286 340 c 0
 363 340 432 483 432 569 c 0
 432 607 379 631 369 631 c 0
EndSplineSet
EndChar

StartChar: ampersand
Encoding: 38 38 6
Width: 833
Flags: MW
LayerCount: 2
Fore
SplineSet
577 419 m 1
 783 419 l 1
 783 395 l 1
 740 391 728 384 710 355 c 2
 683 311 l 2
 656 268 645 252 590 176 c 1
 646 104 671 85 709 85 c 0
 733 85 750 96 767 123 c 1
 787 111 l 1
 771 85 l 2
 756 61 718 -16 624 -16 c 0
 571 -16 535 6 475 72 c 1
 393 11 327 -15 253 -15 c 0
 141 -15 62 58 62 161 c 0
 62 255 116 318 258 388 c 1
 218 457 206 489 206 533 c 0
 206 630 281 691 401 691 c 0
 502 691 568 643 568 569 c 0
 568 506 522 462 416 423 c 1
 567 209 l 1
 625 281 643 314 643 354 c 0
 643 383 636 388 577 395 c 1
 577 419 l 1
201 264 m 0
 201 187 271 61 362 61 c 0
 388 61 413 72 452 100 c 1
 420 142 398 174 323 286 c 2
 275 358 l 1
 220 326 201 301 201 264 c 0
397 452 m 1
 447 469 467 492 467 533 c 0
 467 600 424 658 375 658 c 0
 343 658 323 637 323 602 c 0
 323 561 344 518 397 452 c 1
EndSplineSet
EndChar

StartChar: quotesingle
Encoding: 39 39 7
Width: 278
Flags: MW
LayerCount: 2
Fore
SplineSet
119 404 m 1
 108 449 75 583 75 620 c 0
 75 663 101 691 139 691 c 0
 176 691 204 662 204 624 c 0
 204 602 193 548 160 404 c 1
 119 404 l 1
EndSplineSet
EndChar

StartChar: parenleft
Encoding: 40 40 8
Width: 333
Flags: MW
LayerCount: 2
Fore
SplineSet
159 258 m 0
 159 -58 243 -100 306 -140 c 1
 306 -168 l 1
 208 -109 165 -69 119 3 c 0
 71 79 46 168 46 259 c 0
 46 388 92 507 177 599 c 0
 216 640 244 661 306 694 c 1
 306 667 l 1
 195 593 159 523 159 258 c 0
EndSplineSet
EndChar

StartChar: parenright
Encoding: 41 41 9
Width: 333
Flags: MW
LayerCount: 2
Fore
SplineSet
27 694 m 1
 115 641 287 523 287 266 c 0
 287 138 241 19 155 -73 c 0
 117 -114 89 -135 27 -168 c 1
 27 -141 l 1
 140 -66 174 7 174 268 c 0
 174 581 93 623 27 666 c 1
 27 694 l 1
EndSplineSet
EndChar

StartChar: asterisk
Encoding: 42 42 10
Width: 507
Flags: MW
LayerCount: 2
Fore
SplineSet
443 551 m 0
 443 486 328 491 284 473 c 1
 327 454 442 456 442 393 c 0
 442 366 418 340 390 340 c 0
 345 340 303 419 269 445 c 1
 273 401 301 358 301 314 c 0
 301 285 281 262 251 262 c 0
 220 262 198 284 198 314 c 0
 198 358 230 402 235 445 c 1
 201 420 153 343 110 343 c 0
 82 343 60 370 60 397 c 0
 60 462 175 456 219 474 c 1
 176 493 62 493 62 555 c 0
 62 582 85 608 113 608 c 0
 159 608 200 528 235 502 c 1
 230 546 202 590 202 633 c 0
 202 663 222 685 252 685 c 0
 283 685 305 664 305 633 c 0
 305 592 273 545 268 503 c 1
 303 528 350 604 393 604 c 0
 421 604 443 578 443 551 c 0
EndSplineSet
EndChar

StartChar: plus
Encoding: 43 43 11
Width: 676
Flags: MW
LayerCount: 2
Fore
SplineSet
614 209 m 1
 387 209 l 1
 387 -16 l 1
 291 -16 l 1
 291 209 l 1
 62 209 l 1
 62 305 l 1
 291 305 l 1
 291 528 l 1
 387 528 l 1
 387 305 l 1
 614 305 l 1
 614 209 l 1
EndSplineSet
EndChar

StartChar: comma
Encoding: 44 44 12
Width: 250
Flags: MW
LayerCount: 2
Fore
SplineSet
136 -4 m 0
 128 -4 132 -6 112 -6 c 0
 69 -6 39 26 39 72 c 0
 39 122 72 155 122 155 c 0
 182 155 223 108 223 39 c 0
 223 -47 173 -113 57 -180 c 1
 46 -158 l 1
 121 -106 155 -64 155 -26 c 0
 155 -13 147 -4 136 -4 c 0
EndSplineSet
EndChar

StartChar: hyphen
Encoding: 45 45 13
Width: 333
Flags: MW
LayerCount: 2
Fore
SplineSet
287 287 m 1
 287 171 l 1
 44 171 l 1
 44 287 l 1
 287 287 l 1
EndSplineSet
EndChar

StartChar: period
Encoding: 46 46 14
Width: 250
Flags: MW
LayerCount: 2
Fore
SplineSet
125 156 m 0
 172 156 210 117 210 70 c 0
 210 24 172 -13 124 -13 c 0
 77 -13 41 24 41 72 c 0
 41 117 79 156 125 156 c 0
EndSplineSet
EndChar

StartChar: slash
Encoding: 47 47 15
Width: 278
Flags: MW
LayerCount: 2
Fore
SplineSet
302 691 m 1
 66 -19 l 1
 -24 -19 l 1
 212 691 l 1
 302 691 l 1
EndSplineSet
EndChar

StartChar: zero
Encoding: 48 48 16
Width: 500
Flags: MW
LayerCount: 2
Fore
SplineSet
24 340 m 0
 24 536 121 688 250 688 c 0
 379 688 476 537 476 337 c 0
 476 136 380 -13 251 -13 c 0
 118 -13 24 134 24 340 c 0
251 15 m 0
 291 15 318 56 318 222 c 2
 318 451 l 2
 318 598 298 660 249 660 c 0
 201 660 182 602 182 451 c 2
 182 222 l 2
 182 74 201 15 251 15 c 0
EndSplineSet
EndChar

StartChar: one
Encoding: 49 49 17
Width: 500
Flags: MW
LayerCount: 2
Fore
SplineSet
150 578 m 0
 124 578 81 558 65 553 c 1
 65 579 l 1
 317 688 l 1
 334 688 l 1
 334 118 l 2
 334 41 351 26 442 24 c 1
 442 0 l 1
 67 0 l 1
 67 24 l 1
 166 25 186 42 186 124 c 2
 186 509 l 2
 186 556 175 578 150 578 c 0
EndSplineSet
EndChar

StartChar: two
Encoding: 50 50 18
Width: 500
Flags: MW
LayerCount: 2
Fore
SplineSet
31 484 m 1
 87 635 162 688 251 688 c 0
 359 688 436 612 436 505 c 0
 436 429 401 362 322 287 c 2
 160 133 l 1
 311 133 l 2
 413 133 425 139 454 211 c 1
 478 211 l 1
 433 0 l 1
 17 0 l 1
 17 23 l 1
 253 275 300 359 300 447 c 0
 300 512 255 574 181 574 c 0
 127 574 90 546 59 484 c 1
 31 484 l 1
EndSplineSet
EndChar

StartChar: three
Encoding: 51 51 19
Width: 500
Flags: MW
LayerCount: 2
Fore
SplineSet
354 154 m 0
 354 275 259 319 153 356 c 1
 153 373 l 1
 248 403 283 438 283 504 c 0
 283 567 244 607 181 607 c 0
 129 607 96 584 58 523 c 1
 37 535 l 1
 92 638 167 688 266 688 c 0
 368 688 429 637 429 551 c 0
 429 492 410 463 346 424 c 1
 441 381 468 312 468 246 c 0
 468 100 336 -14 169 -14 c 0
 77 -14 16 22 16 76 c 0
 16 110 43 134 81 134 c 0
 159 134 191 36 256 36 c 0
 316 36 354 82 354 154 c 0
EndSplineSet
EndChar

StartChar: four
Encoding: 52 52 20
Width: 500
Flags: MW
LayerCount: 2
Fore
SplineSet
412 255 m 1
 475 255 l 1
 475 144 l 1
 412 144 l 1
 412 0 l 1
 267 0 l 1
 267 144 l 1
 19 144 l 1
 19 257 l 1
 79 352 145 444 273 611 c 2
 332 688 l 1
 412 688 l 1
 412 255 l 1
269 255 m 1
 269 552 l 1
 60 255 l 1
 269 255 l 1
EndSplineSet
EndChar

StartChar: five
Encoding: 53 53 21
Width: 500
Flags: MW
LayerCount: 2
Fore
SplineSet
84 140 m 0
 155 140 209 53 273 53 c 0
 329 53 373 97 373 153 c 0
 373 219 320 276 231 304 c 0
 187 318 146 324 51 331 c 1
 148 676 l 1
 470 676 l 1
 427 549 l 1
 149 549 l 1
 127 468 l 1
 209 463 240 459 278 448 c 0
 387 417 451 337 451 233 c 0
 451 92 334 -8 169 -8 c 0
 80 -8 22 27 22 80 c 0
 22 115 48 140 84 140 c 0
EndSplineSet
EndChar

StartChar: six
Encoding: 54 54 22
Width: 500
Flags: MW
LayerCount: 2
Fore
SplineSet
470 688 m 1
 470 662 l 1
 324 632 241 551 204 404 c 1
 234 417 256 421 288 421 c 0
 402 421 475 343 475 222 c 0
 475 86 384 -13 260 -13 c 0
 120 -13 28 100 28 273 c 0
 28 406 87 518 199 595 c 0
 275 647 337 669 470 688 c 1
184 242 m 0
 184 50 215 14 262 14 c 0
 311 14 323 44 323 162 c 0
 323 321 300 376 233 376 c 0
 190 376 184 362 184 242 c 0
EndSplineSet
EndChar

StartChar: seven
Encoding: 55 55 23
Width: 500
Flags: MW
LayerCount: 2
Fore
SplineSet
477 676 m 1
 242 0 l 1
 147 0 l 1
 347 539 l 1
 140 539 l 2
 85 539 61 518 42 454 c 1
 17 454 l 1
 61 676 l 1
 477 676 l 1
EndSplineSet
EndChar

StartChar: eight
Encoding: 56 56 24
Width: 500
Flags: MW
LayerCount: 2
Fore
SplineSet
28 157 m 0
 28 257 98 297 178 324 c 1
 79 383 39 438 39 513 c 0
 39 618 128 688 263 688 c 0
 382 688 458 632 458 543 c 0
 458 479 418 438 322 404 c 1
 429 336 472 274 472 187 c 0
 472 67 379 -13 240 -13 c 0
 113 -13 28 55 28 157 c 0
298 422 m 1
 331 466 339 489 339 536 c 0
 339 614 307 659 251 659 c 0
 204 659 168 623 168 576 c 0
 168 520 214 465 298 422 c 1
200 306 m 1
 160 247 149 216 149 161 c 0
 149 72 185 19 246 19 c 0
 300 19 333 60 333 127 c 0
 333 201 309 233 200 306 c 1
EndSplineSet
EndChar

StartChar: nine
Encoding: 57 57 25
Width: 500
Flags: MW
LayerCount: 2
Fore
SplineSet
31 -13 m 1
 31 13 l 1
 175 42 256 121 299 273 c 1
 272 259 246 254 208 254 c 0
 99 254 26 334 26 452 c 0
 26 589 116 688 241 688 c 0
 381 688 473 575 473 402 c 0
 473 275 419 168 317 91 c 0
 239 32 171 7 31 -13 c 1
317 458 m 0
 317 618 286 661 239 661 c 0
 190 661 178 631 178 515 c 0
 178 358 201 299 263 299 c 0
 311 299 308 317 309 328 c 2
 312 354 l 1
 315 399 317 431 317 458 c 0
EndSplineSet
EndChar

StartChar: colon
Encoding: 58 58 26
Width: 333
Flags: MW
LayerCount: 2
Fore
SplineSet
166 156 m 0
 213 156 251 117 251 70 c 0
 251 24 213 -13 165 -13 c 0
 118 -13 82 24 82 72 c 0
 82 117 120 156 166 156 c 0
166 472 m 0
 213 472 251 434 251 387 c 0
 251 341 213 303 166 303 c 0
 118 303 82 340 82 389 c 0
 82 434 120 472 166 472 c 0
EndSplineSet
EndChar

StartChar: semicolon
Encoding: 59 59 27
Width: 333
Flags: MW
LayerCount: 2
Fore
SplineSet
153 -6 m 2
 139 -6 82 6 82 72 c 0
 82 122 115 155 165 155 c 0
 225 155 266 108 266 39 c 0
 266 -47 216 -113 100 -180 c 1
 89 -158 l 1
 164 -106 198 -64 198 -25 c 0
 198 -14 190 -4 180 -4 c 2
 173 -4 l 1
 161 -6 l 1
 153 -6 l 2
166 472 m 0
 213 472 251 434 251 387 c 0
 251 341 213 303 166 303 c 0
 118 303 82 340 82 389 c 0
 82 434 120 472 166 472 c 0
EndSplineSet
EndChar

StartChar: less
Encoding: 60 60 28
Width: 676
Flags: MW
LayerCount: 2
Fore
SplineSet
614 -25 m 1
 62 234 l 1
 62 280 l 1
 614 539 l 1
 614 439 l 1
 226 257 l 1
 614 75 l 1
 614 -25 l 1
EndSplineSet
EndChar

StartChar: equal
Encoding: 61 61 29
Width: 676
Flags: MW
LayerCount: 2
Fore
SplineSet
614 331 m 1
 62 331 l 1
 62 427 l 1
 614 427 l 1
 614 331 l 1
614 87 m 1
 62 87 l 1
 62 183 l 1
 614 183 l 1
 614 87 l 1
EndSplineSet
EndChar

StartChar: question
Encoding: 63 63 31
Width: 500
Flags: MW
LayerCount: 2
Fore
SplineSet
151 613 m 0
 151 584 188 580 188 533 c 0
 188 495 163 469 125 469 c 0
 86 469 57 501 57 545 c 0
 57 629 135 689 245 689 c 0
 365 689 445 623 445 523 c 0
 445 454 415 413 324 357 c 0
 261 318 253 304 253 231 c 1
 223 231 l 1
 221 261 221 266 221 277 c 0
 221 362 296 397 296 523 c 0
 296 605 265 653 212 653 c 0
 176 653 151 637 151 613 c 0
239 156 m 0
 285 156 323 117 323 71 c 0
 323 24 286 -13 239 -13 c 0
 191 -13 154 24 154 72 c 0
 154 117 193 156 239 156 c 0
EndSplineSet
EndChar

StartChar: at
Encoding: 64 64 32
Width: 930
Flags: MW
LayerCount: 2
Fore
SplineSet
319 259 m 0
 319 314 362 519 522 519 c 0
 558 519 573 509 595 466 c 1
 606 506 l 1
 677 506 l 1
 611 246 l 1
 610 241 609 234 609 228 c 0
 609 197 622 180 647 180 c 0
 713 180 775 279 775 385 c 0
 775 529 642 652 486 652 c 0
 320 652 200 515 200 325 c 0
 200 151 324 27 499 27 c 0
 566 27 616 39 698 76 c 1
 711 41 l 1
 614 -5 561 -19 487 -19 c 0
 274 -19 108 134 108 330 c 0
 108 531 275 691 485 691 c 0
 675 691 822 560 822 390 c 0
 822 257 735 143 633 143 c 0
 583 143 546 173 539 218 c 1
 504 172 456 144 413 144 c 0
 360 144 319 194 319 259 c 0
455 191 m 0
 525 191 577 330 577 414 c 0
 577 455 559 470 536 470 c 0
 480 470 396 393 396 277 c 0
 396 224 419 191 455 191 c 0
EndSplineSet
EndChar

StartChar: A
Encoding: 65 65 33
Width: 722
Flags: MW
AnchorPoint: "above" 343 660 basechar 0
LayerCount: 2
Fore
SplineSet
689 25 m 1
 689 0 l 1
 365 0 l 1
 365 25 l 1
 379 27 392 28 397 28 c 0
 432 30 445 40 445 61 c 0
 445 83 433 119 399 197 c 1
 174 197 l 1
 159 158 l 2
 138 104 130 79 130 66 c 0
 130 40 153 29 212 25 c 1
 212 0 l 1
 9 0 l 1
 9 25 l 1
 57 34 69 49 107 142 c 2
 329 690 l 1
 357 690 l 1
 580 164 l 2
 630 46 646 25 685 25 c 2
 689 25 l 1
189 236 m 1
 384 236 l 1
 283 479 l 1
 189 236 l 1
EndSplineSet
EndChar

StartChar: B
Encoding: 66 66 34
Width: 667
Flags: MW
LayerCount: 2
Fore
SplineSet
426 365 m 1
 478 354 619 321 619 188 c 0
 619 75 507 0 338 0 c 2
 16 0 l 1
 16 25 l 1
 89 33 104 45 104 96 c 2
 104 580 l 2
 104 631 85 647 16 651 c 1
 16 676 l 1
 325 676 l 2
 492 676 585 619 585 516 c 0
 585 440 542 399 426 365 c 1
264 343 m 1
 264 93 l 2
 264 49 281 32 325 32 c 0
 406 32 447 82 447 179 c 0
 447 289 397 343 294 343 c 2
 264 343 l 1
264 597 m 2
 264 373 l 1
 387 376 420 404 420 509 c 0
 420 603 388 646 318 646 c 0
 279 646 264 633 264 597 c 2
EndSplineSet
EndChar

StartChar: C
Encoding: 67 67 35
Width: 722
Flags: MW
LayerCount: 2
Fore
SplineSet
427 29 m 0
 523 29 592 84 657 152 c 1
 687 127 l 1
 647 83 568 -19 403 -19 c 0
 196 -19 49 127 49 333 c 0
 49 537 198 691 397 691 c 0
 506 691 558 642 598 642 c 0
 617 642 628 653 642 688 c 1
 669 688 l 1
 669 454 l 1
 644 454 l 1
 620 505 542 658 410 658 c 0
 290 658 226 548 226 341 c 0
 226 101 314 29 427 29 c 0
EndSplineSet
EndChar

StartChar: D
Encoding: 68 68 36
Width: 724
Flags: MW
LayerCount: 2
Fore
SplineSet
99 91 m 2
 99 584 l 2
 99 630 80 645 16 651 c 1
 16 676 l 1
 321 676 l 2
 552 676 692 551 692 345 c 0
 692 138 548 0 332 0 c 2
 16 0 l 1
 16 25 l 1
 74 27 99 47 99 91 c 2
518 330 m 0
 518 576 410 642 320 642 c 0
 281 642 261 630 261 607 c 2
 261 93 l 2
 261 48 274 35 319 35 c 0
 423 35 518 98 518 330 c 0
EndSplineSet
EndChar

StartChar: E
Encoding: 69 69 37
Width: 667
Flags: MW
AnchorPoint: "below" 339 0 basechar 0
AnchorPoint: "above" 343 660 basechar 0
LayerCount: 2
Fore
SplineSet
349 31 m 0
 507 31 565 105 613 208 c 1
 641 208 l 1
 601 0 l 1
 16 0 l 1
 16 25 l 1
 90 33 104 44 104 96 c 2
 104 580 l 2
 104 631 85 647 16 651 c 1
 16 676 l 1
 593 676 l 1
 593 475 l 1
 568 475 l 1
 543 608 494 642 331 642 c 0
 279 642 266 633 266 595 c 2
 266 363 l 1
 267 363 269 363 270 363 c 0
 375 363 413 400 428 512 c 1
 454 512 l 1
 454 174 l 1
 428 174 l 1
 416 290 375 329 266 329 c 1
 266 87 l 2
 266 44 285 31 349 31 c 0
EndSplineSet
EndChar

StartChar: F
Encoding: 70 70 38
Width: 611
Flags: MW
LayerCount: 2
Fore
SplineSet
559 475 m 1
 539 566 525 642 330 642 c 0
 279 642 266 632 266 595 c 2
 266 363 l 1
 366 363 401 398 419 512 c 1
 444 512 l 1
 444 174 l 1
 419 174 l 1
 405 290 368 327 266 329 c 1
 266 96 l 2
 266 41 284 29 376 25 c 1
 376 0 l 1
 16 0 l 1
 16 25 l 1
 90 33 104 44 104 96 c 2
 104 580 l 2
 104 632 85 647 16 651 c 1
 16 676 l 1
 583 676 l 1
 583 475 l 1
 559 475 l 1
EndSplineSet
EndChar

StartChar: G
Encoding: 71 71 39
Width: 778
Flags: MW
LayerCount: 2
Fore
SplineSet
385 691 m 0
 494 691 546 642 586 642 c 0
 605 642 616 653 630 688 c 1
 657 688 l 1
 657 454 l 1
 632 454 l 1
 597 530 574 564 531 602 c 0
 487 640 444 658 398 658 c 0
 277 658 214 547 214 338 c 0
 214 218 235 132 279 76 c 0
 312 33 354 14 417 14 c 0
 484 14 513 36 513 87 c 2
 513 192 l 2
 513 246 498 257 412 262 c 1
 412 287 l 1
 755 287 l 1
 755 262 l 1
 680 254 669 242 669 170 c 2
 669 43 l 1
 605 5 496 -19 393 -19 c 0
 183 -19 37 125 37 331 c 0
 37 537 186 691 385 691 c 0
EndSplineSet
EndChar

StartChar: H
Encoding: 72 72 40
Width: 774
Flags: MW
LayerCount: 2
Fore
SplineSet
504 326 m 1
 263 326 l 1
 263 96 l 2
 263 47 280 33 353 25 c 1
 353 0 l 1
 16 0 l 1
 16 25 l 1
 86 34 101 47 101 96 c 2
 101 580 l 2
 101 630 83 645 16 651 c 1
 16 676 l 1
 353 676 l 1
 353 651 l 1
 283 646 263 630 263 580 c 2
 263 373 l 1
 504 373 l 1
 504 580 l 2
 504 630 484 646 414 651 c 1
 414 676 l 1
 754 676 l 1
 754 651 l 1
 686 646 666 630 666 580 c 2
 666 96 l 2
 666 47 682 34 754 25 c 1
 754 0 l 1
 414 0 l 1
 414 25 l 1
 487 33 504 47 504 96 c 2
 504 326 l 1
EndSplineSet
EndChar

StartChar: I
Encoding: 73 73 41
Width: 386
Flags: MW
AnchorPoint: "above" 193 660 basechar 0
LayerCount: 2
Fore
SplineSet
109 96 m 2
 109 580 l 2
 109 631 88 646 16 651 c 1
 16 676 l 1
 366 676 l 1
 366 651 l 1
 292 648 271 632 271 580 c 2
 271 96 l 2
 271 44 290 30 366 25 c 1
 366 0 l 1
 16 0 l 1
 16 25 l 1
 91 32 109 46 109 96 c 2
EndSplineSet
EndChar

StartChar: J
Encoding: 74 74 42
Width: 500
Flags: MW
LayerCount: 2
Fore
SplineSet
146 33 m 0
 146 -2 119 -8 119 -31 c 0
 119 -50 137 -63 164 -63 c 0
 209 -63 228 -38 228 24 c 2
 228 580 l 2
 228 634 208 648 127 651 c 1
 127 676 l 1
 479 676 l 1
 479 651 l 1
 404 646 390 631 390 559 c 2
 390 123 l 2
 390 -20 316 -96 176 -96 c 0
 79 -96 3 -45 3 36 c 0
 3 74 36 108 73 108 c 0
 112 108 146 73 146 33 c 0
EndSplineSet
EndChar

StartChar: K
Encoding: 75 75 43
Width: 764
Flags: MW
LayerCount: 2
Fore
SplineSet
518 618 m 0
 518 644 498 647 433 651 c 1
 433 676 l 1
 722 676 l 1
 722 651 l 1
 625 643 589 618 401 424 c 1
 706 46 l 1
 719 31 730 26 755 25 c 1
 755 0 l 1
 419 0 l 1
 419 25 l 1
 433 26 446 26 451 26 c 0
 484 28 498 33 498 46 c 0
 498 57 493 66 474 90 c 2
 292 317 l 1
 265 292 l 1
 265 96 l 2
 265 47 281 34 353 25 c 1
 353 0 l 1
 16 0 l 1
 16 25 l 1
 88 33 103 45 103 96 c 2
 103 580 l 2
 103 632 85 647 16 651 c 1
 16 676 l 1
 354 676 l 1
 354 651 l 1
 280 646 265 630 265 559 c 2
 265 345 l 1
 482 563 l 2
 513 594 518 602 518 618 c 0
EndSplineSet
EndChar

StartChar: L
Encoding: 76 76 44
Width: 664
Flags: MW
LayerCount: 2
Fore
SplineSet
344 31 m 0
 540 31 580 166 606 227 c 1
 635 227 l 1
 594 0 l 1
 16 0 l 1
 16 25 l 1
 89 34 102 45 102 96 c 2
 102 580 l 2
 102 631 84 647 16 651 c 1
 16 676 l 1
 365 676 l 1
 365 651 l 1
 278 647 264 634 264 559 c 2
 264 87 l 2
 264 44 283 31 344 31 c 0
EndSplineSet
EndChar

StartChar: M
Encoding: 77 77 45
Width: 943
Flags: MW
LayerCount: 2
Fore
SplineSet
680 609 m 1
 428 0 l 1
 401 0 l 1
 149 594 l 1
 149 124 l 2
 149 50 168 31 250 25 c 1
 250 0 l 1
 16 0 l 1
 16 25 l 1
 94 33 107 45 107 105 c 2
 107 580 l 2
 107 632 91 645 18 651 c 1
 18 676 l 1
 271 676 l 1
 471 204 l 1
 671 676 l 1
 923 676 l 1
 923 651 l 1
 850 646 835 631 835 559 c 2
 835 117 l 2
 835 46 845 35 923 25 c 1
 923 0 l 1
 591 0 l 1
 591 25 l 1
 666 32 680 44 680 100 c 2
 680 609 l 1
EndSplineSet
EndChar

StartChar: N
Encoding: 78 78 46
Width: 722
Flags: MW
LayerCount: 2
Fore
SplineSet
230 676 m 1
 579 247 l 1
 579 552 l 2
 579 623 560 644 486 651 c 1
 486 676 l 1
 701 676 l 1
 701 651 l 1
 636 641 623 628 623 571 c 2
 623 -18 l 1
 595 -18 l 1
 148 526 l 1
 148 124 l 2
 148 53 166 34 243 25 c 1
 243 0 l 1
 16 0 l 1
 16 25 l 1
 89 34 104 48 104 105 c 2
 104 579 l 1
 56 636 39 651 19 651 c 1
 19 676 l 1
 230 676 l 1
EndSplineSet
EndChar

StartChar: O
Encoding: 79 79 47
Width: 778
Flags: MW
AnchorPoint: "above" 393 658 basechar 0
LayerCount: 2
Fore
SplineSet
393 691 m 0
 594 691 743 540 743 336 c 0
 743 129 596 -19 389 -19 c 0
 182 -19 35 128 35 335 c 0
 35 543 184 691 393 691 c 0
392 658 m 0
 275 658 212 542 212 326 c 0
 212 124 274 14 389 14 c 0
 504 14 566 124 566 329 c 0
 566 537 502 658 392 658 c 0
EndSplineSet
EndChar

StartChar: P
Encoding: 80 80 48
Width: 611
Flags: MW
LayerCount: 2
Fore
SplineSet
262 303 m 1
 262 117 l 2
 262 44 271 35 350 25 c 1
 350 0 l 1
 16 0 l 1
 16 25 l 1
 27 27 37 29 40 29 c 0
 87 35 100 55 100 117 c 2
 100 559 l 2
 100 629 86 645 16 651 c 1
 16 676 l 1
 338 676 l 2
 505 676 600 610 600 494 c 0
 600 417 556 356 475 325 c 0
 431 307 397 304 262 303 c 1
262 338 m 1
 390 338 428 366 428 489 c 0
 428 597 395 641 312 641 c 0
 279 641 262 629 262 606 c 2
 262 338 l 1
EndSplineSet
EndChar

StartChar: Q
Encoding: 81 81 49
Width: 778
Flags: MW
LayerCount: 2
Fore
SplineSet
490 -6 m 1
 508 -43 553 -129 663 -129 c 0
 682 -129 698 -126 730 -117 c 1
 736 -141 l 1
 661 -168 618 -176 557 -176 c 0
 469 -176 385 -144 329 -88 c 0
 306 -65 294 -46 273 -2 c 1
 197 26 165 46 124 92 c 0
 66 156 35 240 35 331 c 0
 35 539 185 691 389 691 c 0
 595 691 743 542 743 334 c 0
 743 237 710 151 649 86 c 0
 606 40 571 20 490 -6 c 1
390 658 m 0
 276 658 212 541 212 331 c 0
 212 123 273 14 389 14 c 0
 504 14 566 124 566 330 c 0
 566 538 502 658 390 658 c 0
EndSplineSet
EndChar

StartChar: R
Encoding: 82 82 50
Width: 712
Flags: MW
LayerCount: 2
Fore
SplineSet
620 498 m 0
 620 389 540 354 463 329 c 1
 664 44 l 1
 674 31 687 25 705 25 c 1
 705 0 l 1
 500 0 l 1
 293 313 l 1
 266 313 l 1
 266 117 l 2
 266 46 276 35 354 25 c 1
 354 0 l 1
 16 0 l 1
 16 25 l 1
 94 34 104 44 104 117 c 2
 104 559 l 2
 104 631 90 646 16 651 c 1
 16 676 l 1
 338 676 l 2
 521 676 620 613 620 498 c 0
320 642 m 0
 289 642 266 635 266 600 c 2
 266 345 l 1
 404 347 449 372 449 494 c 0
 449 599 412 642 320 642 c 0
EndSplineSet
EndChar

StartChar: S
Encoding: 83 83 51
Width: 556
Flags: MW
LayerCount: 2
Fore
SplineSet
263 691 m 0
 346 691 394 658 422 658 c 0
 439 658 447 666 454 692 c 1
 484 692 l 1
 484 475 l 1
 456 475 l 1
 415 609 339 660 263 660 c 0
 195 660 153 622 153 560 c 0
 153 512 175 487 256 447 c 2
 403 374 l 2
 467 342 513 267 513 192 c 0
 513 66 413 -19 265 -19 c 0
 172 -19 128 15 94 15 c 0
 78 15 70 6 64 -19 c 1
 35 -19 l 1
 35 228 l 1
 64 228 l 1
 77 174 115 14 268 14 c 0
 345 14 394 59 394 128 c 0
 394 180 370 206 282 248 c 2
 215 280 l 2
 96 337 44 400 44 488 c 0
 44 614 127 691 263 691 c 0
EndSplineSet
EndChar

StartChar: T
Encoding: 84 84 52
Width: 667
Flags: MW
LayerCount: 2
Fore
SplineSet
253 117 m 2
 253 644 l 1
 129 640 77 594 60 475 c 1
 31 475 l 1
 34 676 l 1
 634 676 l 1
 636 475 l 1
 607 475 l 1
 590 594 538 640 415 644 c 1
 415 117 l 2
 415 41 426 31 513 25 c 1
 513 0 l 1
 156 0 l 1
 156 25 l 1
 242 32 253 43 253 117 c 2
EndSplineSet
EndChar

StartChar: U
Encoding: 85 85 53
Width: 722
Flags: MW
AnchorPoint: "above" 389 660 basechar 0
LayerCount: 2
Fore
SplineSet
354 651 m 1
 277 648 257 638 257 559 c 2
 257 225 l 2
 257 89 302 30 404 30 c 0
 523 30 579 99 579 247 c 2
 579 552 l 2
 579 625 559 645 481 651 c 1
 481 676 l 1
 701 676 l 1
 701 651 l 1
 637 641 623 625 623 566 c 2
 623 247 l 2
 623 95 558 -19 365 -19 c 0
 292 -19 228 -1 180 34 c 0
 119 78 98 127 98 225 c 2
 98 559 l 2
 98 631 86 644 16 651 c 1
 16 676 l 1
 354 676 l 1
 354 651 l 1
EndSplineSet
EndChar

StartChar: V
Encoding: 86 86 54
Width: 722
Flags: MW
LayerCount: 2
Fore
SplineSet
701 676 m 1
 701 651 l 1
 649 644 635 631 611 569 c 2
 383 -18 l 1
 356 -18 l 1
 100 581 l 1
 75 636 66 644 16 651 c 1
 16 676 l 1
 352 676 l 1
 352 651 l 1
 337 650 324 649 319 649 c 0
 281 647 266 636 266 613 c 0
 266 598 270 586 289 541 c 2
 427 207 l 1
 554 536 l 2
 571 579 574 591 574 607 c 0
 574 639 559 646 488 651 c 1
 488 676 l 1
 701 676 l 1
EndSplineSet
EndChar

StartChar: W
Encoding: 87 87 55
Width: 1000
Flags: MW
LayerCount: 2
Fore
SplineSet
981 676 m 1
 981 651 l 1
 948 648 925 627 912 587 c 2
 712 -15 l 1
 685 -15 l 1
 514 462 l 1
 328 -15 l 1
 300 -15 l 1
 88 587 l 2
 71 636 61 645 19 651 c 1
 19 676 l 1
 313 676 l 1
 313 651 l 1
 261 647 249 638 249 609 c 0
 249 600 251 592 256 576 c 2
 376 212 l 1
 494 520 l 1
 459 616 l 1
 448 640 428 649 387 651 c 1
 387 676 l 1
 699 676 l 1
 699 651 l 1
 693 650 688 650 686 650 c 0
 642 647 627 638 627 614 c 0
 627 605 631 590 641 558 c 2
 749 222 l 1
 861 565 l 1
 866 579 868 594 868 607 c 0
 868 638 853 648 799 651 c 1
 799 676 l 1
 981 676 l 1
EndSplineSet
EndChar

StartChar: X
Encoding: 88 88 56
Width: 722
Flags: MW
LayerCount: 2
Fore
SplineSet
510 614 m 0
 510 647 493 645 438 651 c 1
 438 676 l 1
 688 676 l 1
 688 651 l 1
 614 644 588 625 500 505 c 1
 420 394 l 1
 602 111 l 1
 650 39 665 26 699 25 c 1
 699 0 l 1
 359 0 l 1
 359 25 l 1
 372 26 383 27 387 27 c 0
 422 29 439 38 439 55 c 0
 439 66 430 90 418 109 c 2
 317 271 l 1
 279 220 l 2
 205 120 185 88 185 66 c 0
 185 41 205 31 266 25 c 1
 266 0 l 1
 16 0 l 1
 16 25 l 1
 66 31 90 44 120 81 c 2
 295 302 l 1
 97 593 l 2
 66 638 53 648 17 651 c 1
 17 676 l 1
 363 676 l 1
 363 651 l 1
 349 650 337 649 332 649 c 0
 296 647 284 639 284 618 c 0
 284 606 286 601 299 581 c 2
 396 431 l 1
 469 533 510 578 510 614 c 0
EndSplineSet
EndChar

StartChar: Y
Encoding: 89 89 57
Width: 722
Flags: MW
AnchorPoint: "above" 389 660 basechar 0
LayerCount: 2
Fore
SplineSet
699 676 m 1
 699 651 l 1
 665 646 645 635 631 612 c 0
 440 301 l 1
 440 117 l 2
 440 43 450 33 532 25 c 1
 532 0 l 1
 185 0 l 1
 185 25 l 1
 267 33 278 44 278 117 c 2
 278 264 l 1
 95 596 l 1
 75 630 49 649 15 651 c 1
 15 676 l 1
 350 676 l 1
 350 651 l 1
 325 650 l 2
 284 650 269 642 269 620 c 0
 269 598 289 573 293 561 c 2
 413 329 l 1
 524 514 l 2
 549 555 563 590 563 609 c 0
 563 638 546 646 479 651 c 1
 479 676 l 1
 699 676 l 1
EndSplineSet
EndChar

StartChar: Z
Encoding: 90 90 58
Width: 667
Flags: MW
LayerCount: 2
Fore
SplineSet
299 35 m 2
 560 35 576 130 608 241 c 1
 634 241 l 1
 608 0 l 1
 28 0 l 1
 28 16 l 1
 410 641 l 1
 373 640 339 638 327 638 c 0
 179 638 135 609 87 470 c 1
 59 470 l 1
 80 676 l 1
 604 676 l 1
 604 660 l 1
 225 35 l 1
 299 35 l 2
EndSplineSet
EndChar

StartChar: bracketleft
Encoding: 91 91 59
Width: 333
Flags: MW
LayerCount: 2
Fore
SplineSet
301 -116 m 1
 301 -149 l 1
 67 -149 l 1
 67 678 l 1
 301 678 l 1
 301 645 l 1
 238 645 l 2
 182 645 171 633 171 575 c 2
 171 -63 l 2
 171 -106 180 -116 221 -116 c 2
 301 -116 l 1
EndSplineSet
EndChar

StartChar: backslash
Encoding: 92 92 60
Width: 278
Flags: MW
LayerCount: 2
Fore
SplineSet
211 -19 m 1
 -25 691 l 1
 68 691 l 1
 303 -19 l 1
 211 -19 l 1
EndSplineSet
EndChar

StartChar: bracketright
Encoding: 93 93 61
Width: 333
Flags: MW
LayerCount: 2
Fore
SplineSet
32 -149 m 1
 32 -116 l 1
 112 -116 l 2
 154 -116 162 -107 162 -63 c 2
 162 575 l 2
 162 633 151 645 95 645 c 2
 32 645 l 1
 32 678 l 1
 266 678 l 1
 266 -149 l 1
 32 -149 l 1
EndSplineSet
EndChar

StartChar: asciicircum
Encoding: 94 94 62
Width: 581
Flags: MW
LayerCount: 2
Fore
SplineSet
162 311 m 1
 73 311 l 1
 251 676 l 1
 331 676 l 1
 509 311 l 1
 420 311 l 1
 291 583 l 1
 162 311 l 1
EndSplineSet
EndChar

StartChar: underscore
Encoding: 95 95 63
Width: 500
Flags: MW
LayerCount: 2
Fore
SplineSet
500 -125 m 1
 0 -125 l 1
 0 -75 l 1
 500 -75 l 1
 500 -125 l 1
EndSplineSet
EndChar

StartChar: grave
Encoding: 96 96 64
Width: 333
Flags: MW
LayerCount: 2
Fore
SplineSet
246 528 m 1
 190 528 l 1
 48 616 l 2
 19 634 8 648 8 668 c 0
 8 693 29 713 55 713 c 0
 74 713 93 703 109 685 c 2
 246 528 l 1
EndSplineSet
EndChar

StartChar: a
Encoding: 97 97 65
Width: 500
Flags: MW
AnchorPoint: "above" 244 470 basechar 0
LayerCount: 2
Fore
SplineSet
147 404 m 0
 147 390 177 369 177 339 c 0
 177 305 149 281 109 281 c 0
 68 281 44 306 44 347 c 0
 44 422 120 473 233 473 c 0
 355 473 431 420 431 336 c 2
 431 75 l 2
 431 59 438 50 452 50 c 0
 457 50 460 51 463 54 c 2
 473 64 l 1
 488 43 l 1
 450 2 419 -14 376 -14 c 0
 327 -14 305 5 294 56 c 1
 239 6 193 -14 136 -14 c 0
 72 -14 25 31 25 92 c 0
 25 205 178 245 294 280 c 1
 294 353 l 2
 294 414 268 441 210 441 c 0
 175 441 147 425 147 404 c 0
293 100 m 1
 293 245 l 1
 213 224 171 182 171 124 c 0
 171 84 192 57 222 57 c 0
 246 57 266 69 293 100 c 1
EndSplineSet
EndChar

StartChar: b
Encoding: 98 98 66
Width: 556
Flags: MW
LayerCount: 2
Fore
SplineSet
211 676 m 1
 211 417 l 1
 248 456 285 473 333 473 c 0
 444 473 521 377 521 239 c 0
 521 90 428 -14 295 -14 c 0
 245 -14 209 2 163 43 c 1
 84 -13 l 1
 72 -13 l 1
 72 594 l 2
 72 634 63 643 17 652 c 1
 17 676 l 1
 211 676 l 1
211 360 m 1
 211 97 l 2
 211 49 238 18 280 18 c 0
 344 18 374 83 374 221 c 0
 374 352 343 419 281 419 c 0
 248 419 228 403 211 360 c 1
EndSplineSet
EndChar

StartChar: c
Encoding: 99 99 67
Width: 444
Flags: MW
LayerCount: 2
Fore
SplineSet
412 109 m 1
 430 91 l 1
 372 17 316 -14 239 -14 c 0
 115 -14 25 85 25 223 c 0
 25 367 125 473 261 473 c 0
 349 473 416 425 416 363 c 0
 416 324 390 300 348 300 c 0
 311 300 293 323 292 372 c 0
 292 414 292 414 287 423 c 0
 281 434 266 442 250 442 c 0
 198 442 166 379 166 276 c 0
 166 140 221 53 308 53 c 0
 349 53 375 67 412 109 c 1
EndSplineSet
EndChar

StartChar: d
Encoding: 100 100 68
Width: 556
Flags: MW
LayerCount: 2
Fore
SplineSet
339 -13 m 1
 339 52 l 1
 292 2 259 -14 206 -14 c 0
 101 -14 25 85 25 221 c 0
 25 366 107 473 217 473 c 0
 263 473 293 457 336 411 c 1
 336 594 l 2
 336 640 327 647 260 652 c 1
 260 676 l 1
 475 676 l 1
 475 101 l 2
 475 59 488 46 534 43 c 1
 534 20 l 1
 472 12 l 2
 410 5 385 0 339 -13 c 1
251 42 m 0
 302 42 336 102 336 112 c 2
 336 355 l 1
 322 393 291 417 258 417 c 0
 200 417 173 358 173 229 c 0
 173 102 198 42 251 42 c 0
EndSplineSet
EndChar

StartChar: e
Encoding: 101 101 69
Width: 444
Flags: MW
AnchorPoint: "above" 244 470 basechar 0
LayerCount: 2
Fore
SplineSet
169 245 m 1
 173 171 187 58 288 58 c 0
 331 58 362 76 402 125 c 1
 426 111 l 1
 361 18 312 -14 231 -14 c 0
 107 -14 25 82 25 228 c 0
 25 374 109 473 234 473 c 0
 385 473 414 344 421 245 c 1
 169 245 l 1
298 297 m 2
 295 383 292 442 234 442 c 0
 185 442 167 402 164 282 c 1
 298 282 l 1
 298 297 l 2
EndSplineSet
EndChar

StartChar: f
Encoding: 102 102 70
Width: 333
Flags: MW
LayerCount: 2
Fore
SplineSet
267 584 m 0
 267 607 289 629 289 641 c 0
 289 653 278 660 260 660 c 0
 225 660 210 638 210 583 c 2
 210 461 l 1
 297 461 l 1
 297 417 l 1
 210 417 l 1
 210 103 l 2
 210 38 222 26 292 24 c 1
 292 0 l 1
 14 0 l 1
 14 24 l 1
 60 29 71 41 71 84 c 2
 71 417 l 1
 14 417 l 1
 14 461 l 1
 71 461 l 1
 71 595 93 691 246 691 c 0
 330 691 389 650 389 591 c 0
 389 554 364 529 327 529 c 0
 293 529 267 553 267 584 c 0
EndSplineSet
EndChar

StartChar: g
Encoding: 103 103 71
Width: 500
Flags: MW
LayerCount: 2
Fore
SplineSet
161 160 m 1
 73 197 37 248 37 312 c 0
 37 407 121 473 240 473 c 0
 280 473 308 467 352 451 c 1
 482 451 l 1
 482 398 l 1
 401 398 l 1
 429 370 441 340 441 300 c 0
 441 242 406 154 267 154 c 2
 222 155 l 2
 182 155 154 133 154 103 c 0
 154 75 174 68 254 68 c 2
 319 68 l 2
 421 68 483 22 483 -55 c 0
 483 -154 395 -206 229 -206 c 0
 103 -206 28 -172 28 -114 c 0
 28 -73 61 -48 124 -39 c 1
 60 -16 42 2 42 43 c 0
 42 95 82 133 161 160 c 1
324 -52 m 2
 151 -52 l 1
 123 -75 116 -86 116 -107 c 0
 116 -151 162 -174 250 -174 c 0
 349 -174 404 -148 404 -102 c 0
 404 -69 378 -52 324 -52 c 2
240 442 m 0
 193 442 174 405 174 311 c 0
 174 218 192 182 240 182 c 0
 287 182 306 218 306 311 c 0
 306 404 287 442 240 442 c 0
EndSplineSet
EndChar

StartChar: h
Encoding: 104 104 72
Width: 556
Flags: MW
LayerCount: 2
Fore
SplineSet
294 406 m 0
 252 406 208 359 208 348 c 2
 208 81 l 2
 208 44 220 29 257 24 c 1
 257 0 l 1
 16 0 l 1
 16 24 l 1
 61 33 69 42 69 84 c 2
 69 594 l 2
 69 635 62 643 16 652 c 1
 16 676 l 1
 208 676 l 1
 208 395 l 1
 260 453 297 473 350 473 c 0
 432 473 485 418 485 332 c 2
 485 84 l 2
 485 42 498 27 534 24 c 1
 534 0 l 1
 299 0 l 1
 299 24 l 1
 333 28 346 44 346 81 c 2
 346 323 l 2
 346 379 329 406 294 406 c 0
EndSplineSet
EndChar

StartChar: i
Encoding: 105 105 73
Width: 278
Flags: MW
AnchorPoint: "above" 134 691 basechar 0
LayerCount: 2
Fore
SplineSet
208 461 m 1
 208 81 l 2
 208 43 220 29 255 24 c 1
 255 0 l 1
 16 0 l 1
 16 24 l 1
 62 35 69 43 69 84 c 2
 69 378 l 2
 69 419 60 428 16 437 c 1
 16 461 l 1
 208 461 l 1
138 691 m 0
 181 691 215 656 215 613 c 0
 215 569 181 536 137 536 c 0
 93 536 60 569 60 614 c 0
 60 656 95 691 138 691 c 0
EndSplineSet
EndChar

StartChar: j
Encoding: 106 106 74
Width: 333
Flags: MW
LayerCount: 2
Fore
SplineSet
64 -96 m 0
 64 -119 41 -141 41 -155 c 0
 41 -165 54 -172 73 -172 c 0
 106 -172 121 -149 121 -96 c 2
 121 378 l 2
 121 421 109 433 58 437 c 1
 58 461 l 1
 260 461 l 1
 260 2 l 2
 260 -108 222 -203 83 -203 c 0
 1 -203 -57 -162 -57 -103 c 0
 -57 -67 -32 -42 5 -42 c 0
 37 -42 64 -66 64 -96 c 0
185 691 m 0
 228 691 263 656 263 613 c 0
 263 570 228 536 185 536 c 0
 140 536 108 569 108 614 c 0
 108 656 142 691 185 691 c 0
EndSplineSet
EndChar

StartChar: k
Encoding: 107 107 75
Width: 556
Flags: MW
LayerCount: 2
Fore
SplineSet
358 411 m 0
 358 433 328 433 299 438 c 1
 299 461 l 1
 513 461 l 1
 513 438 l 1
 450 430 424 412 324 307 c 1
 518 39 l 2
 527 27 532 24 543 24 c 1
 543 0 l 1
 309 0 l 1
 309 24 l 1
 337 25 351 31 351 43 c 0
 351 51 344 63 327 88 c 2
 232 222 l 1
 209 198 l 1
 209 84 l 2
 209 37 214 31 261 24 c 1
 261 0 l 1
 22 0 l 1
 22 24 l 1
 55 27 70 45 70 84 c 2
 70 594 l 2
 70 632 56 649 22 652 c 1
 22 676 l 1
 209 676 l 1
 209 245 l 1
 337 373 l 2
 348 384 358 402 358 411 c 0
EndSplineSet
EndChar

StartChar: l
Encoding: 108 108 76
Width: 278
Flags: MW
LayerCount: 2
Fore
SplineSet
206 676 m 1
 206 84 l 2
 206 44 222 25 255 24 c 1
 255 0 l 1
 16 0 l 1
 16 24 l 1
 50 27 67 47 67 84 c 2
 67 594 l 2
 67 631 51 649 16 652 c 1
 16 676 l 1
 206 676 l 1
EndSplineSet
EndChar

StartChar: m
Encoding: 109 109 77
Width: 833
Flags: MW
LayerCount: 2
Fore
SplineSet
294 406 m 0
 254 406 210 360 210 348 c 2
 210 81 l 2
 210 43 221 29 256 24 c 1
 256 0 l 1
 16 0 l 1
 16 24 l 1
 60 32 71 43 71 84 c 2
 71 378 l 2
 71 419 60 431 16 437 c 1
 16 461 l 1
 207 461 l 1
 207 386 l 1
 245 446 291 473 354 473 c 0
 417 473 452 449 482 386 c 1
 534 450 572 473 629 473 c 0
 711 473 764 418 764 332 c 2
 764 81 l 2
 764 38 775 26 814 24 c 1
 814 0 l 1
 576 0 l 1
 576 24 l 1
 614 27 625 39 625 81 c 2
 625 323 l 2
 625 382 610 406 572 406 c 0
 533 406 487 359 487 348 c 2
 487 81 l 2
 487 43 499 28 534 24 c 1
 534 0 l 1
 300 0 l 1
 300 24 l 1
 337 27 348 40 348 81 c 2
 348 323 l 2
 348 383 333 406 294 406 c 0
EndSplineSet
EndChar

StartChar: n
Encoding: 110 110 78
Width: 556
Flags: MW
LayerCount: 2
Fore
SplineSet
299 406 m 0
 257 406 213 359 213 348 c 2
 213 81 l 2
 213 44 225 29 262 24 c 1
 262 0 l 1
 21 0 l 1
 21 24 l 1
 66 33 74 42 74 84 c 2
 74 378 l 2
 74 420 65 430 21 437 c 1
 21 461 l 1
 212 461 l 1
 212 386 l 1
 249 445 295 473 355 473 c 0
 437 473 490 418 490 332 c 2
 490 81 l 2
 490 39 500 27 539 24 c 1
 539 0 l 1
 304 0 l 1
 304 24 l 1
 338 28 351 44 351 81 c 2
 351 323 l 2
 351 379 334 406 299 406 c 0
EndSplineSet
EndChar

StartChar: o
Encoding: 111 111 79
Width: 500
Flags: MW
AnchorPoint: "above" 252 470 basechar 0
LayerCount: 2
Fore
SplineSet
251 473 m 0
 380 473 476 369 476 229 c 0
 476 90 380 -14 251 -14 c 0
 120 -14 25 89 25 232 c 0
 25 368 124 473 251 473 c 0
252 442 m 0
 190 442 172 390 172 214 c 0
 172 68 192 17 251 17 c 0
 309 17 329 69 329 223 c 0
 329 387 310 442 252 442 c 0
EndSplineSet
EndChar

StartChar: p
Encoding: 112 112 80
Width: 556
Flags: MW
LayerCount: 2
Fore
SplineSet
212 461 m 1
 212 392 l 1
 243 450 279 473 338 473 c 0
 449 473 524 378 524 239 c 0
 524 91 444 -13 332 -13 c 0
 288 -13 262 0 214 47 c 1
 214 -94 l 2
 214 -161 231 -181 292 -184 c 1
 292 -205 l 1
 19 -205 l 1
 19 -181 l 1
 67 -173 75 -164 75 -123 c 2
 75 378 l 2
 75 420 65 430 21 437 c 1
 21 461 l 1
 212 461 l 1
300 416 m 0
 252 416 214 360 214 346 c 2
 214 103 l 1
 229 65 258 42 291 42 c 0
 348 42 376 101 376 225 c 0
 376 356 352 416 300 416 c 0
EndSplineSet
EndChar

StartChar: q
Encoding: 113 113 81
Width: 556
Flags: MW
LayerCount: 2
Fore
SplineSet
342 -97 m 2
 342 42 l 1
 301 2 266 -14 219 -14 c 0
 110 -14 34 82 34 219 c 0
 34 368 126 473 256 473 c 0
 306 473 337 459 388 416 c 1
 466 472 l 1
 481 472 l 1
 481 -123 l 2
 481 -163 490 -172 536 -181 c 1
 536 -205 l 1
 269 -205 l 1
 269 -180 l 1
 334 -168 342 -159 342 -97 c 2
342 98 m 1
 342 361 l 2
 342 409 315 441 275 441 c 0
 212 441 180 371 180 236 c 0
 180 105 211 40 273 40 c 0
 307 40 332 61 342 98 c 1
EndSplineSet
EndChar

StartChar: r
Encoding: 114 114 82
Width: 444
Flags: MW
LayerCount: 2
Fore
SplineSet
371 328 m 0
 318 328 304 387 283 387 c 0
 250 387 222 344 222 292 c 2
 222 103 l 2
 222 41 234 28 295 24 c 1
 295 0 l 1
 29 0 l 1
 29 24 l 1
 73 32 83 43 83 84 c 2
 83 378 l 2
 83 418 72 431 29 437 c 1
 29 461 l 1
 218 461 l 1
 218 379 l 1
 265 446 303 473 353 473 c 0
 400 473 434 440 434 395 c 0
 434 356 408 328 371 328 c 0
EndSplineSet
EndChar

StartChar: s
Encoding: 115 115 83
Width: 389
Flags: MW
LayerCount: 2
Fore
SplineSet
184 473 m 0
 234 473 271 451 294 451 c 0
 306 451 312 456 318 471 c 1
 340 471 l 1
 340 326 l 1
 315 326 l 1
 287 407 243 440 193 440 c 0
 155 440 127 415 127 382 c 0
 127 281 361 304 361 138 c 0
 361 48 298 -14 207 -14 c 0
 136 -14 100 15 76 15 c 0
 67 15 61 8 50 -13 c 1
 25 -13 l 1
 25 152 l 1
 53 152 l 1
 74 65 120 20 190 20 c 0
 235 20 265 46 265 85 c 0
 265 179 27 172 27 327 c 0
 27 411 93 473 184 473 c 0
EndSplineSet
EndChar

StartChar: t
Encoding: 116 116 84
Width: 333
Flags: MW
LayerCount: 2
Fore
SplineSet
305 461 m 1
 305 417 l 1
 211 417 l 1
 211 116 l 2
 211 76 222 59 250 59 c 0
 271 59 287 73 307 111 c 1
 332 100 l 1
 291 18 251 -12 184 -12 c 0
 115 -12 72 28 72 93 c 2
 72 417 l 1
 20 417 l 1
 20 444 l 1
 85 499 125 544 186 630 c 1
 211 630 l 1
 211 461 l 1
 305 461 l 1
EndSplineSet
EndChar

StartChar: u
Encoding: 117 117 85
Width: 556
Flags: MW
AnchorPoint: "above" 259 470 basechar 0
LayerCount: 2
Fore
SplineSet
343 -13 m 1
 343 52 l 1
 285 2 250 -14 198 -14 c 0
 115 -14 65 38 65 126 c 2
 65 378 l 2
 65 420 57 429 16 437 c 1
 16 461 l 1
 204 461 l 1
 204 122 l 2
 204 71 219 51 260 51 c 0
 288 51 309 62 342 95 c 1
 342 378 l 2
 342 421 330 433 280 437 c 1
 280 461 l 1
 481 461 l 1
 481 101 l 2
 481 58 493 45 537 43 c 1
 537 20 l 1
 475 13 l 2
 410 6 386 2 343 -13 c 1
EndSplineSet
EndChar

StartChar: v
Encoding: 118 118 86
Width: 500
Flags: MW
LayerCount: 2
Fore
SplineSet
485 461 m 1
 485 437 l 1
 454 434 445 426 427 382 c 0
 267 -14 l 1
 241 -14 l 1
 121 282 l 1
 105 323 58 422 56 422 c 1
 50 431 44 434 21 437 c 1
 21 461 l 1
 271 461 l 1
 271 437 l 1
 263 436 255 435 253 435 c 0
 228 433 218 426 218 411 c 0
 218 405 220 399 227 380 c 2
 306 177 l 1
 378 359 l 2
 385 377 389 393 389 404 c 0
 389 428 377 435 334 437 c 1
 334 461 l 1
 485 461 l 1
EndSplineSet
EndChar

StartChar: w
Encoding: 119 119 87
Width: 722
Flags: MW
LayerCount: 2
Fore
SplineSet
541 180 m 1
 604 358 620 363 620 402 c 0
 620 425 609 433 572 437 c 1
 572 461 l 1
 707 461 l 1
 707 437 l 1
 681 432 672 425 657 387 c 0
 502 -14 l 1
 479 -14 l 1
 377 296 l 1
 252 -14 l 1
 228 -14 l 1
 80 360 l 1
 53 426 49 432 23 437 c 1
 23 461 l 1
 245 461 l 1
 245 437 l 1
 217 433 207 425 207 409 c 0
 207 388 257 263 267 240 c 2
 291 176 l 1
 359 347 l 1
 353 366 l 1
 334 432 333 433 294 437 c 1
 294 461 l 1
 528 461 l 1
 528 437 l 1
 490 434 480 429 480 413 c 0
 480 384 498 355 541 180 c 1
EndSplineSet
EndChar

StartChar: x
Encoding: 120 120 88
Width: 500
Flags: MW
LayerCount: 2
Fore
SplineSet
286 303 m 1
 329 364 360 387 360 413 c 0
 360 428 352 434 329 435 c 0
 326 435 318 436 309 437 c 1
 309 461 l 1
 477 461 l 1
 477 437 l 1
 446 432 426 421 407 398 c 2
 306 272 l 1
 454 44 l 2
 461 33 468 29 484 24 c 1
 484 0 l 1
 243 0 l 1
 243 24 l 1
 274 26 288 32 288 44 c 0
 288 56 278 75 255 108 c 2
 213 171 l 1
 198 152 133 75 133 48 c 0
 133 33 147 26 183 24 c 1
 183 0 l 1
 14 0 l 1
 14 24 l 1
 63 27 71 47 192 201 c 1
 64 398 l 2
 44 428 38 433 12 437 c 1
 12 461 l 1
 262 461 l 1
 262 437 l 1
 229 436 215 430 215 418 c 0
 215 399 268 325 286 303 c 1
EndSplineSet
EndChar

StartChar: y
Encoding: 121 121 89
Width: 500
Flags: MW
AnchorPoint: "above" 244 470 basechar 0
LayerCount: 2
Fore
SplineSet
138 -111 m 0
 138 -119 135 -127 135 -131 c 0
 135 -140 143 -148 152 -148 c 0
 175 -148 201 -116 218 -66 c 2
 236 -13 l 1
 116 282 l 2
 99 324 54 422 51 422 c 1
 45 431 39 434 16 437 c 1
 16 461 l 1
 266 461 l 1
 266 437 l 1
 250 436 l 2
 225 434 213 425 213 411 c 0
 213 403 213 403 233 352 c 2
 305 167 l 1
 373 359 l 2
 382 384 384 393 384 404 c 0
 384 428 372 435 329 437 c 1
 329 461 l 1
 480 461 l 1
 480 437 l 1
 449 434 438 424 422 382 c 0
 273 -15 l 2
 235 -116 209 -205 113 -205 c 0
 56 -205 16 -172 16 -126 c 0
 16 -88 43 -62 80 -62 c 0
 114 -62 138 -82 138 -111 c 0
EndSplineSet
EndChar

StartChar: z
Encoding: 122 122 90
Width: 444
Flags: MW
LayerCount: 2
Fore
SplineSet
214 32 m 2
 317 32 364 59 392 160 c 1
 420 160 l 1
 404 0 l 1
 21 0 l 1
 21 25 l 1
 255 429 l 1
 251 429 247 429 244 429 c 0
 114 429 88 411 64 319 c 1
 38 319 l 1
 45 461 l 1
 416 461 l 1
 416 435 l 1
 185 32 l 1
 214 32 l 2
EndSplineSet
EndChar

StartChar: braceleft
Encoding: 123 123 91
Width: 394
Flags: MW
LayerCount: 2
Fore
SplineSet
340 -175 m 1
 183 -173 129 -144 129 -34 c 2
 129 145 l 2
 129 216 107 240 22 261 c 1
 107 282 129 306 129 377 c 2
 129 556 l 2
 129 666 181 696 340 698 c 1
 340 686 l 1
 260 669 234 638 234 562 c 2
 234 391 l 2
 234 307 210 281 116 261 c 1
 210 241 234 215 234 131 c 2
 234 -40 l 2
 234 -116 261 -147 340 -163 c 1
 340 -175 l 1
EndSplineSet
EndChar

StartChar: bar
Encoding: 124 124 92
Width: 220
Flags: MW
LayerCount: 2
Fore
SplineSet
66 -19 m 1
 66 691 l 1
 154 691 l 1
 154 -19 l 1
 66 -19 l 1
EndSplineSet
EndChar

StartChar: braceright
Encoding: 125 125 93
Width: 394
Flags: MW
LayerCount: 2
Fore
SplineSet
54 698 m 1
 200 696 265 674 265 557 c 2
 265 378 l 2
 265 307 287 283 372 262 c 1
 287 241 265 217 265 146 c 2
 265 -33 l 2
 265 -143 213 -173 54 -175 c 1
 54 -163 l 1
 134 -146 160 -115 160 -39 c 2
 160 132 l 2
 160 215 185 242 278 262 c 1
 184 282 160 308 160 392 c 2
 160 563 l 2
 160 638 133 670 54 686 c 1
 54 698 l 1
EndSplineSet
EndChar

StartChar: asciitilde
Encoding: 126 126 94
Width: 520
Flags: MW
LayerCount: 2
Fore
SplineSet
153 331 m 0
 225 331 321 263 368 263 c 0
 391 263 411 276 436 308 c 1
 491 260 l 1
 446 197 414 175 368 175 c 0
 282 175 241 243 151 243 c 0
 122 243 105 233 82 201 c 1
 29 247 l 1
 63 306 99 331 153 331 c 0
EndSplineSet
EndChar

StartChar: cent
Encoding: 162 162 96
Width: 500
Flags: MW
LayerCount: 2
Fore
SplineSet
181 5 m 1
 60 63 53 178 53 223 c 0
 53 366 152 473 285 473 c 0
 306 473 321 471 345 465 c 1
 389 588 l 1
 429 588 l 1
 381 452 l 1
 425 428 444 401 444 364 c 0
 444 326 417 300 378 300 c 0
 360 300 346 306 334 320 c 1
 252 90 l 1
 279 63 301 53 335 53 c 0
 378 53 406 68 440 109 c 1
 458 91 l 1
 433 60 378 -14 267 -14 c 0
 248 -14 236 -12 217 -7 c 1
 170 -140 l 1
 130 -140 l 1
 181 5 l 1
225 128 m 1
 321 397 l 1
 321 400 l 2
 321 424 303 442 278 442 c 0
 227 442 194 376 194 274 c 0
 194 216 203 174 225 128 c 1
EndSplineSet
EndChar

StartChar: sterling
Encoding: 163 163 97
Width: 500
Flags: MW
LayerCount: 2
Fore
SplineSet
105 489 m 0
 105 602 184 684 308 684 c 0
 401 684 459 640 459 571 c 0
 459 527 433 499 391 499 c 0
 354 499 329 524 329 560 c 0
 329 562 329 563 329 564 c 0
 331 608 l 1
 331 611 l 2
 331 639 315 654 287 654 c 0
 254 654 231 629 231 591 c 0
 231 569 251 458 270 373 c 1
 384 373 l 1
 384 308 l 1
 275 308 l 1
 276 289 277 275 277 254 c 0
 277 206 273 180 257 134 c 1
 300 118 327 112 354 112 c 0
 416 112 439 129 454 183 c 1
 477 183 l 1
 470 104 457 -14 346 -14 c 0
 303 -14 275 0 221 49 c 1
 188 6 154 -13 109 -13 c 0
 53 -13 21 18 21 72 c 0
 21 132 58 164 127 164 c 0
 145 164 158 162 178 157 c 1
 176 194 172 210 137 308 c 1
 39 308 l 1
 39 373 l 1
 119 373 l 1
 108 434 105 459 105 489 c 0
181 86 m 1
 154 110 136 118 109 118 c 0
 75 118 53 98 53 66 c 0
 53 37 76 17 109 17 c 0
 146 17 167 37 181 86 c 1
EndSplineSet
EndChar

StartChar: currency
Encoding: 164 164 98
Width: 500
Flags: MW
LayerCount: 2
Fore
SplineSet
-26 119 m 1
 72 217 l 1
 46 255 35 290 35 337 c 0
 35 383 46 420 72 459 c 1
 -26 557 l 1
 32 613 l 1
 128 517 l 1
 168 542 204 552 250 552 c 0
 296 552 332 542 372 517 c 1
 468 613 l 1
 526 557 l 1
 428 459 l 1
 455 416 465 383 465 337 c 0
 465 290 454 253 428 217 c 1
 526 119 l 1
 468 61 l 1
 372 159 l 1
 331 133 294 122 250 122 c 0
 206 122 169 133 128 159 c 1
 32 61 l 1
 -26 119 l 1
250 470 m 0
 179 470 123 412 123 337 c 0
 123 263 179 204 250 204 c 0
 319 204 377 264 377 335 c 0
 377 410 321 470 250 470 c 0
EndSplineSet
EndChar

StartChar: yen
Encoding: 165 165 99
Width: 500
Flags: MW
LayerCount: 2
Fore
SplineSet
450 292 m 1
 319 292 l 1
 315 281 l 1
 315 214 l 1
 450 214 l 1
 450 164 l 1
 315 164 l 1
 315 115 l 2
 315 47 331 32 414 25 c 1
 414 0 l 1
 83 0 l 1
 83 25 l 1
 168 32 185 47 185 115 c 2
 185 164 l 1
 50 164 l 1
 50 214 l 1
 185 214 l 1
 185 271 l 1
 174 292 l 1
 50 292 l 1
 50 342 l 1
 149 342 l 1
 19 597 l 1
 0 633 -23 647 -64 650 c 1
 -64 676 l 1
 237 676 l 1
 237 650 l 1
 177 648 160 642 160 621 c 0
 160 587 202 534 278 371 c 2
 293 342 l 1
 412 572 l 1
 417 583 420 595 420 607 c 0
 420 639 406 647 342 650 c 1
 342 676 l 1
 547 676 l 1
 547 650 l 1
 513 647 496 637 483 613 c 2
 339 342 l 1
 450 342 l 1
 450 292 l 1
EndSplineSet
EndChar

StartChar: brokenbar
Encoding: 166 166 100
Width: 220
Flags: MW
LayerCount: 2
Fore
SplineSet
66 -19 m 1
 66 258 l 1
 154 258 l 1
 154 -19 l 1
 66 -19 l 1
66 414 m 1
 66 691 l 1
 154 691 l 1
 154 414 l 1
 66 414 l 1
EndSplineSet
EndChar

StartChar: section
Encoding: 167 167 101
Width: 500
Flags: MW
LayerCount: 2
Fore
SplineSet
218 -23 m 0
 218 -58 172 -67 172 -80 c 0
 172 -95 205 -109 240 -109 c 0
 293 -109 319 -85 319 -38 c 0
 319 -7 310 9 282 32 c 2
 225 78 l 2
 84 192 57 226 57 293 c 0
 57 372 101 415 180 415 c 2
 199 415 l 1
 117 487 99 513 99 561 c 0
 99 637 161 691 248 691 c 0
 326 691 393 645 393 592 c 0
 393 559 362 528 328 528 c 0
 299 528 268 558 268 585 c 0
 268 616 310 634 310 647 c 0
 310 658 284 668 256 668 c 0
 207 668 173 640 173 599 c 0
 173 565 208 526 277 480 c 0
 367 421 443 346 443 256 c 0
 443 172 388 146 302 144 c 1
 376 92 404 51 404 -3 c 0
 404 -78 335 -132 240 -132 c 0
 157 -132 90 -87 90 -32 c 0
 90 5 118 33 153 33 c 0
 188 33 218 7 218 -23 c 0
367 225 m 0
 367 293 226 392 186 392 c 0
 155 392 132 368 132 336 c 0
 132 300 142 285 202 233 c 0
 263 180 284 167 314 167 c 0
 344 167 367 191 367 225 c 0
EndSplineSet
EndChar

StartChar: dieresis
Encoding: 168 168 102
Width: 333
Flags: MW
LayerCount: 2
Fore
SplineSet
62 666 m 0
 97 666 127 636 127 600 c 0
 127 565 98 537 62 537 c 0
 27 537 -2 567 -2 602 c 0
 -2 636 28 666 62 666 c 0
271 666 m 0
 307 666 337 636 337 600 c 0
 337 565 308 537 271 537 c 0
 236 537 208 566 208 603 c 0
 208 636 238 666 271 666 c 0
EndSplineSet
EndChar

StartChar: copyright
Encoding: 169 169 103
Width: 747
Flags: MW
LayerCount: 2
Fore
SplineSet
402 544 m 0
 447 544 527 529 527 504 c 2
 527 432 l 1
 508 432 l 1
 490 493 457 521 401 521 c 0
 322 521 278 458 278 344 c 0
 278 230 323 165 401 165 c 0
 457 165 493 191 525 256 c 1
 544 256 l 1
 528 182 l 2
 526 159 440 142 390 142 c 0
 259 142 176 218 176 340 c 0
 176 464 264 544 402 544 c 0
374 691 m 0
 569 691 721 536 721 337 c 0
 721 133 571 -19 369 -19 c 0
 178 -19 26 138 26 335 c 0
 26 535 178 691 374 691 c 0
374 639 m 0
 220 639 97 504 97 335 c 0
 97 169 220 33 370 33 c 0
 528 33 650 166 650 336 c 0
 650 504 527 639 374 639 c 0
EndSplineSet
EndChar

StartChar: ordfeminine
Encoding: 170 170 104
Width: 300
Flags: MW
LayerCount: 2
Fore
SplineSet
279 435 m 0
 284 435 285 437 291 443 c 1
 301 431 l 1
 277 406 257 397 228 397 c 0
 196 397 182 408 175 438 c 1
 140 409 111 397 73 397 c 0
 29 397 -1 424 -1 463 c 0
 -1 513 38 538 173 573 c 1
 173 613 l 2
 173 650 159 665 123 665 c 0
 101 665 82 655 82 643 c 0
 82 635 102 623 102 608 c 0
 102 587 82 573 54 573 c 0
 28 573 12 588 12 613 c 0
 12 659 63 688 141 688 c 0
 219 688 268 656 268 606 c 2
 268 450 l 2
 268 439 271 435 279 435 c 0
172 465 m 1
 172 552 l 1
 122 537 97 513 97 479 c 0
 97 456 110 439 129 439 c 0
 145 439 158 447 172 465 c 1
EndSplineSet
EndChar

StartChar: guillemotleft
Encoding: 171 171 105
Width: 500
Flags: MW
LayerCount: 2
Fore
SplineSet
355 227 m 1
 398 164 473 88 473 51 c 0
 473 42 468 36 461 36 c 0
 454 36 441 43 425 59 c 2
 219 225 l 1
 219 229 l 1
 422 393 l 2
 429 398 444 415 459 415 c 0
 467 415 471 411 471 404 c 0
 471 368 380 260 355 227 c 1
159 227 m 1
 202 164 277 88 277 51 c 0
 277 42 272 36 265 36 c 0
 258 36 245 43 229 59 c 2
 23 225 l 1
 23 229 l 1
 226 393 l 2
 233 398 248 415 263 415 c 0
 271 415 275 411 275 404 c 0
 275 368 184 260 159 227 c 1
EndSplineSet
EndChar

StartChar: logicalnot
Encoding: 172 172 106
Width: 680
Flags: MW
LayerCount: 2
Fore
SplineSet
618 64 m 1
 523 64 l 1
 523 264 l 1
 62 264 l 1
 62 362 l 1
 618 362 l 1
 618 64 l 1
EndSplineSet
EndChar

StartChar: registered
Encoding: 174 174 107
Width: 747
Flags: MW
LayerCount: 2
Fore
SplineSet
482 153 m 2
 453 153 433 217 370 320 c 1
 333 320 l 1
 333 215 l 2
 333 175 334 174 379 171 c 1
 379 153 l 1
 207 153 l 1
 207 171 l 1
 252 174 253 175 253 215 c 2
 253 470 l 2
 253 511 253 511 207 514 c 1
 207 532 l 1
 400 532 l 2
 471 532 515 495 515 436 c 0
 515 388 488 352 435 331 c 1
 493 249 l 2
 522 209 542 184 563 164 c 1
 563 153 l 1
 482 153 l 2
333 510 m 1
 333 342 l 1
 368 342 l 2
 407 342 430 374 430 430 c 0
 430 484 410 510 369 510 c 2
 333 510 l 1
374 691 m 0
 569 691 721 536 721 337 c 0
 721 133 571 -19 369 -19 c 0
 178 -19 26 138 26 335 c 0
 26 535 178 691 374 691 c 0
374 639 m 0
 220 639 97 504 97 335 c 0
 97 169 220 33 370 33 c 0
 528 33 650 166 650 336 c 0
 650 504 527 639 374 639 c 0
EndSplineSet
EndChar

StartChar: macron
Encoding: 175 175 108
Width: 333
Flags: MW
LayerCount: 2
Fore
SplineSet
331 637 m 1
 331 565 l 1
 1 565 l 1
 1 637 l 1
 331 637 l 1
EndSplineSet
EndChar

StartChar: degree
Encoding: 176 176 109
Width: 400
Flags: MW
LayerCount: 2
Fore
SplineSet
200 688 m 0
 280 688 343 625 343 545 c 0
 343 464 280 402 198 402 c 0
 120 402 57 466 57 545 c 0
 57 625 120 688 200 688 c 0
200 652 m 0
 144 652 98 603 98 545 c 0
 98 487 144 438 199 438 c 0
 256 438 302 486 302 545 c 0
 302 603 255 652 200 652 c 0
EndSplineSet
EndChar

StartChar: plusminus
Encoding: 177 177 110
Width: 676
Flags: MW
LayerCount: 2
Fore
SplineSet
614 268 m 1
 387 268 l 1
 387 87 l 1
 291 87 l 1
 291 268 l 1
 63 268 l 1
 63 364 l 1
 291 364 l 1
 291 558 l 1
 387 558 l 1
 387 364 l 1
 614 364 l 1
 614 268 l 1
613 -44 m 1
 62 -44 l 1
 62 48 l 1
 613 48 l 1
 613 -44 l 1
EndSplineSet
EndChar

StartChar: twosuperior
Encoding: 178 178 111
Width: 300
Flags: MW
LayerCount: 2
Fore
SplineSet
300 402 m 1
 270 275 l 1
 0 275 l 1
 0 289 l 1
 149 438 184 486 184 544 c 0
 184 586 151 620 109 620 c 0
 75 620 54 605 33 566 c 1
 9 566 l 1
 43 650 88 688 152 688 c 0
 222 688 272 642 272 577 c 0
 272 533 251 497 198 447 c 2
 99 355 l 1
 191 355 l 2
 257 355 265 359 284 402 c 1
 300 402 l 1
EndSplineSet
EndChar

StartChar: threesuperior
Encoding: 179 179 112
Width: 300
Flags: MW
LayerCount: 2
Fore
SplineSet
43 363 m 1
 112 356 113 304 159 304 c 0
 197 304 222 330 222 369 c 0
 222 427 188 459 92 490 c 1
 92 500 l 1
 153 518 176 539 176 579 c 0
 176 616 150 640 111 640 c 0
 80 640 61 627 36 590 c 1
 16 597 l 1
 52 658 100 688 165 688 c 0
 232 688 271 658 271 607 c 0
 271 571 258 553 217 531 c 1
 271 509 297 474 297 424 c 0
 297 337 211 268 103 268 c 0
 42 268 3 289 3 322 c 0
 3 341 16 354 43 363 c 1
EndSplineSet
EndChar

StartChar: acute
Encoding: 180 180 113
Width: 333
Flags: MW
LayerCount: 2
Fore
SplineSet
86 528 m 1
 223 685 l 2
 240 704 257 713 276 713 c 0
 305 713 324 695 324 669 c 0
 324 646 316 636 284 616 c 2
 142 528 l 1
 86 528 l 1
EndSplineSet
EndChar

StartChar: micro
Encoding: 181 181 114
Width: 556
Flags: MW
LayerCount: 2
Fore
SplineSet
33 -129 m 0
 33 -86 66 -26 66 88 c 2
 66 461 l 1
 205 461 l 1
 205 149 l 2
 205 105 228 75 262 75 c 0
 283 75 308 84 336 102 c 1
 336 461 l 1
 475 461 l 1
 475 101 l 2
 475 75 493 54 515 54 c 0
 522 54 527 55 536 60 c 1
 536 36 l 1
 492 -3 472 -13 430 -13 c 0
 382 -13 351 3 329 39 c 1
 298 1 271 -13 230 -13 c 0
 190 -13 160 -3 128 22 c 1
 136 -41 161 -94 161 -130 c 0
 161 -179 138 -206 98 -206 c 0
 57 -206 33 -178 33 -129 c 0
EndSplineSet
EndChar

StartChar: paragraph
Encoding: 182 182 115
Width: 540
Flags: MW
LayerCount: 2
Fore
SplineSet
199 265 m 1
 33 271 0 391 0 481 c 0
 0 615 69 676 219 676 c 2
 519 676 l 1
 519 651 l 1
 508 650 497 649 493 649 c 0
 444 643 438 638 438 599 c 1
 437 589 l 1
 437 -99 l 1
 438 -109 l 1
 439 -148 443 -153 491 -159 c 0
 494 -159 504 -160 514 -161 c 1
 514 -186 l 1
 343 -186 l 1
 343 651 l 1
 293 651 l 1
 293 -186 l 1
 118 -186 l 1
 118 -161 l 1
 192 -154 198 -150 198 -109 c 1
 199 -99 l 1
 199 265 l 1
199 651 m 1
 149 638 90 617 90 483 c 0
 90 378 124 317 199 290 c 1
 199 651 l 1
EndSplineSet
EndChar

StartChar: periodcentered
Encoding: 183 183 116
Width: 250
Flags: MW
LayerCount: 2
Fore
SplineSet
125 417 m 0
 172 417 210 378 210 332 c 0
 210 285 172 248 124 248 c 0
 77 248 41 285 41 333 c 0
 41 378 79 417 125 417 c 0
EndSplineSet
EndChar

StartChar: cedilla
Encoding: 184 184 117
Width: 333
Flags: MW
LayerCount: 2
Fore
SplineSet
84 -163 m 1
 104 -170 118 -177 144 -177 c 0
 180 -177 201 -162 201 -136 c 0
 201 -114 184 -100 155 -100 c 0
 146 -100 138 -101 127 -104 c 1
 116 -96 l 1
 159 0 l 1
 201 0 l 1
 173 -64 l 1
 185 -60 193 -59 206 -59 c 0
 261 -59 294 -85 294 -129 c 0
 294 -184 244 -218 164 -218 c 0
 131 -218 104 -213 68 -200 c 1
 84 -163 l 1
EndSplineSet
EndChar

StartChar: onesuperior
Encoding: 185 185 118
Width: 270
Flags: MW
LayerCount: 2
Fore
SplineSet
70 617 m 0
 53 617 28 607 14 602 c 1
 14 623 l 1
 178 688 l 1
 189 688 l 1
 189 351 l 2
 189 305 200 296 259 295 c 1
 259 275 l 1
 16 275 l 1
 16 295 l 1
 80 295 93 305 93 355 c 2
 93 576 l 2
 93 604 86 617 70 617 c 0
EndSplineSet
EndChar

StartChar: ordmasculine
Encoding: 186 186 119
Width: 330
Flags: MW
LayerCount: 2
Fore
SplineSet
165 688 m 0
 249 688 312 626 312 543 c 0
 312 457 250 397 163 397 c 0
 80 397 18 459 18 542 c 0
 18 626 81 688 165 688 c 0
165 667 m 0
 127 667 115 635 115 538 c 0
 115 449 128 417 164 417 c 0
 201 417 214 447 214 536 c 0
 214 636 202 667 165 667 c 0
EndSplineSet
EndChar

StartChar: guillemotright
Encoding: 187 187 120
Width: 500
Flags: MW
LayerCount: 2
Fore
SplineSet
145 224 m 1
 115 268 27 363 27 400 c 0
 27 409 32 415 38 415 c 0
 44 415 57 410 75 392 c 2
 281 226 l 1
 281 222 l 1
 72 53 l 2
 56 39 49 36 41 36 c 0
 33 36 29 40 29 47 c 0
 29 68 64 123 122 194 c 1
 145 224 l 1
341 224 m 1
 311 268 223 363 223 400 c 0
 223 409 228 415 235 415 c 0
 248 415 268 394 271 392 c 2
 477 226 l 1
 477 222 l 1
 274 58 l 2
 259 43 244 36 237 36 c 0
 229 36 225 40 225 47 c 0
 225 68 260 124 317 194 c 2
 341 224 l 1
EndSplineSet
EndChar

StartChar: onequarter
Encoding: 188 188 121
Width: 750
Flags: MW
LayerCount: 2
Fore
SplineSet
702 153 m 1
 743 153 l 1
 743 87 l 1
 702 87 l 1
 702 0 l 1
 608 0 l 1
 608 87 l 1
 447 87 l 1
 447 154 l 1
 489 217 522 259 611 367 c 2
 650 413 l 1
 702 413 l 1
 702 153 l 1
609 153 m 1
 609 328 l 1
 472 153 l 1
 609 153 l 1
615 688 m 1
 671 688 l 1
 232 -12 l 1
 174 -12 l 1
 615 688 l 1
84 617 m 0
 67 617 42 607 28 602 c 1
 28 623 l 1
 192 688 l 1
 203 688 l 1
 203 351 l 2
 203 305 214 296 273 295 c 1
 273 275 l 1
 30 275 l 1
 30 295 l 1
 94 295 107 305 107 355 c 2
 107 576 l 2
 107 604 100 617 84 617 c 0
EndSplineSet
EndChar

StartChar: onehalf
Encoding: 189 189 122
Width: 750
Flags: MW
LayerCount: 2
Fore
SplineSet
573 688 m 1
 629 688 l 1
 190 -12 l 1
 132 -12 l 1
 573 688 l 1
49 617 m 0
 32 617 7 607 -7 602 c 1
 -7 623 l 1
 157 688 l 1
 168 688 l 1
 168 351 l 2
 168 305 179 296 238 295 c 1
 238 275 l 1
 -5 275 l 1
 -5 295 l 1
 59 295 72 305 72 355 c 2
 72 576 l 2
 72 604 65 617 49 617 c 0
775 127 m 1
 745 0 l 1
 475 0 l 1
 475 14 l 1
 624 163 659 211 659 269 c 0
 659 311 626 345 584 345 c 0
 550 345 529 330 508 291 c 1
 484 291 l 1
 518 375 563 413 627 413 c 0
 697 413 747 367 747 302 c 0
 747 258 727 222 673 172 c 2
 580 85 l 1
 580 80 l 1
 666 80 l 2
 732 80 740 84 759 127 c 1
 775 127 l 1
EndSplineSet
EndChar

StartChar: threequarters
Encoding: 190 190 123
Width: 750
Flags: MW
LayerCount: 2
Fore
SplineSet
613 688 m 1
 669 688 l 1
 230 -12 l 1
 172 -12 l 1
 613 688 l 1
63 363 m 1
 132 356 133 304 179 304 c 0
 217 304 242 330 242 369 c 0
 242 427 208 459 112 490 c 1
 112 500 l 1
 173 518 196 539 196 579 c 0
 196 616 170 640 131 640 c 0
 100 640 81 627 56 590 c 1
 36 597 l 1
 72 658 120 688 185 688 c 0
 252 688 291 658 291 607 c 0
 291 572 278 553 241 533 c 1
 241 529 l 1
 291 509 317 473 317 424 c 0
 317 337 231 268 123 268 c 0
 62 268 23 289 23 322 c 0
 23 341 36 354 63 363 c 1
692 153 m 1
 733 153 l 1
 733 87 l 1
 692 87 l 1
 692 0 l 1
 598 0 l 1
 598 87 l 1
 437 87 l 1
 437 154 l 1
 479 217 512 259 601 367 c 2
 640 413 l 1
 692 413 l 1
 692 153 l 1
599 153 m 1
 599 328 l 1
 462 153 l 1
 599 153 l 1
EndSplineSet
EndChar

StartChar: AE
Encoding: 198 198 131
Width: 1000
Flags: MW
LayerCount: 2
Fore
SplineSet
884 475 m 1
 862 582 839 641 660 641 c 0
 606 641 592 635 592 611 c 2
 592 363 l 1
 709 373 719 383 747 512 c 1
 770 512 l 1
 770 174 l 1
 747 174 l 1
 729 298 704 324 592 331 c 1
 592 88 l 2
 592 45 608 34 668 34 c 0
 753 34 812 53 852 95 c 0
 886 130 920 181 928 211 c 1
 951 211 l 1
 910 0 l 1
 344 0 l 1
 344 25 l 1
 417 29 432 45 432 119 c 2
 432 303 l 1
 242 303 l 1
 142 115 l 2
 131 95 127 82 127 70 c 0
 127 43 141 33 193 27 c 2
 210 25 l 1
 210 0 l 1
 4 0 l 1
 4 25 l 1
 43 31 52 40 114 153 c 0
 327 542 l 2
 336 556 362 602 362 617 c 0
 362 641 341 650 275 654 c 1
 275 676 l 1
 909 676 l 1
 909 475 l 1
 884 475 l 1
264 343 m 1
 432 343 l 1
 432 633 l 1
 425 633 l 1
 264 343 l 1
EndSplineSet
EndChar

StartChar: Ccedilla
Encoding: 199 199 132
Width: 722
Flags: MW
LayerCount: 2
Fore
SplineSet
427 29 m 0
 523 29 592 84 657 152 c 1
 687 127 l 1
 593 20 518 -18 401 -19 c 1
 381 -64 l 1
 393 -60 401 -59 414 -59 c 0
 469 -59 502 -85 502 -129 c 0
 502 -184 452 -218 372 -218 c 0
 339 -218 312 -213 276 -200 c 1
 292 -163 l 1
 307 -168 327 -177 351 -177 c 0
 388 -177 409 -162 409 -136 c 0
 409 -114 392 -100 363 -100 c 0
 354 -100 346 -101 335 -104 c 1
 324 -96 l 1
 359 -17 l 1
 356 -16 l 2
 174 2 49 144 49 332 c 0
 49 537 198 691 397 691 c 0
 506 691 558 642 598 642 c 0
 617 642 628 653 642 688 c 1
 669 688 l 1
 669 454 l 1
 644 454 l 1
 620 505 542 658 410 658 c 0
 290 658 226 548 226 341 c 0
 226 101 314 29 427 29 c 0
EndSplineSet
EndChar

StartChar: Eth
Encoding: 208 208 141
Width: 722
Flags: MW
LayerCount: 2
Fore
SplineSet
6 326 m 1
 6 373 l 1
 97 373 l 1
 97 584 l 2
 97 630 78 645 14 651 c 1
 14 676 l 1
 319 676 l 2
 550 676 690 551 690 345 c 0
 690 138 546 0 330 0 c 2
 14 0 l 1
 14 25 l 1
 72 27 97 47 97 91 c 2
 97 326 l 1
 6 326 l 1
319 642 m 0
 265 642 259 626 259 595 c 2
 259 373 l 1
 373 373 l 1
 373 326 l 1
 259 326 l 1
 259 93 l 2
 259 48 272 35 317 35 c 0
 421 35 516 98 516 330 c 0
 516 576 409 642 319 642 c 0
EndSplineSet
EndChar

StartChar: multiply
Encoding: 215 215 148
Width: 676
Flags: MW
LayerCount: 2
Fore
SplineSet
614 51 m 1
 546 -17 l 1
 338 191 l 1
 130 -17 l 1
 62 51 l 1
 268 257 l 1
 62 463 l 1
 130 531 l 1
 338 324 l 1
 546 531 l 1
 614 463 l 1
 408 257 l 1
 614 51 l 1
EndSplineSet
EndChar

StartChar: Oslash
Encoding: 216 216 149
Width: 778
Flags: MW
LayerCount: 2
Fore
SplineSet
167 52 m 1
 128 86 35 165 35 335 c 0
 35 542 183 691 390 691 c 0
 458 691 509 678 572 644 c 1
 635 737 l 1
 685 737 l 1
 607 622 l 1
 654 583 743 508 743 336 c 0
 743 128 596 -19 389 -19 c 0
 317 -19 265 -5 202 30 c 1
 131 -74 l 1
 81 -74 l 1
 167 52 l 1
234 151 m 1
 520 569 l 1
 485 633 448 658 389 658 c 0
 276 658 212 539 212 328 c 0
 212 254 217 212 234 151 c 1
540 524 m 1
 253 104 l 1
 287 40 326 14 389 14 c 0
 505 14 566 124 566 331 c 0
 566 411 560 459 540 524 c 1
EndSplineSet
EndChar

StartChar: Thorn
Encoding: 222 222 155
Width: 611
Flags: MW
LayerCount: 2
Fore
SplineSet
262 546 m 1
 328 546 l 2
 507 546 600 483 600 363 c 0
 600 299 569 247 512 212 c 0
 457 180 421 174 262 173 c 1
 262 117 l 2
 262 44 271 35 350 25 c 1
 350 0 l 1
 16 0 l 1
 16 25 l 1
 27 27 37 29 40 29 c 0
 87 35 100 55 100 117 c 2
 100 559 l 2
 100 629 86 645 16 651 c 1
 16 676 l 1
 350 676 l 1
 350 651 l 1
 270 640 262 631 262 558 c 2
 262 546 l 1
262 208 m 1
 390 208 428 236 428 359 c 0
 428 467 395 511 312 511 c 0
 279 511 262 499 262 476 c 2
 262 208 l 1
EndSplineSet
EndChar

StartChar: germandbls
Encoding: 223 223 156
Width: 556
Flags: MW
LayerCount: 2
Fore
SplineSet
371 195 m 0
 371 346 336 369 269 373 c 1
 269 407 l 1
 326 408 339 431 339 530 c 0
 339 624 318 663 268 663 c 0
 230 663 209 636 209 586 c 2
 209 0 l 1
 19 0 l 1
 19 24 l 1
 62 31 70 41 70 87 c 2
 70 507 l 2
 70 614 156 691 277 691 c 0
 391 691 476 625 476 537 c 0
 476 445 391 409 320 393 c 1
 367 379 517 348 517 194 c 0
 517 80 433 -12 328 -12 c 0
 310 -12 294 -8 264 3 c 1
 278 37 l 1
 288 30 l 2
 297 24 301 23 310 23 c 0
 357 23 371 63 371 195 c 0
EndSplineSet
EndChar

StartChar: ae
Encoding: 230 230 163
Width: 722
Flags: MW
AnchorPoint: "above" 374 470 basechar 0
LayerCount: 2
Fore
SplineSet
153 406 m 0
 153 387 182 381 182 341 c 0
 182 305 159 284 119 284 c 0
 77 284 50 309 50 348 c 0
 50 420 127 473 232 473 c 0
 298 473 336 459 374 422 c 1
 411 458 449 473 501 473 c 0
 578 473 688 439 688 248 c 1
 434 248 l 1
 434 225 l 2
 434 110 468 61 549 61 c 0
 598 61 633 80 672 128 c 1
 693 113 l 1
 634 23 579 -9 484 -9 c 0
 414 -9 375 13 337 75 c 1
 281 19 225 -14 151 -14 c 0
 74 -14 33 24 33 94 c 0
 33 206 159 235 296 280 c 1
 296 360 l 2
 296 418 274 441 218 441 c 0
 180 441 153 426 153 406 c 0
296 81 m 1
 296 248 l 1
 208 216 177 183 177 121 c 0
 177 74 197 49 234 49 c 0
 257 49 272 56 296 81 c 1
434 285 m 1
 567 285 l 1
 567 318 l 2
 567 411 551 443 504 443 c 0
 452 443 434 403 434 285 c 1
EndSplineSet
EndChar

StartChar: ccedilla
Encoding: 231 231 164
Width: 444
Flags: MW
LayerCount: 2
Fore
SplineSet
153 -163 m 1
 168 -168 188 -177 212 -177 c 0
 249 -177 270 -162 270 -136 c 0
 270 -114 253 -100 224 -100 c 0
 215 -100 207 -101 196 -104 c 1
 185 -96 l 1
 222 -13 l 1
 103 -2 25 91 25 222 c 0
 25 367 125 473 261 473 c 0
 349 473 416 425 416 363 c 0
 416 324 390 300 348 300 c 0
 311 300 293 323 292 372 c 0
 292 414 292 414 287 423 c 0
 281 434 266 442 250 442 c 0
 198 442 166 379 166 276 c 0
 166 140 221 53 308 53 c 0
 349 53 375 67 412 109 c 1
 430 91 l 1
 383 28 334 -3 265 -13 c 1
 242 -64 l 1
 254 -60 262 -59 275 -59 c 0
 330 -59 363 -85 363 -129 c 0
 363 -184 313 -218 233 -218 c 0
 200 -218 173 -213 137 -200 c 1
 153 -163 l 1
EndSplineSet
EndChar

StartChar: eth
Encoding: 240 240 173
Width: 500
Flags: MW
LayerCount: 2
Fore
SplineSet
335 614 m 1
 475 499 476 363 476 293 c 0
 476 99 393 -14 251 -14 c 0
 121 -14 25 89 25 229 c 0
 25 368 122 473 249 473 c 0
 291 473 314 462 340 432 c 1
 342 435 l 1
 323 492 297 533 256 574 c 1
 146 518 l 1
 98 549 l 1
 215 608 l 1
 172 639 132 657 82 666 c 1
 128 691 l 1
 189 685 238 671 288 645 c 1
 378 691 l 1
 427 661 l 1
 335 614 l 1
172 222 m 0
 172 81 186 17 252 17 c 0
 310 17 329 69 329 233 c 0
 329 387 309 442 252 442 c 0
 191 442 172 388 172 222 c 0
EndSplineSet
EndChar

StartChar: divide
Encoding: 247 247 180
Width: 676
Flags: MW
LayerCount: 2
Fore
SplineSet
421 495 m 0
 421 453 386 420 345 420 c 0
 304 420 270 454 270 495 c 0
 270 536 304 570 345 570 c 0
 386 570 421 537 421 495 c 0
614 209 m 1
 62 209 l 1
 62 305 l 1
 614 305 l 1
 614 209 l 1
421 19 m 0
 421 -23 386 -56 345 -56 c 0
 304 -56 270 -22 270 19 c 0
 270 60 304 94 345 94 c 0
 386 94 421 61 421 19 c 0
EndSplineSet
EndChar

StartChar: oslash
Encoding: 248 248 181
Width: 500
Flags: MW
AnchorPoint: "above" 252 470 basechar 0
LayerCount: 2
Fore
SplineSet
461 549 m 1
 388 426 l 1
 449 371 476 311 476 229 c 0
 476 89 380 -14 251 -14 c 0
 211 -14 180 -6 144 13 c 1
 81 -92 l 1
 34 -92 l 1
 110 36 l 1
 50 92 25 150 25 229 c 0
 25 369 122 473 252 473 c 0
 290 473 320 466 355 448 c 1
 415 549 l 1
 461 549 l 1
173 140 m 1
 316 382 l 1
 303 425 285 442 252 442 c 0
 190 442 172 390 172 210 c 0
 172 182 172 160 173 140 c 1
327 324 m 1
 183 80 l 1
 196 35 216 17 251 17 c 0
 309 17 329 70 329 219 c 0
 329 247 328 277 327 324 c 1
EndSplineSet
EndChar

StartChar: thorn
Encoding: 254 254 187
Width: 556
Flags: MW
LayerCount: 2
Fore
SplineSet
214 676 m 1
 214 391 l 1
 243 450 278 473 338 473 c 0
 449 473 524 378 524 239 c 0
 524 91 444 -13 332 -13 c 0
 288 -13 262 0 214 47 c 1
 214 -94 l 2
 214 -161 231 -181 292 -184 c 1
 292 -205 l 1
 19 -205 l 1
 19 -181 l 1
 67 -173 75 -164 75 -123 c 2
 75 594 l 2
 75 634 66 643 20 652 c 1
 20 676 l 1
 214 676 l 1
300 416 m 0
 252 416 214 360 214 346 c 2
 214 103 l 1
 233 62 259 42 293 42 c 0
 348 42 376 103 376 225 c 0
 376 356 352 416 300 416 c 0
EndSplineSet
EndChar

StartChar: Aogonek
Encoding: 260 260 193
Width: 722
Flags: MW
LayerCount: 2
Fore
SplineSet
735 -135.767 m 0
 763 -135.767 783 -120.767 795 -115.767 c 1
 817 -129.767 l 1
 792 -175.767 744 -204.767 694 -204.767 c 0
 633 -204.767 588 -170.767 588 -123.767 c 0
 588 -71.8822 632.8 -34.9311 655.846 -9.01083e-08 c 1
 365 0 l 1
 365 25 l 1
 379 27 392 28 397 28 c 0
 432 30 445 40 445 61 c 0
 445 83 433 119 399 197 c 1
 174 197 l 1
 159 158 l 2
 138.201 103.922 130 79 130 66 c 0
 130 40 153 29 212 25 c 1
 212 0 l 1
 9 0 l 1
 9 25 l 1
 57 34 69 49 107 142 c 2
 329 690 l 1
 357 690 l 1
 580 164 l 2
 630.023 46.0096 646 25 685 25 c 2
 689 25 l 1
 689 12.2334 l 1
 689 0 l 1
 686.132 4.68585e-08 l 1
 681.177 -19.1969 672 -52.2118 672 -71.7666 c 0
 672 -112.767 694 -135.767 735 -135.767 c 0
189 236 m 1
 384 236 l 1
 283 479 l 1
 189 236 l 1
EndSplineSet
EndChar

StartChar: aogonek
Encoding: 261 261 194
Width: 500
Flags: MW
LayerCount: 2
Fore
SplineSet
147 404 m 0
 147 390 177 369 177 339 c 0
 177 305 149 281 109 281 c 0
 68 281 44 306 44 347 c 0
 44 422 120 473 233 473 c 0
 355 473 431 420 431 336 c 2
 431 75 l 2
 431 59 438 50 452 50 c 0
 457 50 460 51 463 54 c 2
 473 64 l 1
 488 43 l 1
 415 -36 354 -1 354 -60 c 0
 354 -84 383 -104 419 -104 c 0
 446 -104 466 -89 478 -84 c 1
 500 -98 l 1
 475 -144 427 -173 377 -173 c 0
 316 -173 271 -139 271 -92 c 0
 271 -64 281 -43 317 5 c 1
 305 17 300 29 294 56 c 1
 239 6 193 -14 136 -14 c 0
 72 -14 25 31 25 92 c 0
 25 205 178 245 294 280 c 1
 294 353 l 2
 294 414 268 441 210 441 c 0
 175 441 147 425 147 404 c 0
293 100 m 1
 293 245 l 1
 213 224 171 182 171 124 c 0
 171 84 192 57 222 57 c 0
 246 57 266 69 293 100 c 1
EndSplineSet
EndChar

StartChar: dcaron
Encoding: 271 271 204
Width: 556
Flags: MW
LayerCount: 2
Fore
SplineSet
339 -13 m 1
 339 52 l 1
 292 2 259 -14 206 -14 c 0
 101 -14 25 85 25 221 c 0
 25 366 107 473 217 473 c 0
 263 473 293 457 336 411 c 1
 336 594 l 2
 336 640 327 647 260 652 c 1
 260 676 l 1
 475 676 l 1
 475 101 l 2
 475 59 488 46 534 43 c 1
 534 20 l 1
 472 12 l 2
 410 5 385 0 339 -13 c 1
251 42 m 0
 302 42 336 102 336 112 c 2
 336 355 l 1
 322 393 291 417 258 417 c 0
 200 417 173 358 173 229 c 0
 173 102 198 42 251 42 c 0
587 548 m 0
 579 548 583 546 567 546 c 0
 526 546 500 574 500 617 c 0
 500 662 530 691 575 691 c 0
 629 691 665 649 665 586 c 0
 665 508 620 449 516 390 c 1
 506 409 l 1
 574 457 604 494 604 529 c 0
 604 539 596 548 587 548 c 0
EndSplineSet
EndChar

StartChar: dcroat
Encoding: 273 273 206
Width: 556
Flags: MW
LayerCount: 2
Fore
SplineSet
336 545 m 1
 244 545 l 1
 244 589 l 1
 336 589 l 1
 336 594 l 2
 336 640 327 647 260 652 c 1
 260 676 l 1
 475 676 l 1
 475 589 l 1
 534 589 l 1
 534 545 l 1
 475 545 l 1
 475 101 l 2
 475 59 488 46 534 43 c 1
 534 20 l 1
 472 12 l 2
 410 5 385 0 339 -13 c 1
 339 52 l 1
 292 2 259 -14 206 -14 c 0
 101 -14 25 85 25 221 c 0
 25 366 107 473 217 473 c 0
 263 473 293 457 336 411 c 1
 336 545 l 1
251 42 m 0
 302 42 336 102 336 112 c 2
 336 355 l 1
 322 393 291 417 258 417 c 0
 200 417 173 358 173 229 c 0
 173 102 198 42 251 42 c 0
EndSplineSet
EndChar

StartChar: Eogonek
Encoding: 280 280 213
Width: 667
Flags: MW
LayerCount: 2
Fore
SplineSet
655 -104 m 0
 683 -104 703 -89 715 -84 c 1
 737 -98 l 1
 712 -144 664 -173 614 -173 c 0
 553 -173 508 -139 508 -92 c 0
 508 -64 517 -45 551 0 c 1
 16 0 l 1
 16 25 l 1
 90 33 104 44 104 96 c 2
 104 580 l 2
 104 631 85 647 16 651 c 1
 16 676 l 1
 593 676 l 1
 593 475 l 1
 568 475 l 1
 543 608 494 642 331 642 c 0
 279 642 266 633 266 595 c 2
 266 363 l 1
 267 363 269 363 270 363 c 0
 375 363 413 400 428 512 c 1
 454 512 l 1
 454 174 l 1
 428 174 l 1
 416 290 375 329 266 329 c 1
 266 87 l 2
 266 44 285 31 349 31 c 0
 507 31 565 105 613 208 c 1
 641 208 l 1
 607 33 l 1
 592 -37 592 -37 592 -47 c 0
 592 -81 617 -104 655 -104 c 0
EndSplineSet
EndChar

StartChar: eogonek
Encoding: 281 281 214
Width: 444
Flags: MW
LayerCount: 2
Fore
SplineSet
362 -104 m 0
 390 -104 410 -89 422 -84 c 1
 444 -98 l 1
 419 -144 371 -173 321 -173 c 0
 260 -173 215 -139 215 -92 c 0
 215 -67 222 -49 248 -13 c 1
 240 -14 233 -14 229 -14 c 0
 107 -14 25 83 25 228 c 0
 25 374 109 473 234 473 c 0
 385 473 414 344 421 245 c 1
 169 245 l 1
 173 171 187 58 288 58 c 0
 331 58 362 76 402 125 c 1
 426 111 l 1
 337 -20 299 18 299 -37 c 0
 299 -81 320 -104 362 -104 c 0
298 297 m 2
 295 383 292 442 234 442 c 0
 185 442 167 402 164 282 c 1
 298 282 l 1
 298 297 l 2
EndSplineSet
EndChar

StartChar: Gcommaaccent
Encoding: 290 290 223
Width: 778
Flags: MW
LayerCount: 2
Fore
SplineSet
385 691 m 0
 494 691 546 642 586 642 c 0
 605 642 616 653 630 688 c 1
 657 688 l 1
 657 454 l 1
 632 454 l 1
 597 530 574 564 531 602 c 0
 487 640 444 658 398 658 c 0
 277 658 214 547 214 338 c 0
 214 218 235 132 279 76 c 0
 312 33 354 14 417 14 c 0
 484 14 513 36 513 87 c 2
 513 192 l 2
 513 246 498 257 412 262 c 1
 412 287 l 1
 755 287 l 1
 755 262 l 1
 680 254 669 242 669 170 c 2
 669 43 l 1
 605 5 496 -19 393 -19 c 0
 183 -19 37 125 37 331 c 0
 37 537 186 691 385 691 c 0
392 -183 m 0
 384 -183 388 -185 372 -185 c 0
 331 -185 305 -157 305 -114 c 0
 305 -69 335 -40 380 -40 c 0
 434 -40 470 -82 470 -145 c 0
 470 -223 425 -282 321 -341 c 1
 311 -322 l 1
 379 -274 409 -237 409 -202 c 0
 409 -192 401 -183 392 -183 c 0
EndSplineSet
EndChar

StartChar: gcommaaccent
Encoding: 291 291 224
Width: 500
Flags: MW
LayerCount: 2
Fore
SplineSet
246 653 m 0
 254 653 250 655 266 655 c 0
 307 655 333 627 333 584 c 0
 333 539 303 510 258 510 c 0
 204 510 168 552 168 615 c 0
 168 693 213 752 317 811 c 1
 327 792 l 1
 259 744 229 707 229 672 c 0
 229 662 237 653 246 653 c 0
161 160 m 1
 73 197 37 248 37 312 c 0
 37 407 121 473 240 473 c 0
 280 473 308 467 352 451 c 1
 482 451 l 1
 482 398 l 1
 401 398 l 1
 429 370 441 340 441 300 c 0
 441 242 406 154 267 154 c 2
 222 155 l 2
 182 155 154 133 154 103 c 0
 154 75 174 68 254 68 c 2
 319 68 l 2
 421 68 483 22 483 -55 c 0
 483 -154 395 -206 229 -206 c 0
 103 -206 28 -172 28 -114 c 0
 28 -73 61 -48 124 -39 c 1
 60 -16 42 2 42 43 c 0
 42 95 82 133 161 160 c 1
324 -52 m 2
 151 -52 l 1
 123 -75 116 -86 116 -107 c 0
 116 -151 162 -174 250 -174 c 0
 349 -174 404 -148 404 -102 c 0
 404 -69 378 -52 324 -52 c 2
240 442 m 0
 193 442 174 405 174 311 c 0
 174 218 192 182 240 182 c 0
 287 182 306 218 306 311 c 0
 306 404 287 442 240 442 c 0
EndSplineSet
EndChar

StartChar: Hbar
Encoding: 294 294 227
Width: 778
Flags: MW
LayerCount: 2
Fore
SplineSet
509 96 m 2
 509 326 l 1
 268 326 l 1
 268 96 l 2
 268 47 285 33 358 25 c 1
 358 0 l 1
 21 0 l 1
 21 25 l 1
 91 34 106 47 106 96 c 2
 106 456 l 1
 30 456 l 1
 30 528 l 1
 106 528 l 1
 106 580 l 2
 106 630 88 645 21 651 c 1
 21 676 l 1
 358 676 l 1
 358 651 l 1
 288 646 268 630 268 580 c 2
 268 528 l 1
 509 528 l 1
 509 580 l 2
 509 630 489 646 419 651 c 1
 419 676 l 1
 759 676 l 1
 759 651 l 1
 691 646 671 630 671 580 c 2
 671 528 l 1
 746 528 l 1
 746 456 l 1
 671 456 l 1
 671 96 l 2
 671 47 687 34 759 25 c 1
 759 0 l 1
 419 0 l 1
 419 25 l 1
 492 33 509 47 509 96 c 2
509 373 m 1
 509 456 l 1
 268 456 l 1
 268 373 l 1
 509 373 l 1
EndSplineSet
EndChar

StartChar: hbar
Encoding: 295 295 228
Width: 556
Flags: MW
LayerCount: 2
Fore
SplineSet
294 406 m 0
 252 406 208 359 208 348 c 2
 208 81 l 2
 208 44 220 29 257 24 c 1
 257 0 l 1
 16 0 l 1
 16 24 l 1
 61 33 69 42 69 84 c 2
 69 505 l 1
 13 505 l 1
 13 577 l 1
 69 577 l 1
 69 594 l 2
 69 635 62 643 16 652 c 1
 16 676 l 1
 208 676 l 1
 208 577 l 1
 343 577 l 1
 343 505 l 1
 208 505 l 1
 208 395 l 1
 260 453 297 473 350 473 c 0
 432 473 485 418 485 332 c 2
 485 84 l 2
 485 42 498 27 534 24 c 1
 534 0 l 1
 299 0 l 1
 299 24 l 1
 333 28 346 44 346 81 c 2
 346 323 l 2
 346 379 329 406 294 406 c 0
EndSplineSet
EndChar

StartChar: Iogonek
Encoding: 302 302 235
Width: 389
Flags: MW
LayerCount: 2
Fore
SplineSet
423 -104 m 0
 451 -104 471 -89 483 -84 c 1
 505 -98 l 1
 480 -144 432 -173 382 -173 c 0
 321 -173 276 -139 276 -92 c 0
 276 -64 285 -46 319 0 c 1
 20 0 l 1
 20 25 l 1
 95 32 113 46 113 96 c 2
 113 580 l 2
 113 631 92 646 20 651 c 1
 20 676 l 1
 370 676 l 1
 370 651 l 1
 296 648 275 632 275 580 c 2
 275 96 l 2
 275 44 294 30 370 25 c 1
 370 0 l 1
 363 -11 360 -23 360 -40 c 0
 360 -81 382 -104 423 -104 c 0
EndSplineSet
EndChar

StartChar: iogonek
Encoding: 303 303 236
Width: 278
Flags: MW
LayerCount: 2
Fore
SplineSet
306 -104 m 0
 334 -104 354 -89 366 -84 c 1
 388 -98 l 1
 363 -144 315 -173 265 -173 c 0
 204 -173 159 -139 159 -92 c 0
 159 -64 168 -46 202 0 c 1
 16 0 l 1
 16 24 l 1
 62 35 69 43 69 84 c 2
 69 378 l 2
 69 419 60 428 16 437 c 1
 16 461 l 1
 208 461 l 1
 208 81 l 2
 208 43 220 29 255 24 c 1
 255 0 l 1
 246 -10 243 -21 243 -39 c 0
 243 -81 265 -104 306 -104 c 0
138 691 m 0
 181 691 215 656 215 613 c 0
 215 569 181 536 137 536 c 0
 93 536 60 569 60 614 c 0
 60 656 95 691 138 691 c 0
EndSplineSet
EndChar

StartChar: dotlessi
Encoding: 305 305 238
Width: 278
Flags: MW
LayerCount: 2
Fore
SplineSet
208 461 m 1
 208 81 l 2
 208 43 220 29 255 24 c 1
 255 0 l 1
 16 0 l 1
 16 24 l 1
 62 35 69 43 69 84 c 2
 69 378 l 2
 69 419 60 428 16 437 c 1
 16 461 l 1
 208 461 l 1
EndSplineSet
EndChar

StartChar: jcircumflex
Encoding: 309 309 242
Width: 333
Flags: HMW
LayerCount: 2
Fore
SplineSet
277 592 m 1
 165 690 l 1
 53 592 l 1
 -3 592 l 1
 119 768 l 1
 211 768 l 1
 335 592 l 1
 277 592 l 1
EndSplineSet
Refer: 2384 567 N 1 0 0 1 0 0 2
EndChar

StartChar: Kcommaaccent
Encoding: 310 310 243
Width: 778
Flags: MW
LayerCount: 2
Fore
SplineSet
532 618 m 0
 532 644 512 647 447 651 c 1
 447 676 l 1
 736 676 l 1
 736 651 l 1
 639 643 603 618 415 424 c 1
 720 46 l 1
 733 31 744 26 769 25 c 1
 769 0 l 1
 433 0 l 1
 433 25 l 1
 447 26 460 26 465 26 c 0
 498 28 512 33 512 46 c 0
 512 57 507 66 488 90 c 2
 306 317 l 1
 279 292 l 1
 279 96 l 2
 279 47 295 34 367 25 c 1
 367 0 l 1
 30 0 l 1
 30 25 l 1
 102 33 117 45 117 96 c 2
 117 580 l 2
 117 632 99 647 30 651 c 1
 30 676 l 1
 368 676 l 1
 368 651 l 1
 294 646 279 630 279 559 c 2
 279 345 l 1
 496 563 l 2
 527 594 532 602 532 618 c 0
393 -183 m 0
 385 -183 389 -185 373 -185 c 0
 332 -185 306 -157 306 -114 c 0
 306 -69 336 -40 381 -40 c 0
 435 -40 471 -82 471 -145 c 0
 471 -223 426 -282 322 -341 c 1
 312 -322 l 1
 380 -274 410 -237 410 -202 c 0
 410 -192 402 -183 393 -183 c 0
EndSplineSet
EndChar

StartChar: kcommaaccent
Encoding: 311 311 244
Width: 556
Flags: MW
LayerCount: 2
Fore
SplineSet
358 411 m 0
 358 433 328 433 299 438 c 1
 299 461 l 1
 513 461 l 1
 513 438 l 1
 450 430 424 412 324 307 c 1
 518 39 l 2
 527 27 532 24 543 24 c 1
 543 0 l 1
 309 0 l 1
 309 24 l 1
 337 25 351 31 351 43 c 0
 351 51 344 63 327 88 c 2
 232 222 l 1
 209 198 l 1
 209 84 l 2
 209 37 214 31 261 24 c 1
 261 0 l 1
 22 0 l 1
 22 24 l 1
 55 27 70 45 70 84 c 2
 70 594 l 2
 70 632 56 649 22 652 c 1
 22 676 l 1
 209 676 l 1
 209 245 l 1
 337 373 l 2
 348 384 358 402 358 411 c 0
282 -183 m 0
 274 -183 278 -185 262 -185 c 0
 221 -185 195 -157 195 -114 c 0
 195 -69 225 -40 270 -40 c 0
 324 -40 360 -82 360 -145 c 0
 360 -223 315 -282 211 -341 c 1
 201 -322 l 1
 269 -274 299 -237 299 -202 c 0
 299 -192 291 -183 282 -183 c 0
EndSplineSet
EndChar

StartChar: kgreenlandic
Encoding: 312 312 245
Width: 534
Flags: MW
LayerCount: 2
Fore
SplineSet
491 414 m 0
 491 385 471 366 444 366 c 0
 402 366 414 396 389 396 c 0
 352 396 351 271 297 243 c 1
 326 242 365 228 383 200 c 0
 485 39 l 2
 493 26 503 24 514 24 c 1
 514 0 l 1
 366 0 l 1
 264 168 l 1
 264 168 235 214 219 214 c 2
 209 214 l 1
 209 84 l 2
 209 37 214 31 261 24 c 1
 261 0 l 1
 22 0 l 1
 22 24 l 1
 55 27 70 45 70 84 c 2
 70 377 l 2
 70 416 55 434 22 437 c 1
 22 461 l 1
 261 461 l 1
 261 437 l 1
 214 430 209 424 209 377 c 2
 209 261 l 1
 230 262 l 2
 246 263 314 324 318 368 c 0
 320 392 344 470 421 470 c 0
 475 470 491 451 491 414 c 0
EndSplineSet
EndChar

StartChar: Lcommaaccent
Encoding: 315 315 248
Width: 667
Flags: MW
LayerCount: 2
Fore
SplineSet
347 31 m 0
 544 31 583 166 609 227 c 1
 638 227 l 1
 597 0 l 1
 19 0 l 1
 19 25 l 1
 92 34 105 45 105 96 c 2
 105 580 l 2
 105 631 87 647 19 651 c 1
 19 676 l 1
 368 676 l 1
 368 651 l 1
 281 647 267 634 267 559 c 2
 267 87 l 2
 267 44 286 31 347 31 c 0
339 -183 m 0
 331 -183 335 -185 319 -185 c 0
 278 -185 252 -157 252 -114 c 0
 252 -69 282 -40 327 -40 c 0
 381 -40 417 -82 417 -145 c 0
 417 -223 372 -282 268 -341 c 1
 258 -322 l 1
 326 -274 356 -237 356 -202 c 0
 356 -192 348 -183 339 -183 c 0
EndSplineSet
EndChar

StartChar: lcommaaccent
Encoding: 316 316 249
Width: 278
Flags: MW
LayerCount: 2
Fore
SplineSet
206 676 m 1
 206 84 l 2
 206 44 222 25 255 24 c 1
 255 0 l 1
 16 0 l 1
 16 24 l 1
 50 27 67 47 67 84 c 2
 67 594 l 2
 67 631 51 649 16 652 c 1
 16 676 l 1
 206 676 l 1
142 -183 m 0
 134 -183 138 -185 122 -185 c 0
 81 -185 55 -157 55 -114 c 0
 55 -69 85 -40 130 -40 c 0
 184 -40 220 -82 220 -145 c 0
 220 -223 175 -282 71 -341 c 1
 61 -322 l 1
 129 -274 159 -237 159 -202 c 0
 159 -192 151 -183 142 -183 c 0
EndSplineSet
EndChar

StartChar: Lcaron
Encoding: 317 317 250
Width: 667
Flags: MW
LayerCount: 2
Fore
SplineSet
347 31 m 0
 544 31 583 166 609 227 c 1
 638 227 l 1
 597 0 l 1
 19 0 l 1
 19 25 l 1
 92 34 105 45 105 96 c 2
 105 580 l 2
 105 631 87 647 19 651 c 1
 19 676 l 1
 368 676 l 1
 368 651 l 1
 281 647 267 634 267 559 c 2
 267 87 l 2
 267 44 286 31 347 31 c 0
519 548 m 0
 511 548 515 546 499 546 c 0
 458 546 432 574 432 617 c 0
 432 662 462 691 507 691 c 0
 561 691 597 649 597 586 c 0
 597 508 552 449 448 390 c 1
 438 409 l 1
 506 457 536 494 536 529 c 0
 536 539 528 548 519 548 c 0
EndSplineSet
EndChar

StartChar: lcaron
Encoding: 318 318 251
Width: 278
Flags: MW
LayerCount: 2
Fore
SplineSet
206 676 m 1
 206 84 l 2
 206 44 222 25 255 24 c 1
 255 0 l 1
 16 0 l 1
 16 24 l 1
 50 27 67 47 67 84 c 2
 67 594 l 2
 67 631 51 649 16 652 c 1
 16 676 l 1
 206 676 l 1
318 548 m 0
 310 548 314 546 298 546 c 0
 257 546 231 574 231 617 c 0
 231 662 261 691 306 691 c 0
 360 691 396 649 396 586 c 0
 396 508 351 449 247 390 c 1
 237 409 l 1
 305 457 335 494 335 529 c 0
 335 539 327 548 318 548 c 0
EndSplineSet
EndChar

StartChar: Lslash
Encoding: 321 321 254
Width: 667
Flags: MW
LayerCount: 2
Fore
SplineSet
347 31 m 0
 544 31 583 166 609 227 c 1
 638 227 l 1
 597 0 l 1
 19 0 l 1
 19 25 l 1
 92 34 105 45 105 96 c 2
 105 286 l 1
 24 237 l 1
 24 298 l 1
 105 347 l 1
 105 580 l 2
 105 631 87 647 19 651 c 1
 19 676 l 1
 368 676 l 1
 368 651 l 1
 281 647 267 634 267 559 c 2
 267 442 l 1
 390 518 l 1
 390 457 l 1
 267 381 l 1
 267 87 l 2
 267 44 286 31 347 31 c 0
EndSplineSet
EndChar

StartChar: lslash
Encoding: 322 322 255
Width: 278
Flags: MW
LayerCount: 2
Fore
SplineSet
206 400 m 1
 206 84 l 2
 206 44 222 25 255 24 c 1
 255 0 l 1
 16 0 l 1
 16 24 l 1
 50 27 67 47 67 84 c 2
 67 311 l 1
 -22 239 l 1
 -22 289 l 1
 67 361 l 1
 67 594 l 2
 67 631 51 649 16 652 c 1
 16 676 l 1
 206 676 l 1
 206 450 l 1
 303 530 l 1
 303 480 l 1
 206 400 l 1
EndSplineSet
EndChar

StartChar: Ncommaaccent
Encoding: 325 325 258
Width: 722
Flags: MW
LayerCount: 2
Fore
SplineSet
230 676 m 1
 579 247 l 1
 579 552 l 2
 579 623 560 644 486 651 c 1
 486 676 l 1
 701 676 l 1
 701 651 l 1
 636 641 623 628 623 571 c 2
 623 -18 l 1
 595 -18 l 1
 148 526 l 1
 148 124 l 2
 148 53 166 34 243 25 c 1
 243 0 l 1
 16 0 l 1
 16 25 l 1
 89 34 104 48 104 105 c 2
 104 579 l 1
 56 636 39 651 19 651 c 1
 19 676 l 1
 230 676 l 1
365 -183 m 0
 357 -183 361 -185 345 -185 c 0
 304 -185 278 -157 278 -114 c 0
 278 -69 308 -40 353 -40 c 0
 407 -40 443 -82 443 -145 c 0
 443 -223 398 -282 294 -341 c 1
 284 -322 l 1
 352 -274 382 -237 382 -202 c 0
 382 -192 374 -183 365 -183 c 0
EndSplineSet
EndChar

StartChar: ncommaaccent
Encoding: 326 326 259
Width: 556
Flags: MW
LayerCount: 2
Fore
SplineSet
299 406 m 0
 257 406 213 359 213 348 c 2
 213 81 l 2
 213 44 225 29 262 24 c 1
 262 0 l 1
 21 0 l 1
 21 24 l 1
 66 33 74 42 74 84 c 2
 74 378 l 2
 74 420 65 430 21 437 c 1
 21 461 l 1
 212 461 l 1
 212 386 l 1
 249 445 295 473 355 473 c 0
 437 473 490 418 490 332 c 2
 490 81 l 2
 490 39 500 27 539 24 c 1
 539 0 l 1
 304 0 l 1
 304 24 l 1
 338 28 351 44 351 81 c 2
 351 323 l 2
 351 379 334 406 299 406 c 0
282 -183 m 0
 274 -183 278 -185 262 -185 c 0
 221 -185 195 -157 195 -114 c 0
 195 -69 225 -40 270 -40 c 0
 324 -40 360 -82 360 -145 c 0
 360 -223 315 -282 211 -341 c 1
 201 -322 l 1
 269 -274 299 -237 299 -202 c 0
 299 -192 291 -183 282 -183 c 0
EndSplineSet
EndChar

StartChar: napostrophe
Encoding: 329 329 262
Width: 704
Flags: MW
LayerCount: 2
Fore
SplineSet
447 406 m 0
 405 406 361 359 361 348 c 2
 361 81 l 2
 361 44 373 29 410 24 c 1
 410 0 l 1
 169 0 l 1
 169 24 l 1
 214 33 222 42 222 84 c 2
 222 378 l 2
 222 420 213 430 169 437 c 1
 169 461 l 1
 360 461 l 1
 360 386 l 1
 397 445 443 473 503 473 c 0
 585 473 638 418 638 332 c 2
 638 81 l 2
 638 39 648 27 687 24 c 1
 687 0 l 1
 452 0 l 1
 452 24 l 1
 486 28 499 44 499 81 c 2
 499 323 l 2
 499 379 482 406 447 406 c 0
65 295 m 1
 54 340 21 474 21 511 c 0
 21 554 47 582 85 582 c 0
 122 582 150 553 150 515 c 0
 150 493 139 439 106 295 c 1
 65 295 l 1
EndSplineSet
EndChar

StartChar: Eng
Encoding: 330 330 263
Width: 722
Flags: MW
LayerCount: 2
Fore
SplineSet
509 -227 m 0
 412 -227 336 -176 336 -95 c 0
 336 -57 369 -23 406 -23 c 0
 445 -23 479 -58 479 -98 c 0
 479 -133 452 -139 452 -162 c 0
 452 -181 470 -194 497 -194 c 0
 542 -194 582 -169 582 -107 c 2
 582 0 l 1
 148 526 l 1
 148 124 l 2
 148 53 166 34 243 25 c 1
 243 0 l 1
 16 0 l 1
 16 25 l 1
 89 34 104 48 104 105 c 2
 104 579 l 1
 56 636 39 651 19 651 c 1
 19 676 l 1
 230 676 l 1
 579 247 l 1
 579 552 l 2
 579 623 560 644 486 651 c 1
 486 676 l 1
 701 676 l 1
 701 651 l 1
 636 641 623 628 623 571 c 2
 623 -8 l 2
 623 -137 618 -227 511 -227 c 0
 510 -227 510 -227 509 -227 c 0
EndSplineSet
EndChar

StartChar: eng
Encoding: 331 331 264
Width: 556
Flags: MW
LayerCount: 2
Fore
SplineSet
294 -96 m 0
 294 -119 271 -141 271 -155 c 0
 271 -165 284 -172 303 -172 c 0
 336 -172 351 -149 351 -96 c 2
 351 323 l 2
 351 379 334 406 299 406 c 0
 257 406 213 359 213 348 c 2
 213 81 l 2
 213 44 225 29 262 24 c 1
 262 0 l 1
 21 0 l 1
 21 24 l 1
 66 33 74 42 74 84 c 2
 74 378 l 2
 74 420 65 430 21 437 c 1
 21 461 l 1
 212 461 l 1
 212 386 l 1
 249 445 295 473 355 473 c 0
 437 473 490 418 490 332 c 2
 490 2 l 2
 490 -108 452 -203 313 -203 c 0
 231 -203 173 -162 173 -103 c 0
 173 -67 198 -42 235 -42 c 0
 267 -42 294 -66 294 -96 c 0
EndSplineSet
EndChar

StartChar: OE
Encoding: 338 338 271
Width: 1000
Flags: MW
LayerCount: 2
Fore
SplineSet
700 35 m 0
 852 35 904 106 954 211 c 1
 981 211 l 1
 939 0 l 1
 509 0 l 2
 408 0 391 -5 358 -5 c 0
 89 -5 22 199 22 334 c 0
 22 542 161 684 364 684 c 0
 377 684 430 681 523 676 c 2
 940 676 l 1
 940 475 l 1
 914 475 l 1
 895 584 868 641 682 641 c 0
 640 641 627 635 627 615 c 2
 627 366 l 1
 734 369 752 387 778 514 c 1
 801 514 l 1
 801 176 l 1
 778 176 l 1
 763 295 733 327 627 333 c 1
 627 83 l 2
 627 44 641 35 700 35 c 0
366 27 m 0
 468 27 472 76 472 212 c 2
 472 503 l 2
 472 618 460 652 377 652 c 0
 255 652 192 540 192 320 c 0
 192 87 262 27 366 27 c 0
EndSplineSet
EndChar

StartChar: oe
Encoding: 339 339 272
Width: 722
Flags: MW
LayerCount: 2
Fore
SplineSet
676 125 m 1
 696 109 l 1
 631 16 582 -14 498 -14 c 0
 446 -14 413 0 383 34 c 1
 343 0 302 -14 245 -14 c 0
 113 -14 22 85 22 229 c 0
 22 371 116 473 248 473 c 0
 302 473 338 459 373 424 c 1
 422 462 452 473 502 473 c 0
 666 473 687 340 693 245 c 1
 444 245 l 1
 444 225 l 2
 444 222 444 220 444 217 c 0
 444 113 483 58 558 58 c 0
 604 58 631 73 676 125 c 1
444 282 m 1
 571 282 l 1
 570 307 569 328 569 338 c 0
 566 413 549 444 509 444 c 0
 467 444 444 407 444 336 c 2
 444 282 l 1
308 149 m 2
 308 311 l 2
 308 407 289 444 239 444 c 0
 184 444 167 398 167 248 c 0
 167 74 186 16 242 16 c 0
 288 16 308 57 308 149 c 2
EndSplineSet
EndChar

StartChar: Rcommaaccent
Encoding: 342 342 275
Width: 722
Flags: MW
LayerCount: 2
Fore
SplineSet
630 498 m 0
 630 389 550 354 473 329 c 1
 674 44 l 1
 684 31 697 25 715 25 c 1
 715 0 l 1
 510 0 l 1
 303 313 l 1
 276 313 l 1
 276 117 l 2
 276 46 286 35 364 25 c 1
 364 0 l 1
 26 0 l 1
 26 25 l 1
 104 34 114 44 114 117 c 2
 114 559 l 2
 114 631 100 646 26 651 c 1
 26 676 l 1
 348 676 l 2
 531 676 630 613 630 498 c 0
330 642 m 0
 299 642 276 635 276 600 c 2
 276 345 l 1
 414 347 459 372 459 494 c 0
 459 599 422 642 330 642 c 0
365 -183 m 0
 357 -183 361 -185 345 -185 c 0
 304 -185 278 -157 278 -114 c 0
 278 -69 308 -40 353 -40 c 0
 407 -40 443 -82 443 -145 c 0
 443 -223 398 -282 294 -341 c 1
 284 -322 l 1
 352 -274 382 -237 382 -202 c 0
 382 -192 374 -183 365 -183 c 0
EndSplineSet
EndChar

StartChar: rcommaaccent
Encoding: 343 343 276
Width: 444
Flags: MW
LayerCount: 2
Fore
SplineSet
371 328 m 0
 318 328 304 387 283 387 c 0
 250 387 222 344 222 292 c 2
 222 103 l 2
 222 41 234 28 295 24 c 1
 295 0 l 1
 29 0 l 1
 29 24 l 1
 73 32 83 43 83 84 c 2
 83 378 l 2
 83 418 72 431 29 437 c 1
 29 461 l 1
 218 461 l 1
 218 379 l 1
 265 446 303 473 353 473 c 0
 400 473 434 440 434 395 c 0
 434 356 408 328 371 328 c 0
166 -183 m 0
 158 -183 162 -185 146 -185 c 0
 105 -185 79 -157 79 -114 c 0
 79 -69 109 -40 154 -40 c 0
 208 -40 244 -82 244 -145 c 0
 244 -223 199 -282 95 -341 c 1
 85 -322 l 1
 153 -274 183 -237 183 -202 c 0
 183 -192 175 -183 166 -183 c 0
EndSplineSet
EndChar

StartChar: Scedilla
Encoding: 350 350 283
Width: 556
Flags: MW
LayerCount: 2
Fore
SplineSet
263 691 m 0
 346 691 394 658 422 658 c 0
 439 658 447 666 454 692 c 1
 484 692 l 1
 484 475 l 1
 456 475 l 1
 415 609 339 660 263 660 c 0
 195 660 153 622 153 560 c 0
 153 512 175 487 256 447 c 2
 403 374 l 2
 467 342 513 267 513 192 c 0
 513 78 430 -10 284 -18 c 1
 265 -64 l 1
 277 -60 285 -59 298 -59 c 0
 353 -59 386 -85 386 -129 c 0
 386 -184 336 -218 256 -218 c 0
 223 -218 196 -213 160 -200 c 1
 176 -163 l 1
 185 -167 213 -177 235 -177 c 0
 272 -177 293 -162 293 -136 c 0
 293 -114 276 -100 247 -100 c 0
 237 -100 230 -101 219 -104 c 1
 208 -96 l 1
 242 -18 l 1
 164 -14 123 15 94 15 c 0
 78 15 70 6 64 -19 c 1
 35 -19 l 1
 35 228 l 1
 64 228 l 1
 77 174 115 14 268 14 c 0
 345 14 394 59 394 128 c 0
 394 180 370 206 282 248 c 2
 215 280 l 2
 96 337 44 400 44 488 c 0
 44 614 127 691 263 691 c 0
EndSplineSet
EndChar

StartChar: scedilla
Encoding: 351 351 284
Width: 389
Flags: MW
LayerCount: 2
Fore
SplineSet
127 382 m 0
 127 281 361 304 361 138 c 0
 361 50 303 -9 213 -14 c 1
 191 -64 l 1
 203 -60 211 -59 224 -59 c 0
 279 -59 312 -85 312 -129 c 0
 312 -184 262 -218 182 -218 c 0
 149 -218 122 -213 86 -200 c 1
 102 -163 l 1
 122 -170 136 -177 162 -177 c 0
 198 -177 219 -162 219 -136 c 0
 219 -114 202 -100 173 -100 c 0
 164 -100 156 -101 145 -104 c 1
 134 -96 l 1
 172 -11 l 1
 85 7 96 15 76 15 c 0
 67 15 61 8 50 -13 c 1
 25 -13 l 1
 25 152 l 1
 53 152 l 1
 74 65 120 20 190 20 c 0
 235 20 265 46 265 85 c 0
 265 179 27 172 27 327 c 0
 27 411 93 473 184 473 c 0
 234 473 271 451 294 451 c 0
 306 451 312 456 318 471 c 1
 340 471 l 1
 340 326 l 1
 315 326 l 1
 287 407 243 440 193 440 c 0
 155 440 127 415 127 382 c 0
EndSplineSet
EndChar

StartChar: uni0162
Encoding: 354 354 287
Width: 667
Flags: MW
LayerCount: 2
Fore
SplineSet
234 -163 m 1
 270 -175 280 -177 294 -177 c 0
 330 -177 352 -162 352 -136 c 0
 352 -114 334 -100 306 -100 c 0
 296 -100 288 -101 278 -104 c 1
 266 -96 l 1
 310 0 l 1
 155 0 l 1
 155 25 l 1
 241 32 252 43 252 117 c 2
 252 644 l 1
 128 640 76 594 59 475 c 1
 30 475 l 1
 33 676 l 1
 633 676 l 1
 635 475 l 1
 606 475 l 1
 589 594 537 640 414 644 c 1
 414 117 l 2
 414 41 425 31 512 25 c 1
 512 0 l 1
 352 0 l 1
 324 -64 l 1
 336 -60 344 -59 356 -59 c 0
 412 -59 444 -85 444 -129 c 0
 444 -184 394 -218 314 -218 c 0
 282 -218 254 -213 218 -200 c 1
 234 -163 l 1
EndSplineSet
EndChar

StartChar: uni0163
Encoding: 355 355 288
Width: 333
Flags: MW
LayerCount: 2
Fore
SplineSet
88 -175 m 1
 101 -179 125 -189 148 -189 c 0
 184 -189 205 -174 205 -148 c 0
 205 -126 188 -112 159 -112 c 0
 150 -112 142 -113 131 -116 c 1
 120 -108 l 1
 164 -11 l 1
 107 -4 72 35 72 93 c 2
 72 417 l 1
 20 417 l 1
 20 444 l 1
 85 499 125 544 186 630 c 1
 211 630 l 1
 211 461 l 1
 305 461 l 1
 305 417 l 1
 211 417 l 1
 211 116 l 2
 211 76 222 59 250 59 c 0
 271 59 287 73 307 111 c 1
 332 100 l 1
 296 27 260 -5 206 -11 c 1
 177 -76 l 1
 189 -72 197 -71 210 -71 c 0
 265 -71 298 -97 298 -141 c 0
 298 -196 248 -230 168 -230 c 0
 135 -230 108 -225 72 -212 c 1
 88 -175 l 1
EndSplineSet
EndChar

StartChar: tcaron
Encoding: 357 357 290
Width: 333
Flags: MW
LayerCount: 2
Fore
SplineSet
322 548 m 0
 314 548 318 546 302 546 c 0
 261 546 235 574 235 617 c 0
 235 662 265 691 310 691 c 0
 364 691 400 649 400 586 c 0
 400 508 356 449 251 390 c 1
 241 409 l 1
 252 417 l 1
 211 417 l 1
 211 116 l 2
 211 76 222 59 250 59 c 0
 271 59 287 73 307 111 c 1
 332 100 l 1
 291 18 251 -12 184 -12 c 0
 115 -12 72 28 72 93 c 2
 72 417 l 1
 20 417 l 1
 20 444 l 1
 85 499 125 544 186 630 c 1
 211 630 l 1
 211 461 l 1
 304 461 l 1
 328 487 339 508 339 529 c 0
 339 539 331 548 322 548 c 0
EndSplineSet
EndChar

StartChar: Tbar
Encoding: 358 358 291
Width: 667
Flags: MW
LayerCount: 2
Fore
SplineSet
156 25 m 1
 158 25 l 2
 244 32 255 43 255 117 c 2
 255 326 l 1
 170 326 l 1
 170 398 l 1
 254 398 l 1
 254 644 l 1
 130 640 78 594 61 475 c 1
 32 475 l 1
 35 676 l 1
 635 676 l 1
 637 475 l 1
 608 475 l 1
 591 594 539 640 416 644 c 1
 416 398 l 1
 499 398 l 1
 499 326 l 1
 415 326 l 1
 415 117 l 2
 415 41 426 31 513 25 c 1
 513 0 l 1
 156 0 l 1
 156 25 l 1
EndSplineSet
EndChar

StartChar: tbar
Encoding: 359 359 292
Width: 333
Flags: MW
LayerCount: 2
Fore
SplineSet
211 461 m 1
 305 461 l 1
 305 417 l 1
 211 417 l 1
 211 305 l 1
 274 305 l 1
 274 233 l 1
 211 233 l 1
 211 116 l 2
 211 76 222 59 250 59 c 0
 271 59 287 73 307 111 c 1
 332 100 l 1
 291 18 251 -12 184 -12 c 0
 115 -12 72 28 72 93 c 2
 72 233 l 1
 13 233 l 1
 13 305 l 1
 72 305 l 1
 72 417 l 1
 20 417 l 1
 20 444 l 1
 85 499 125 544 186 630 c 1
 211 630 l 1
 211 461 l 1
EndSplineSet
EndChar

StartChar: Uogonek
Encoding: 370 370 303
Width: 722
Flags: MW
LayerCount: 2
Fore
SplineSet
612 -104 m 0
 639 -104 654 -91 672 -84 c 1
 694 -98 l 1
 669 -144 621 -173 571 -173 c 0
 509 -173 464 -139 464 -92 c 0
 464 -61 477 -37 522 19 c 1
 475 -7 424 -19 366 -19 c 0
 292 -19 228 -1 180 34 c 0
 119 78 98 127 98 225 c 2
 98 559 l 2
 98 631 86 644 16 651 c 1
 16 676 l 1
 354 676 l 1
 354 651 l 1
 277 648 257 638 257 559 c 2
 257 225 l 2
 257 89 302 30 404 30 c 0
 523 30 579 99 579 247 c 2
 579 552 l 2
 579 625 559 645 481 651 c 1
 481 676 l 1
 701 676 l 1
 701 651 l 1
 637 641 623 625 623 566 c 2
 623 247 l 2
 623 84 548 57 548 -29 c 0
 548 -81 568 -104 612 -104 c 0
EndSplineSet
EndChar

StartChar: uogonek
Encoding: 371 371 304
Width: 556
Flags: MW
LayerCount: 2
Fore
SplineSet
474 -104 m 0
 502 -104 522 -89 534 -84 c 1
 556 -98 l 1
 531 -144 483 -173 433 -173 c 0
 372 -173 327 -139 327 -93 c 0
 327 -74 332 -58 343 -39 c 1
 343 52 l 1
 285 2 250 -14 198 -14 c 0
 115 -14 65 38 65 126 c 2
 65 378 l 2
 65 420 57 429 16 437 c 1
 16 461 l 1
 204 461 l 1
 204 122 l 2
 204 71 219 51 260 51 c 0
 288 51 309 62 342 95 c 1
 342 378 l 2
 342 421 330 433 280 437 c 1
 280 461 l 1
 481 461 l 1
 481 101 l 2
 481 58 493 45 537 43 c 1
 537 20 l 1
 475 13 l 2
 434 9 411 -12 411 -44 c 0
 411 -82 434 -104 474 -104 c 0
EndSplineSet
EndChar

StartChar: longs
Encoding: 383 383 316
Width: 333
Flags: MW
LayerCount: 2
Fore
SplineSet
267 584 m 0
 267 607 289 629 289 641 c 0
 289 653 278 660 260 660 c 0
 225 660 210 638 210 583 c 2
 210 103 l 2
 210 38 222 26 292 24 c 1
 292 0 l 1
 14 0 l 1
 14 24 l 1
 60 29 71 41 71 84 c 2
 71 417 l 1
 14 417 l 1
 14 461 l 1
 71 461 l 1
 71 595 93 691 246 691 c 0
 330 691 389 650 389 591 c 0
 389 554 364 529 327 529 c 0
 293 529 267 553 267 584 c 0
EndSplineSet
EndChar

StartChar: uni01C2
Encoding: 450 450 317
Width: 570
Flags: MW
LayerCount: 2
Fore
SplineSet
537 107 m 1
 328 107 l 1
 328 -102 l 1
 240 -102 l 1
 240 107 l 1
 33 107 l 1
 33 195 l 1
 240 195 l 1
 240 311 l 1
 33 311 l 1
 33 399 l 1
 240 399 l 1
 240 608 l 1
 328 608 l 1
 328 399 l 1
 537 399 l 1
 537 311 l 1
 328 311 l 1
 328 195 l 1
 537 195 l 1
 537 107 l 1
EndSplineSet
EndChar

StartChar: uni01E4
Encoding: 484 484 339
Width: 778
Flags: MW
LayerCount: 2
Fore
SplineSet
755 262 m 1
 688 256 669 243 669 174 c 0
 669 168 l 1
 754 168 l 1
 754 121 l 1
 669 121 l 1
 669 43 l 1
 611 3 469 -19 399 -19 c 0
 188 -19 37 118 37 332 c 0
 37 538 184 691 391 691 c 0
 468 691 547 642 584 642 c 0
 610 642 623 666 630 688 c 1
 657 688 l 1
 657 454 l 1
 632 454 l 1
 594 547 510 658 399 658 c 0
 234 658 214 458 214 334 c 0
 214 205 243 14 409 14 c 0
 504 14 513 39 513 121 c 1
 412 121 l 1
 412 168 l 1
 513 168 l 1
 513 192 l 2
 513 261 468 260 412 262 c 1
 412 287 l 1
 755 287 l 1
 755 262 l 1
EndSplineSet
EndChar

StartChar: uni01E5
Encoding: 485 485 340
Width: 500
Flags: MW
LayerCount: 2
Fore
SplineSet
501 -136 m 1
 456 -136 l 1
 407 -198 299 -206 226 -206 c 0
 172 -206 55 -198 32 -136 c 1
 16 -136 l 1
 16 -89 l 1
 34 -89 l 1
 49 -56 87 -43 120 -40 c 1
 120 -38 l 1
 77 -23 42 -7 42 45 c 0
 42 105 108 145 159 159 c 1
 159 161 l 1
 91 186 37 238 37 314 c 0
 37 425 146 473 242 473 c 0
 280 473 317 465 352 451 c 1
 482 451 l 1
 482 398 l 1
 401 398 l 1
 428 371 441 337 441 299 c 0
 441 229 400 185 336 163 c 0
 291 148 154 176 154 104 c 0
 154 14 483 146 483 -55 c 0
 483 -66 482 -78 479 -89 c 1
 501 -89 l 1
 501 -136 l 1
306 311 m 0
 306 358 305 442 240 442 c 0
 174 442 174 358 174 311 c 0
 174 307 l 0
 174 258 175 182 240 182 c 0
 306 182 306 264 306 311 c 0
402 -89 m 1
 394 -56 352 -52 324 -52 c 2
 151 -52 l 1
 138 -62 124 -73 119 -89 c 1
 402 -89 l 1
392 -136 m 1
 125 -136 l 1
 147 -168 202 -174 238 -174 c 0
 283 -174 361 -172 392 -136 c 1
EndSplineSet
EndChar

StartChar: uni01EA
Encoding: 490 490 345
Width: 778
Flags: M
LayerCount: 2
Fore
SplineSet
460 -133 m 0
 488 -133 508 -118 520 -113 c 1
 542 -127 l 1
 517 -173 469 -202 419 -202 c 0
 358 -202 313 -168 313 -121 c 0
 313 -79.3966 341.805 -47.3947 365.102 -18.3368 c 1
 170.777 -7.46336 35 136.059 35 335 c 0
 35 543 184 691 393 691 c 0
 594 691 743 540 743 336 c 0
 743 134.578 603.815 -10.9813 405.601 -18.6794 c 1
 401.299 -35.9278 397 -55.6164 397 -69 c 0
 397 -110 419 -133 460 -133 c 0
392 658 m 0
 275 658 212 542 212 326 c 0
 212 124 274 14 389 14 c 0
 504 14 566 124 566 329 c 0
 566 537 502 658 392 658 c 0
EndSplineSet
EndChar

StartChar: uni01EB
Encoding: 491 491 346
Width: 500
Flags: M
LayerCount: 2
Fore
SplineSet
323 -132 m 0
 351 -132 371 -117 383 -112 c 1
 405 -126 l 1
 380 -172 332 -201 282 -201 c 0
 221 -201 176 -167 176 -120 c 0
 176 -76.4206 207.606 -43.3764 231.38 -13.2156 c 1
 110.621 -3.46411 25 96.2425 25 232 c 0
 25 368 124 473 251 473 c 0
 380 473 476 369 476 229 c 0
 476 96.8101 389.176 -3.72529 269.716 -13.2592 c 1
 265.076 -31.4707 260 -53.4575 260 -68 c 0
 260 -109 282 -132 323 -132 c 0
252 442 m 0
 190 442 172 390 172 214 c 0
 172 68 192 17 251 17 c 0
 309 17 329 69 329 223 c 0
 329 387 310 442 252 442 c 0
EndSplineSet
EndChar

StartChar: Scommaaccent
Encoding: 536 536 385
Width: 556
Flags: MW
LayerCount: 2
Fore
SplineSet
263 691 m 0
 346 691 394 658 422 658 c 0
 439 658 447 666 454 692 c 1
 484 692 l 1
 484 475 l 1
 456 475 l 1
 415 609 339 660 263 660 c 0
 195 660 153 622 153 560 c 0
 153 512 175 487 256 447 c 2
 403 374 l 2
 467 342 513 267 513 192 c 0
 513 66 413 -19 265 -19 c 0
 172 -19 128 15 94 15 c 0
 78 15 70 6 64 -19 c 1
 35 -19 l 1
 35 228 l 1
 64 228 l 1
 77 174 115 14 268 14 c 0
 345 14 394 59 394 128 c 0
 394 180 370 206 282 248 c 2
 215 280 l 2
 96 337 44 400 44 488 c 0
 44 614 127 691 263 691 c 0
282 -183 m 0
 274 -183 278 -185 262 -185 c 0
 221 -185 195 -157 195 -114 c 0
 195 -69 225 -40 270 -40 c 0
 324 -40 360 -82 360 -145 c 0
 360 -223 315 -282 211 -341 c 1
 201 -322 l 1
 269 -274 299 -237 299 -202 c 0
 299 -192 291 -183 282 -183 c 0
EndSplineSet
EndChar

StartChar: scommaaccent
Encoding: 537 537 386
Width: 389
Flags: MW
LayerCount: 2
Fore
SplineSet
184 473 m 0
 234 473 271 451 294 451 c 0
 306 451 312 456 318 471 c 1
 340 471 l 1
 340 326 l 1
 315 326 l 1
 287 407 243 440 193 440 c 0
 155 440 127 415 127 382 c 0
 127 281 361 304 361 138 c 0
 361 48 298 -14 207 -14 c 0
 136 -14 100 15 76 15 c 0
 67 15 61 8 50 -13 c 1
 25 -13 l 1
 25 152 l 1
 53 152 l 1
 74 65 120 20 190 20 c 0
 235 20 265 46 265 85 c 0
 265 179 27 172 27 327 c 0
 27 411 93 473 184 473 c 0
199 -183 m 0
 191 -183 195 -185 179 -185 c 0
 138 -185 112 -157 112 -114 c 0
 112 -69 142 -40 187 -40 c 0
 241 -40 277 -82 277 -145 c 0
 277 -223 232 -282 128 -341 c 1
 118 -322 l 1
 186 -274 216 -237 216 -202 c 0
 216 -192 208 -183 199 -183 c 0
EndSplineSet
EndChar

StartChar: uni021A
Encoding: 538 538 387
Width: 667
Flags: MW
LayerCount: 2
Fore
SplineSet
253 117 m 2
 253 644 l 1
 129 640 77 594 60 475 c 1
 31 475 l 1
 34 676 l 1
 634 676 l 1
 636 475 l 1
 607 475 l 1
 590 594 538 640 415 644 c 1
 415 117 l 2
 415 41 426 31 513 25 c 1
 513 0 l 1
 156 0 l 1
 156 25 l 1
 242 32 253 43 253 117 c 2
338 -183 m 0
 330 -183 334 -185 318 -185 c 0
 277 -185 251 -157 251 -114 c 0
 251 -69 281 -40 326 -40 c 0
 380 -40 416 -82 416 -145 c 0
 416 -223 371 -282 267 -341 c 1
 257 -322 l 1
 325 -274 355 -237 355 -202 c 0
 355 -192 347 -183 338 -183 c 0
EndSplineSet
EndChar

StartChar: uni021B
Encoding: 539 539 388
Width: 333
Flags: MW
LayerCount: 2
Fore
SplineSet
305 461 m 1
 305 417 l 1
 211 417 l 1
 211 116 l 2
 211 76 222 59 250 59 c 0
 271 59 287 73 307 111 c 1
 332 100 l 1
 291 18 251 -12 184 -12 c 0
 115 -12 72 28 72 93 c 2
 72 417 l 1
 20 417 l 1
 20 444 l 1
 85 499 125 544 186 630 c 1
 211 630 l 1
 211 461 l 1
 305 461 l 1
171 -183 m 0
 163 -183 167 -185 151 -185 c 0
 110 -185 84 -157 84 -114 c 0
 84 -69 114 -40 159 -40 c 0
 213 -40 249 -82 249 -145 c 0
 249 -223 204 -282 100 -341 c 1
 90 -322 l 1
 158 -274 188 -237 188 -202 c 0
 188 -192 180 -183 171 -183 c 0
EndSplineSet
EndChar

StartChar: uni0228
Encoding: 552 552 393
Width: 667
Flags: M
LayerCount: 2
Fore
SplineSet
232 -161 m 1
 252 -168 266 -175 292 -175 c 0
 328 -175 349 -160 349 -134 c 0
 349 -112 332 -98 303 -98 c 0
 294 -98 286 -99 275 -102 c 1
 264 -94 l 1
 306.104 -1.77636e-15 l 1
 16 0 l 1
 16 25 l 1
 90 33 104 44 104 96 c 2
 104 580 l 2
 104 631 85 647 16 651 c 1
 16 676 l 1
 593 676 l 1
 593 475 l 1
 568 475 l 1
 543 608 494 642 331 642 c 0
 279 642 266 633 266 595 c 2
 266 363 l 1
 267 363 269 363 270 363 c 0
 375 363 413 400 428 512 c 1
 454 512 l 1
 454 174 l 1
 428 174 l 1
 416 290 375 329 266 329 c 1
 266 87 l 2
 266 44 285 31 349 31 c 0
 507 31 565 105 613 208 c 1
 641 208 l 1
 601 0 l 1
 348.125 0 l 1
 321 -62 l 1
 333 -58 341 -57 354 -57 c 0
 409 -57 442 -83 442 -127 c 0
 442 -182 392 -216 312 -216 c 0
 279 -216 252 -211 216 -198 c 1
 232 -161 l 1
EndSplineSet
EndChar

StartChar: uni0229
Encoding: 553 553 394
Width: 444
Flags: M
LayerCount: 2
Fore
SplineSet
132 -172 m 1
 152 -179 166 -186 192 -186 c 0
 228 -186 249 -171 249 -145 c 0
 249 -123 232 -109 203 -109 c 0
 194 -109 186 -110 175 -113 c 1
 164 -105 l 1
 205.395 -12.5825 l 1
 95.8374 -0.204821 25 92.3008 25 228 c 0
 25 374 109 473 234 473 c 0
 385 473 414 344 421 245 c 1
 169 245 l 1
 173 171 187 58 288 58 c 0
 331 58 362 76 402 125 c 1
 426 111 l 1
 365.396 24.289 318.7 -9.3931 247.008 -13.552 c 1
 221 -73 l 1
 233 -69 241 -68 254 -68 c 0
 309 -68 342 -94 342 -138 c 0
 342 -193 292 -227 212 -227 c 0
 179 -227 152 -222 116 -209 c 1
 132 -172 l 1
298 297 m 2
 295 383 292 442 234 442 c 0
 185 442 167 402 164 282 c 1
 298 282 l 1
 298 297 l 2
EndSplineSet
EndChar

StartChar: uni0292
Encoding: 658 658 405
Width: 508
Flags: MW
LayerCount: 2
Fore
SplineSet
450 432 m 1
 266 256 l 1
 281 259 296 261 312 261 c 0
 428 261 486 154 486 50 c 0
 486 -104 379 -217 223 -217 c 0
 166 -217 30 -202 30 -122 c 0
 30 -84 61 -53 99 -53 c 0
 137 -53 168 -84 168 -122 c 0
 168 -138 162 -154 152 -166 c 1
 165 -181 186 -186 205 -186 c 0
 322 -186 370 -99 370 8 c 0
 370 106 322 172 219 172 c 0
 195 172 171 163 148 158 c 1
 132 180 l 1
 281 323 l 1
 137 323 l 2
 89 323 81 301 62 260 c 1
 37 260 l 1
 108 462 l 1
 450 462 l 1
 450 432 l 1
EndSplineSet
EndChar

StartChar: circumflex
Encoding: 710 710 406
Width: 333
Flags: MW
LayerCount: 2
Fore
SplineSet
278 528 m 1
 166 626 l 1
 54 528 l 1
 -2 528 l 1
 120 704 l 1
 212 704 l 1
 335 528 l 1
 278 528 l 1
EndSplineSet
EndChar

StartChar: caron
Encoding: 711 711 407
Width: 333
Flags: MW
LayerCount: 2
Fore
SplineSet
335 704 m 1
 212 528 l 1
 120 528 l 1
 -2 704 l 1
 54 704 l 1
 166 605 l 1
 278 704 l 1
 335 704 l 1
EndSplineSet
EndChar

StartChar: breve
Encoding: 728 728 408
Width: 333
Flags: MW
LayerCount: 2
Fore
SplineSet
318 691 m 1
 310 623 289 528 166 528 c 0
 38 528 19 626 15 691 c 1
 59 691 l 1
 70 630 102 604 166 604 c 0
 228 604 257 628 274 691 c 1
 318 691 l 1
EndSplineSet
EndChar

StartChar: dotaccent
Encoding: 729 729 409
Width: 333
Flags: MW
LayerCount: 2
Fore
SplineSet
166 666 m 0
 202 666 232 636 232 600 c 0
 232 565 203 537 166 537 c 0
 131 537 103 566 103 603 c 0
 103 636 133 666 166 666 c 0
EndSplineSet
EndChar

StartChar: ring
Encoding: 730 730 410
Width: 333
Flags: MW
LayerCount: 2
Fore
SplineSet
167 750 m 0
 225 750 273 701 273 643 c 0
 273 584 225 537 166 537 c 0
 107 537 60 585 60 645 c 0
 60 701 109 750 167 750 c 0
166 702 m 0
 135 702 108 674 108 643 c 0
 108 611 134 585 165 585 c 0
 198 585 225 611 225 642 c 0
 225 674 198 702 166 702 c 0
EndSplineSet
EndChar

StartChar: ogonek
Encoding: 731 731 411
Width: 333
Flags: MW
LayerCount: 2
Fore
SplineSet
237 -104 m 0
 265 -104 285 -89 297 -84 c 1
 319 -98 l 1
 294 -144 246 -173 196 -173 c 0
 135 -173 90 -139 90 -92 c 0
 90 -40 135 -3 158 32 c 1
 191 44 l 1
 189 32 174 -15 174 -40 c 0
 174 -81 196 -104 237 -104 c 0
EndSplineSet
EndChar

StartChar: tilde
Encoding: 732 732 412
Width: 333
Flags: MW
LayerCount: 2
Fore
SplineSet
26 549 m 1
 -16 549 l 1
 2 635 38 674 100 674 c 0
 121 674 145 668 173 655 c 2
 213 637 l 2
 237 626 241 625 252 625 c 0
 279 625 293 638 306 674 c 1
 349 674 l 1
 326 587 289 547 232 547 c 0
 212 547 187 553 168 561 c 2
 139 574 l 2
 96 593 88 596 75 596 c 0
 49 596 30 577 26 549 c 1
EndSplineSet
EndChar

StartChar: hungarumlaut
Encoding: 733 733 413
Width: 333
Flags: MW
LayerCount: 2
Fore
SplineSet
-13 528 m 1
 124 685 l 2
 141 704 158 713 177 713 c 0
 206 713 225 695 225 669 c 0
 225 646 217 636 185 616 c 2
 43 528 l 1
 -13 528 l 1
187 528 m 1
 324 685 l 2
 341 704 358 713 377 713 c 0
 406 713 425 695 425 669 c 0
 425 646 417 636 385 616 c 2
 243 528 l 1
 187 528 l 1
EndSplineSet
EndChar

StartChar: gravecomb
Encoding: 768 768 414
Width: 0
Flags: MW
AnchorPoint: "above" -167 470 mark 0
LayerCount: 2
Fore
SplineSet
-87 528 m 1
 -143 528 l 1
 -285 616 l 2
 -310 631 -325 646 -325 669 c 0
 -325 683 -314 713 -276 713 c 0
 -255 713 -235 698 -224 685 c 2
 -87 528 l 1
EndSplineSet
EndChar

StartChar: acutecomb
Encoding: 769 769 415
Width: 0
Flags: MW
AnchorPoint: "above" -167 470 mark 0
LayerCount: 2
Fore
SplineSet
-49 616 m 2
 -191 528 l 1
 -247 528 l 1
 -110 685 l 2
 -87 711 -68 713 -58 713 c 0
 -40 713 -9 705 -9 669 c 0
 -9 641 -25 631 -49 616 c 2
EndSplineSet
EndChar

StartChar: uni0302
Encoding: 770 770 416
Width: 0
Flags: MW
AnchorPoint: "above" -167 470 mark 0
LayerCount: 2
Fore
SplineSet
-55 528 m 1
 -167 626 l 1
 -279 528 l 1
 -335 528 l 1
 -213 704 l 1
 -121 704 l 1
 2 528 l 1
 -55 528 l 1
EndSplineSet
EndChar

StartChar: tildecomb
Encoding: 771 771 417
Width: 0
Flags: MW
AnchorPoint: "above" -167 470 mark 0
LayerCount: 2
Fore
SplineSet
-307 549 m 1
 -349 549 l 1
 -342 584 -323 674 -231 674 c 0
 -202 674 -170 659 -160 655 c 2
 -120 637 l 2
 -93 625 -93 625 -80 625 c 0
 -43 625 -33 657 -27 674 c 1
 16 674 l 1
 7 639 -16 547 -105 547 c 0
 -123 547 -149 554 -165 561 c 2
 -194 574 l 2
 -244 596 -244 596 -258 596 c 0
 -290 596 -306 567 -307 549 c 1
EndSplineSet
EndChar

StartChar: uni0304
Encoding: 772 772 418
Width: 0
Flags: MW
AnchorPoint: "above" -167 470 mark 0
LayerCount: 2
Fore
SplineSet
-2 637 m 1
 -2 565 l 1
 -332 565 l 1
 -332 637 l 1
 -2 637 l 1
EndSplineSet
EndChar

StartChar: uni0305
Encoding: 773 773 419
Width: 0
Flags: MW
LayerCount: 2
Fore
SplineSet
-1 637 m 1
 -1 565 l 1
 -499 565 l 1
 -499 637 l 1
 -1 637 l 1
EndSplineSet
EndChar

StartChar: uni0306
Encoding: 774 774 420
Width: 0
Flags: MW
AnchorPoint: "above" -167 470 mark 0
LayerCount: 2
Fore
SplineSet
-59 691 m 1
 -15 691 l 1
 -22 591 -70 528 -167 528 c 0
 -260 528 -317 585 -318 691 c 1
 -274 691 l 1
 -269 663 -257 604 -166 604 c 0
 -82 604 -67 660 -59 691 c 1
EndSplineSet
EndChar

StartChar: uni0307
Encoding: 775 775 421
Width: 0
Flags: MW
AnchorPoint: "above" -167 470 mark 0
LayerCount: 2
Fore
SplineSet
-230 602 m 0
 -230 627 -210 667 -168 667 c 0
 -133 667 -103 637 -103 601 c 0
 -103 566 -131 537 -168 537 c 0
 -211 537 -230 577 -230 602 c 0
EndSplineSet
EndChar

StartChar: diaeresiscomb
Encoding: 776 776 422
Width: 0
Flags: MW
AnchorPoint: "above" -167 470 mark 0
LayerCount: 2
Fore
SplineSet
-335 602 m 0
 -335 627 -314 667 -272 667 c 0
 -237 667 -208 637 -208 601 c 0
 -208 566 -235 537 -272 537 c 0
 -315 537 -335 577 -335 602 c 0
-125 602 m 0
 -125 627 -105 667 -63 667 c 0
 -28 667 2 637 2 601 c 0
 2 566 -26 537 -63 537 c 0
 -106 537 -125 577 -125 602 c 0
EndSplineSet
EndChar

StartChar: hookabovecomb
Encoding: 777 777 423
Width: 0
Flags: MW
AnchorPoint: "above" -167 470 mark 0
LayerCount: 2
Fore
SplineSet
-227 646 m 0
 -227 633 -218 633 -218 614 c 0
 -218 605 -224 593 -237 593 c 0
 -256 593 -260 617 -260 634 c 0
 -260 672 -224 697 -175 697 c 0
 -150 697 -90 683 -90 626 c 0
 -90 574 -125 584 -150 527 c 1
 -193 527 l 1
 -170 587 -156 573 -156 618 c 0
 -156 642 -159 666 -190 666 c 0
 -206 666 -227 661 -227 646 c 0
EndSplineSet
EndChar

StartChar: uni030A
Encoding: 778 778 424
Width: 0
Flags: MW
AnchorPoint: "above" -167 470 mark 0
LayerCount: 2
Fore
SplineSet
-273 633 m 0
 -273 692 -224 740 -166 740 c 0
 -108 740 -60 691 -60 633 c 0
 -60 574 -108 527 -166 527 c 0
 -224 527 -273 573 -273 633 c 0
-108 633 m 0
 -108 664 -135 692 -168 692 c 0
 -206 692 -225 655 -225 633 c 0
 -225 611 -207 575 -168 575 c 0
 -134 575 -108 601 -108 633 c 0
EndSplineSet
EndChar

StartChar: uni030B
Encoding: 779 779 425
Width: 0
Flags: MW
AnchorPoint: "above" -167 470 mark 0
LayerCount: 2
Fore
SplineSet
-148 616 m 2
 -290 528 l 1
 -346 528 l 1
 -209 685 l 2
 -186 711 -167 713 -157 713 c 0
 -139 713 -108 705 -108 669 c 0
 -108 641 -124 631 -148 616 c 2
52 616 m 2
 -90 528 l 1
 -146 528 l 1
 -9 685 l 2
 14 711 33 713 43 713 c 0
 61 713 92 705 92 669 c 0
 92 641 76 631 52 616 c 2
EndSplineSet
EndChar

StartChar: uni030C
Encoding: 780 780 426
Width: 0
Flags: MW
AnchorPoint: "above" -167 470 mark 0
LayerCount: 2
Fore
SplineSet
2 704 m 1
 -121 528 l 1
 -213 528 l 1
 -335 704 l 1
 -279 704 l 1
 -167 605 l 1
 -55 704 l 1
 2 704 l 1
EndSplineSet
EndChar

StartChar: uni030D
Encoding: 781 781 427
Width: 0
Flags: MW
AnchorPoint: "above" -167 470 mark 0
LayerCount: 2
Fore
SplineSet
-154 504 m 1
 -179 504 l 1
 -188 563 -212 692 -212 721 c 0
 -212 748 -187 764 -166 764 c 0
 -146 764 -122 748 -122 721 c 0
 -122 692 -145 563 -154 504 c 1
EndSplineSet
EndChar

StartChar: uni030E
Encoding: 782 782 428
Width: 0
Flags: MW
AnchorPoint: "above" -167 470 mark 0
LayerCount: 2
Fore
SplineSet
-232 504 m 1
 -257 504 l 1
 -266 563 -290 692 -290 721 c 0
 -290 748 -265 764 -244 764 c 0
 -224 764 -200 748 -200 721 c 0
 -200 692 -223 563 -232 504 c 1
-76 504 m 1
 -101 504 l 1
 -110 563 -134 692 -134 721 c 0
 -134 748 -109 764 -88 764 c 0
 -68 764 -44 748 -44 721 c 0
 -44 692 -67 563 -76 504 c 1
EndSplineSet
EndChar

StartChar: uni030F
Encoding: 783 783 429
Width: 0
Flags: MW
AnchorPoint: "above" -193 472 mark 0
LayerCount: 2
Fore
SplineSet
-213 616 m 2
 -237 631 -253 641 -253 669 c 0
 -253 705 -222 713 -204 713 c 0
 -194 713 -175 711 -152 685 c 2
 -15 528 l 1
 -71 528 l 1
 -213 616 l 2
-413 616 m 2
 -437 631 -453 641 -453 669 c 0
 -453 705 -422 713 -404 713 c 0
 -394 713 -375 711 -352 685 c 2
 -215 528 l 1
 -271 528 l 1
 -413 616 l 2
EndSplineSet
EndChar

StartChar: uni0310
Encoding: 784 784 430
Width: 0
Flags: MW
AnchorPoint: "above" -167 470 mark 0
LayerCount: 2
Fore
SplineSet
-59 670 m 1
 -15 670 l 1
 -22 570 -70 507 -167 507 c 0
 -260 507 -317 564 -318 670 c 1
 -274 670 l 1
 -269 642 -257 583 -166 583 c 0
 -82 583 -67 639 -59 670 c 1
-230 696 m 0
 -230 721 -210 761 -168 761 c 0
 -133 761 -103 731 -103 695 c 0
 -103 660 -131 631 -168 631 c 0
 -211 631 -230 671 -230 696 c 0
EndSplineSet
EndChar

StartChar: uni0311
Encoding: 785 785 431
Width: 0
Flags: MW
AnchorPoint: "above" -167 470 mark 0
LayerCount: 2
Fore
SplineSet
-59 506 m 1
 -67 537 -82 593 -166 593 c 0
 -257 593 -269 534 -274 506 c 1
 -318 506 l 1
 -317 612 -260 669 -167 669 c 0
 -70 669 -22 606 -15 506 c 1
 -59 506 l 1
EndSplineSet
EndChar

StartChar: uni0312
Encoding: 786 786 432
Width: 0
Flags: MW
AnchorPoint: "above" -167 470 mark 0
LayerCount: 2
Fore
SplineSet
-81 573 m 0
 -81 538 -115 524 -145 524 c 0
 -211 524 -255 563 -255 630 c 0
 -255 697 -199 735 -136 735 c 0
 -124 735 -112 733 -100 732 c 1
 -100 706 l 1
 -140 706 -207 706 -207 650 c 0
 -207 634 -200 612 -181 612 c 0
 -163 612 -147 621 -130 621 c 0
 -101 621 -81 602 -81 573 c 0
EndSplineSet
EndChar

StartChar: uni0313
Encoding: 787 787 433
Width: 0
Flags: MW
AnchorPoint: "above" -167 470 mark 0
LayerCount: 2
Fore
SplineSet
-255 687 m 0
 -255 722 -221 736 -191 736 c 0
 -125 736 -81 697 -81 630 c 0
 -81 563 -137 525 -200 525 c 0
 -212 525 -224 527 -236 528 c 1
 -236 554 l 1
 -196 554 -129 554 -129 610 c 0
 -129 626 -136 648 -155 648 c 0
 -173 648 -189 639 -206 639 c 0
 -235 639 -255 658 -255 687 c 0
EndSplineSet
EndChar

StartChar: uni0314
Encoding: 788 788 434
Width: 0
Flags: MW
AnchorPoint: "above" -167 470 mark 0
LayerCount: 2
Fore
SplineSet
-81 687 m 0
 -81 658 -101 639 -130 639 c 0
 -147 639 -163 648 -181 648 c 0
 -200 648 -207 626 -207 610 c 0
 -207 554 -140 554 -100 554 c 1
 -100 528 l 1
 -112 527 -124 525 -136 525 c 0
 -199 525 -255 563 -255 630 c 0
 -255 697 -211 736 -145 736 c 0
 -115 736 -81 722 -81 687 c 0
EndSplineSet
EndChar

StartChar: uni0315
Encoding: 789 789 435
Width: 0
Flags: MW
LayerCount: 2
Fore
SplineSet
-17 356 m 1
 -28 378 l 1
 0 397 81 454 81 510 c 0
 81 522 74 532 61 532 c 0
 56 532 51 530 39 530 c 0
 11 530 -35 546 -35 609 c 0
 -35 661 1 691 47 691 c 0
 120 691 149 629 149 577 c 0
 149 451 36 386 -17 356 c 1
EndSplineSet
EndChar

StartChar: uni0316
Encoding: 790 790 436
Width: 0
Flags: MW
AnchorPoint: "below" -216 -50 mark 0
LayerCount: 2
Fore
SplineSet
-67 -310 m 1
 -123 -310 l 1
 -265 -222 l 2
 -290 -207 -305 -192 -305 -169 c 0
 -305 -155 -294 -125 -256 -125 c 0
 -235 -125 -215 -140 -204 -153 c 2
 -67 -310 l 1
EndSplineSet
EndChar

StartChar: uni0317
Encoding: 791 791 437
Width: 0
Flags: MW
AnchorPoint: "below" -206 -50 mark 0
LayerCount: 2
Fore
SplineSet
-345 -310 m 1
 -208 -153 l 2
 -197 -140 -177 -125 -156 -125 c 0
 -118 -125 -107 -155 -107 -169 c 0
 -107 -192 -122 -207 -147 -222 c 2
 -289 -310 l 1
 -345 -310 l 1
EndSplineSet
EndChar

StartChar: uni0318
Encoding: 792 792 438
Width: 0
Flags: MW
AnchorPoint: "below" -187 -50 mark 0
LayerCount: 2
Fore
SplineSet
-171 -318 m 1
 -354 -318 l 1
 -354 -246 l 1
 -171 -246 l 1
 -171 -127 l 1
 -99 -127 l 1
 -100 -438 l 1
 -172 -438 l 1
 -171 -318 l 1
EndSplineSet
EndChar

StartChar: uni0319
Encoding: 793 793 439
Width: 0
Flags: MW
AnchorPoint: "below" -170 -50 mark 0
LayerCount: 2
Fore
SplineSet
-223 -318 m 1
 -223 -438 l 1
 -295 -438 l 1
 -295 -127 l 1
 -223 -127 l 1
 -223 -246 l 1
 -40 -246 l 1
 -40 -318 l 1
 -223 -318 l 1
EndSplineSet
EndChar

StartChar: uni031A
Encoding: 794 794 440
Width: 0
Flags: MW
LayerCount: 2
Fore
SplineSet
170 505 m 1
 98 505 l 1
 98 670 l 1
 -67 670 l 1
 -67 742 l 1
 170 742 l 1
 170 505 l 1
EndSplineSet
EndChar

StartChar: uni031B
Encoding: 795 795 441
Width: 0
Flags: MW
LayerCount: 2
Fore
SplineSet
96 450 m 0
 83 450 79 445 66 445 c 0
 41 445 9 461 9 499 c 0
 9 536 34 562 74 562 c 0
 125 562 175 508 175 446 c 0
 175 376 118 319 47 319 c 0
 12 319 -21 333 -44 356 c 1
 -44 446 l 2
 -44 396 -5 357 45 357 c 0
 110 357 126 407 126 423 c 0
 126 441 112 450 96 450 c 0
EndSplineSet
EndChar

StartChar: uni031C
Encoding: 796 796 442
Width: 0
Flags: MW
AnchorPoint: "below" -187 -59 mark 0
LayerCount: 2
Fore
SplineSet
-140 -141 m 1
 -172 -205 l 1
 -179 -202 -185 -200 -193 -200 c 0
 -218 -200 -238 -220 -238 -245 c 0
 -238 -270 -218 -290 -193 -290 c 0
 -186 -290 -179 -288 -173 -285 c 1
 -140 -349 l 1
 -156 -357 -174 -362 -193 -362 c 0
 -258 -362 -310 -310 -310 -245 c 0
 -310 -180 -258 -128 -193 -128 c 0
 -174 -128 -156 -133 -140 -141 c 1
EndSplineSet
EndChar

StartChar: uni031D
Encoding: 797 797 443
Width: 0
Flags: MW
AnchorPoint: "below" -195 -70 mark 0
LayerCount: 2
Fore
SplineSet
-159 -312 m 1
 -40 -312 l 1
 -40 -384 l 1
 -351 -384 l 1
 -351 -312 l 1
 -231 -312 l 1
 -231 -129 l 1
 -159 -129 l 1
 -159 -312 l 1
EndSplineSet
EndChar

StartChar: uni031E
Encoding: 798 798 444
Width: 0
Flags: MW
AnchorPoint: "below" -211 -90 mark 0
LayerCount: 2
Fore
SplineSet
-175 -249 m 1
 -175 -432 l 1
 -247 -432 l 1
 -247 -249 l 1
 -367 -249 l 1
 -367 -177 l 1
 -56 -177 l 1
 -56 -249 l 1
 -175 -249 l 1
EndSplineSet
EndChar

StartChar: uni031F
Encoding: 799 799 445
Width: 0
Flags: MW
AnchorPoint: "below" -167 -70 mark 0
LayerCount: 2
Fore
SplineSet
-323 -303 m 1
 -323 -231 l 1
 -203 -231 l 1
 -203 -129 l 1
 -131 -129 l 1
 -131 -231 l 1
 -12 -231 l 1
 -12 -303 l 1
 -131 -303 l 1
 -131 -405 l 1
 -203 -405 l 1
 -203 -303 l 1
 -323 -303 l 1
EndSplineSet
EndChar

StartChar: uni0320
Encoding: 800 800 446
Width: 0
Flags: MW
AnchorPoint: "below" -219 -80 mark 0
LayerCount: 2
Fore
SplineSet
-67 -177 m 1
 -67 -249 l 1
 -378 -249 l 1
 -378 -177 l 1
 -67 -177 l 1
EndSplineSet
EndChar

StartChar: uni0321
Encoding: 801 801 447
Width: 0
Flags: MW
AnchorPoint: "below" -203 30 mark 0
LayerCount: 2
Fore
SplineSet
-120 -204 m 1
 -113 -206 -107 -207 -101 -207 c 0
 -71 -207 -58 -182 -58 -152 c 2
 -58 0 l 1
 -104 0 l 1
 -104 23 l 1
 -56 23 l 1
 -46 31 -39 39 -33 46 c 1
 -1 35 l 1
 -1 -152 l 2
 -1 -196 -36 -251 -100 -251 c 0
 -171 -251 -225 -217 -225 -154 c 0
 -225 -129 -205 -89 -163 -89 c 0
 -128 -89 -98 -119 -98 -155 c 0
 -98 -174 -107 -192 -120 -204 c 1
EndSplineSet
EndChar

StartChar: uni0322
Encoding: 802 802 448
Width: 0
Flags: MW
AnchorPoint: "below" -237 20 mark 0
LayerCount: 2
Fore
SplineSet
16 -204 m 1
 3 -192 -6 -174 -6 -155 c 0
 -6 -119 24 -89 59 -89 c 0
 101 -89 121 -129 121 -154 c 0
 121 -217 67 -251 -4 -251 c 0
 -68 -251 -103 -196 -103 -152 c 2
 -103 35 l 1
 -71 46 l 1
 -65 39 -58 31 -48 23 c 1
 0 23 l 1
 0 0 l 1
 -46 0 l 1
 -46 -152 l 2
 -46 -182 -33 -207 -3 -207 c 0
 3 -207 9 -206 16 -204 c 1
EndSplineSet
EndChar

StartChar: dotbelowcomb
Encoding: 803 803 449
Width: 0
Flags: MW
AnchorPoint: "below" -202 -60 mark 0
LayerCount: 2
Fore
SplineSet
-267 -191 m 0
 -267 -166 -247 -126 -205 -126 c 0
 -170 -126 -140 -156 -140 -192 c 0
 -140 -227 -168 -256 -205 -256 c 0
 -248 -256 -267 -216 -267 -191 c 0
EndSplineSet
EndChar

StartChar: uni0324
Encoding: 804 804 450
Width: 0
Flags: MW
AnchorPoint: "below" -288 -50 mark 0
LayerCount: 2
Fore
SplineSet
-461 -190 m 0
 -461 -165 -440 -125 -398 -125 c 0
 -363 -125 -334 -155 -334 -191 c 0
 -334 -226 -361 -255 -398 -255 c 0
 -441 -255 -461 -215 -461 -190 c 0
-251 -190 m 0
 -251 -165 -231 -125 -189 -125 c 0
 -154 -125 -124 -155 -124 -191 c 0
 -124 -226 -152 -255 -189 -255 c 0
 -232 -255 -251 -215 -251 -190 c 0
EndSplineSet
EndChar

StartChar: uni0325
Encoding: 805 805 451
Width: 0
Flags: MW
AnchorPoint: "below" -201 -60 mark 0
LayerCount: 2
Fore
SplineSet
-311 -238 m 0
 -311 -179 -262 -131 -204 -131 c 0
 -146 -131 -98 -180 -98 -238 c 0
 -98 -297 -146 -344 -204 -344 c 0
 -262 -344 -311 -298 -311 -238 c 0
-146 -238 m 0
 -146 -207 -173 -179 -206 -179 c 0
 -244 -179 -263 -216 -263 -238 c 0
 -263 -260 -245 -296 -206 -296 c 0
 -172 -296 -146 -270 -146 -238 c 0
EndSplineSet
EndChar

StartChar: uni0326
Encoding: 806 806 452
Width: 0
Flags: MW
AnchorPoint: "below" -212 -70 mark 0
LayerCount: 2
Fore
SplineSet
-279 -462 m 1
 -290 -440 l 1
 -262 -421 -181 -364 -181 -308 c 0
 -181 -296 -188 -286 -201 -286 c 0
 -206 -286 -211 -288 -223 -288 c 0
 -251 -288 -297 -272 -297 -209 c 0
 -297 -157 -261 -127 -215 -127 c 0
 -142 -127 -113 -189 -113 -241 c 0
 -113 -367 -226 -432 -279 -462 c 1
EndSplineSet
EndChar

StartChar: uni0327
Encoding: 807 807 453
Width: 0
Flags: MW
AnchorPoint: "below" -205 0 mark 0
LayerCount: 2
Fore
SplineSet
-268 -96 m 1
 -225 0 l 1
 -183 0 l 1
 -211 -64 l 1
 -201 -61 -193 -59 -180 -59 c 0
 -129 -59 -90 -80 -90 -129 c 0
 -90 -210 -187 -218 -225 -218 c 0
 -237 -218 -275 -216 -316 -200 c 1
 -300 -163 l 1
 -281 -170 -265 -177 -241 -177 c 0
 -229 -177 -183 -177 -183 -136 c 0
 -183 -111 -203 -100 -229 -100 c 0
 -242 -100 -249 -102 -257 -104 c 1
 -268 -96 l 1
EndSplineSet
EndChar

StartChar: uni0328
Encoding: 808 808 454
Width: 0
Flags: MW
AnchorPoint: "below" -170 0 mark 0
LayerCount: 2
Fore
SplineSet
-196 -157 m 0
 -250 -157 -286 -126 -286 -82 c 0
 -286 -41 -249 0 -196 0 c 0
 -134 0 l 1
 -185 -15 -199 -38 -199 -58 c 0
 -199 -77 -189 -103 -148 -103 c 0
 -124 -103 -95 -92 -72 -69 c 1
 -47 -89 l 1
 -80 -132 -140 -157 -196 -157 c 0
EndSplineSet
EndChar

StartChar: uni0329
Encoding: 809 809 455
Width: 0
Flags: MW
AnchorPoint: "below" -240 -70 mark 0
LayerCount: 2
Fore
SplineSet
-230 -131 m 1
 -221 -190 -198 -319 -198 -348 c 0
 -198 -375 -222 -391 -242 -391 c 0
 -263 -391 -288 -375 -288 -348 c 0
 -288 -319 -264 -190 -255 -131 c 1
 -230 -131 l 1
EndSplineSet
EndChar

StartChar: uni032A
Encoding: 810 810 456
Width: 0
Flags: MW
AnchorPoint: "below" -203 -90 mark 0
LayerCount: 2
Fore
SplineSet
-52 -177 m 1
 -52 -370 l 1
 -124 -370 l 1
 -124 -249 l 1
 -291 -249 l 1
 -291 -370 l 1
 -363 -370 l 1
 -363 -177 l 1
 -52 -177 l 1
EndSplineSet
EndChar

StartChar: uni032B
Encoding: 811 811 457
Width: 0
Flags: MW
AnchorPoint: "below" -221 -70 mark 0
LayerCount: 2
Fore
SplineSet
-227 -214 m 0
 -197 -214 -213 -351 -139 -351 c 0
 -114 -351 -108 -338 -108 -298 c 0
 -108 -205 -155 -179 -155 -162 c 0
 -155 -156 -151 -153 -145 -153 c 0
 -125 -153 -33 -228 -33 -323 c 0
 -33 -381 -57 -417 -100 -417 c 0
 -144 -417 -194 -395 -223 -352 c 1
 -255 -395 -306 -417 -349 -417 c 0
 -392 -417 -416 -381 -416 -323 c 0
 -416 -227 -325 -153 -304 -153 c 0
 -298 -153 -294 -156 -294 -161 c 0
 -294 -182 -346 -213 -346 -301 c 0
 -346 -341 -340 -354 -315 -354 c 0
 -242 -354 -247 -214 -227 -214 c 0
EndSplineSet
EndChar

StartChar: uni032C
Encoding: 812 812 458
Width: 0
Flags: MW
AnchorPoint: "below" -161 -80 mark 0
LayerCount: 2
Fore
SplineSet
2 -165 m 1
 -121 -341 l 1
 -213 -341 l 1
 -335 -165 l 1
 -279 -165 l 1
 -167 -264 l 1
 -55 -165 l 1
 2 -165 l 1
EndSplineSet
EndChar

StartChar: uni032D
Encoding: 813 813 459
Width: 0
Flags: MW
AnchorPoint: "below" -217 -90 mark 0
LayerCount: 2
Fore
SplineSet
-53 -342 m 1
 -110 -342 l 1
 -222 -243 l 1
 -334 -342 l 1
 -390 -342 l 1
 -268 -166 l 1
 -176 -166 l 1
 -53 -342 l 1
EndSplineSet
EndChar

StartChar: uni032E
Encoding: 814 814 460
Width: 0
Flags: MW
AnchorPoint: "below" -160 -82 mark 0
LayerCount: 2
Fore
SplineSet
-59 -154 m 1
 -15 -154 l 1
 -22 -254 -70 -317 -167 -317 c 0
 -260 -317 -317 -260 -318 -154 c 1
 -274 -154 l 1
 -269 -182 -257 -241 -166 -241 c 0
 -82 -241 -67 -185 -59 -154 c 1
EndSplineSet
EndChar

StartChar: uni032F
Encoding: 815 815 461
Width: 0
Flags: MW
AnchorPoint: "below" -208 -80 mark 0
LayerCount: 2
Fore
SplineSet
-103 -318 m 1
 -111 -287 -126 -231 -210 -231 c 0
 -301 -231 -313 -290 -318 -318 c 1
 -362 -318 l 1
 -361 -212 -304 -155 -211 -155 c 0
 -114 -155 -66 -218 -59 -318 c 1
 -103 -318 l 1
EndSplineSet
EndChar

StartChar: uni0330
Encoding: 816 816 462
Width: 0
Flags: MW
AnchorPoint: "below" -221 -80 mark 0
LayerCount: 2
Fore
SplineSet
-358 -300 m 1
 -400 -300 l 1
 -393 -265 -374 -175 -282 -175 c 0
 -253 -175 -221 -190 -211 -194 c 2
 -171 -212 l 2
 -144 -224 -144 -224 -131 -224 c 0
 -94 -224 -84 -192 -78 -175 c 1
 -35 -175 l 1
 -44 -210 -67 -302 -156 -302 c 0
 -174 -302 -200 -295 -216 -288 c 2
 -245 -275 l 2
 -295 -253 -295 -253 -309 -253 c 0
 -341 -253 -357 -282 -358 -300 c 1
EndSplineSet
EndChar

StartChar: uni0331
Encoding: 817 817 463
Width: 0
Flags: MW
AnchorPoint: "below" -218 -101 mark 0
LayerCount: 2
Fore
SplineSet
-60 -177 m 1
 -60 -249 l 1
 -390 -249 l 1
 -390 -177 l 1
 -60 -177 l 1
EndSplineSet
EndChar

StartChar: uni0332
Encoding: 818 818 464
Width: 0
Flags: MW
AnchorPoint: "below" -240 -80 mark 0
LayerCount: 2
Fore
SplineSet
-1 -177 m 1
 -1 -249 l 1
 -499 -249 l 1
 -499 -177 l 1
 -1 -177 l 1
EndSplineSet
EndChar

StartChar: uni0333
Encoding: 819 819 465
Width: 0
Flags: MW
AnchorPoint: "below" -247 -80 mark 0
LayerCount: 2
Fore
SplineSet
-1 -177 m 1
 -1 -249 l 1
 -499 -249 l 1
 -499 -177 l 1
 -1 -177 l 1
-1 -321 m 1
 -1 -393 l 1
 -499 -393 l 1
 -499 -321 l 1
 -1 -321 l 1
EndSplineSet
EndChar

StartChar: uni0334
Encoding: 820 820 466
Width: 0
Flags: MW
LayerCount: 2
Fore
SplineSet
-339 194 m 1
 -381 194 l 1
 -374 229 -355 319 -263 319 c 0
 -234 319 -202 304 -192 300 c 2
 -152 282 l 2
 -125 270 -125 270 -112 270 c 0
 -75 270 -65 302 -59 319 c 1
 -16 319 l 1
 -25 284 -48 192 -137 192 c 0
 -155 192 -181 199 -197 206 c 2
 -226 219 l 2
 -276 241 -276 241 -290 241 c 0
 -322 241 -338 212 -339 194 c 1
EndSplineSet
EndChar

StartChar: uni0335
Encoding: 821 821 467
Width: 0
Flags: MW
LayerCount: 2
Fore
SplineSet
-96 258 m 1
 -96 186 l 1
 -374 186 l 1
 -374 258 l 1
 -96 258 l 1
EndSplineSet
EndChar

StartChar: uni0336
Encoding: 822 822 468
Width: 0
Flags: MW
LayerCount: 2
Fore
SplineSet
-31 259 m 1
 -31 187 l 1
 -475 187 l 1
 -475 259 l 1
 -31 259 l 1
EndSplineSet
EndChar

StartChar: uni0337
Encoding: 823 823 469
Width: 0
Flags: MW
LayerCount: 2
Fore
SplineSet
-67 348 m 1
 -37 283 l 1
 -439 95 l 1
 -469 161 l 1
 -67 348 l 1
EndSplineSet
EndChar

StartChar: uni0338
Encoding: 824 824 470
Width: 0
Flags: MW
LayerCount: 2
Fore
SplineSet
-120 406 m 1
 -69 355 l 1
 -384 40 l 1
 -435 91 l 1
 -120 406 l 1
EndSplineSet
EndChar

StartChar: uni0339
Encoding: 825 825 471
Width: 0
Flags: MW
AnchorPoint: "below" -202 -70 mark 0
LayerCount: 2
Fore
SplineSet
-257 -141 m 1
 -241 -133 -223 -128 -204 -128 c 0
 -139 -128 -87 -180 -87 -245 c 0
 -87 -310 -139 -362 -204 -362 c 0
 -223 -362 -241 -357 -257 -349 c 1
 -224 -285 l 1
 -218 -288 -211 -290 -204 -290 c 0
 -179 -290 -159 -270 -159 -245 c 0
 -159 -220 -179 -200 -204 -200 c 0
 -212 -200 -218 -202 -225 -205 c 1
 -257 -141 l 1
EndSplineSet
EndChar

StartChar: uni033A
Encoding: 826 826 472
Width: 0
Flags: MW
AnchorPoint: "below" -202 -60 mark 0
LayerCount: 2
Fore
SplineSet
-51 -306 m 1
 -362 -306 l 1
 -362 -113 l 1
 -290 -113 l 1
 -290 -234 l 1
 -123 -234 l 1
 -123 -113 l 1
 -51 -113 l 1
 -51 -306 l 1
EndSplineSet
EndChar

StartChar: uni033B
Encoding: 827 827 473
Width: 0
Flags: MW
AnchorPoint: "below" -208 -90 mark 0
LayerCount: 2
Fore
SplineSet
-368 -177 m 1
 -57 -177 l 1
 -57 -488 l 1
 -368 -488 l 1
 -368 -177 l 1
-296 -249 m 1
 -296 -416 l 1
 -129 -416 l 1
 -129 -249 l 1
 -296 -249 l 1
EndSplineSet
EndChar

StartChar: uni033C
Encoding: 828 828 474
Width: 0
Flags: MW
AnchorPoint: "below" -208 -100 mark 0
LayerCount: 2
Fore
SplineSet
-37 -254 m 0
 -48 -254 -62 -242 -112 -242 c 0
 -114 -242 -117 -242 -119 -242 c 0
 -208 -246 -175 -378 -216 -378 c 0
 -254 -378 -212 -252 -310 -242 c 0
 -313 -242 -317 -242 -321 -242 c 0
 -363 -242 -379 -253 -391 -253 c 0
 -398 -253 -400 -249 -400 -244 c 0
 -400 -239 -360 -165 -298 -165 c 0
 -248 -165 -226 -205 -215 -248 c 1
 -203 -206 -180 -165 -127 -165 c 0
 -69 -165 -31 -217 -31 -247 c 0
 -31 -251 -32 -254 -37 -254 c 0
EndSplineSet
EndChar

StartChar: uni033D
Encoding: 829 829 475
Width: 0
Flags: MW
LayerCount: 2
Fore
SplineSet
-306 584 m 1
 -397 493 l 1
 -448 544 l 1
 -357 635 l 1
 -448 726 l 1
 -397 777 l 1
 -306 686 l 1
 -215 777 l 1
 -164 726 l 1
 -255 635 l 1
 -164 544 l 1
 -215 493 l 1
 -306 584 l 1
EndSplineSet
EndChar

StartChar: uni033E
Encoding: 830 830 476
Width: 0
Flags: MW
LayerCount: 2
Fore
SplineSet
-194 748 m 1
 -212 747 -241 734 -241 709 c 0
 -241 698 -241 698 -219 658 c 2
 -206 634 l 2
 -199 622 -192 601 -192 586 c 0
 -192 515 -284 497 -319 490 c 1
 -319 524 l 1
 -302 529 -270 537 -270 566 c 0
 -270 577 -270 577 -282 598 c 2
 -300 630 l 2
 -304 638 -319 664 -319 687 c 0
 -319 761 -229 776 -194 782 c 1
 -194 748 l 1
EndSplineSet
EndChar

StartChar: uni033F
Encoding: 831 831 477
Width: 0
Flags: MW
LayerCount: 2
Fore
SplineSet
-1 763 m 1
 -1 691 l 1
 -499 691 l 1
 -499 763 l 1
 -1 763 l 1
-1 619 m 1
 -1 547 l 1
 -499 547 l 1
 -499 619 l 1
 -1 619 l 1
EndSplineSet
EndChar

StartChar: uni0360
Encoding: 864 864 478
Width: 0
Flags: MW
LayerCount: 2
Fore
SplineSet
-437 653 m 1
 -412 695 -288 900 4 900 c 0
 86 900 300 872 425 653 c 1
 397 653 l 1
 338 737 267 787 -5 787 c 0
 -310 787 -354 723 -410 653 c 1
 -437 653 l 1
EndSplineSet
EndChar

StartChar: uni0361
Encoding: 865 865 479
Width: 0
Flags: MW
LayerCount: 2
Fore
SplineSet
-447 709 m 1
 -384 846 -307 880 -216 880 c 0
 -68 880 59 796 192 796 c 0
 306 796 364 870 383 900 c 1
 420 885 l 1
 359 753 283 714 194 714 c 0
 43 714 -80 796 -223 796 c 0
 -292 796 -361 775 -408 701 c 1
 -447 709 l 1
EndSplineSet
EndChar

StartChar: uni0374
Encoding: 884 884 480
Width: 199
Flags: MW
LayerCount: 2
Fore
SplineSet
164 725 m 0
 164 700 52 572 27 551 c 1
 1 569 l 1
 17 615 55 780 111 780 c 0
 139 780 164 753 164 725 c 0
EndSplineSet
EndChar

StartChar: uni0375
Encoding: 885 885 481
Width: 199
Flags: MW
LayerCount: 2
Fore
SplineSet
200 -9 m 1
 184 -55 146 -220 90 -220 c 0
 62 -220 37 -193 37 -165 c 0
 37 -140 149 -12 174 9 c 1
 200 -9 l 1
EndSplineSet
EndChar

StartChar: uni037A
Encoding: 890 890 482
Width: 0
Flags: MW
LayerCount: 2
Fore
SplineSet
300 -152 m 1
 300 -208 267 -233 213 -233 c 0
 172 -233 130 -208 130 -163 c 2
 130 -50 l 1
 220 -50 l 1
 220 -73 217 -95 217 -118 c 0
 217 -135 217 -193 243 -193 c 0
 266 -193 267 -169 271 -152 c 1
 300 -152 l 1
EndSplineSet
EndChar

StartChar: anoteleia
Encoding: 903 903 486
Width: 250
Flags: MW
LayerCount: 2
Fore
SplineSet
218 351 m 0
 218 300 176 258 125 258 c 0
 74 258 32 300 32 351 c 0
 32 402 74 444 125 444 c 0
 176 444 218 402 218 351 c 0
EndSplineSet
EndChar

StartChar: Gamma
Encoding: 915 915 496
Width: 611
Flags: MW
LayerCount: 2
Fore
SplineSet
583 475 m 1
 559 475 l 1
 528 623 467 642 325 642 c 0
 289 642 266 638 266 595 c 2
 266 96 l 2
 266 24 321 27 376 25 c 1
 376 0 l 1
 16 0 l 1
 16 25 l 1
 68 30 104 33 104 96 c 2
 104 580 l 2
 104 641 68 648 16 651 c 1
 16 676 l 1
 583 676 l 1
 583 475 l 1
EndSplineSet
EndChar

StartChar: uni0394
Encoding: 916 916 497
Width: 759
Flags: MW
LayerCount: 2
Fore
SplineSet
746 0 m 1
 13 0 l 1
 365 690 l 1
 399 690 l 1
 746 0 l 1
561 40 m 1
 320 518 l 1
 77 40 l 1
 561 40 l 1
EndSplineSet
EndChar

StartChar: Theta
Encoding: 920 920 501
Width: 778
Flags: MW
LayerCount: 2
Fore
SplineSet
743 336 m 0
 743 129 596 -19 389 -19 c 0
 182 -19 35 129 35 336 c 0
 35 542 183 691 389 691 c 0
 595 691 743 542 743 336 c 0
566 336 m 0
 566 450 542 658 389 658 c 0
 236 658 212 450 212 336 c 0
 212 217 229 14 389 14 c 0
 549 14 566 217 566 336 c 0
505 235 m 1
 481 235 l 1
 481 270 459 296 423 296 c 2
 353 296 l 2
 317 296 295 270 295 235 c 1
 271 235 l 1
 271 455 l 1
 295 455 l 1
 295 420 317 394 353 394 c 2
 423 394 l 2
 459 394 481 420 481 455 c 1
 505 455 l 1
 505 235 l 1
EndSplineSet
EndChar

StartChar: Lambda
Encoding: 923 923 504
Width: 722
Flags: MW
LayerCount: 2
Fore
SplineSet
689 0 m 1
 365 0 l 1
 365 25 l 1
 393 26 445 23 445 64 c 0
 445 106 310 416 283 479 c 1
 261 423 130 96 130 68 c 0
 130 29 184 25 212 25 c 1
 212 0 l 1
 9 0 l 1
 9 25 l 1
 71 34 87 93 107 142 c 2
 329 690 l 1
 357 690 l 1
 580 164 l 2
 599 120 626 25 686 25 c 0
 689 25 l 1
 689 0 l 1
EndSplineSet
EndChar

StartChar: Xi
Encoding: 926 926 507
Width: 650
Flags: MW
LayerCount: 2
Fore
SplineSet
593 441 m 1
 569 441 l 1
 569 486 549 526 499 526 c 2
 154 526 l 2
 103 526 81 488 81 441 c 1
 58 441 l 1
 58 673 l 1
 593 673 l 1
 593 441 l 1
491 209 m 1
 468 209 l 1
 468 240 452 272 417 272 c 2
 232 272 l 2
 197 272 181 240 181 209 c 1
 158 209 l 1
 158 464 l 1
 181 464 l 1
 181 431 195 402 232 402 c 2
 417 402 l 2
 454 402 468 431 468 464 c 1
 491 464 l 1
 491 209 l 1
593 0 m 1
 58 0 l 1
 58 232 l 1
 81 232 l 1
 81 185 102 147 154 147 c 2
 499 147 l 2
 550 147 569 186 569 232 c 1
 593 232 l 1
 593 0 l 1
EndSplineSet
EndChar

StartChar: Pi
Encoding: 928 928 509
Width: 812
Flags: MW
LayerCount: 2
Fore
SplineSet
788 0 m 1
 441 0 l 1
 441 23 l 1
 510 25 524 40 524 109 c 2
 524 572 l 2
 524 627 506 642 452 642 c 2
 360 642 l 2
 299 642 289 611 289 557 c 2
 289 109 l 2
 289 40 302 25 371 23 c 1
 371 0 l 1
 24 0 l 1
 24 23 l 1
 94 25 107 39 107 109 c 2
 107 567 l 2
 107 637 93 650 24 652 c 1
 24 676 l 1
 788 676 l 1
 788 652 l 1
 719 650 705 637 705 567 c 2
 705 109 l 2
 705 39 718 25 788 23 c 1
 788 0 l 1
EndSplineSet
EndChar

StartChar: Sigma
Encoding: 931 931 511
Width: 650
Flags: MW
LayerCount: 2
Fore
SplineSet
621 237 m 1
 596 0 l 1
 12 0 l 1
 12 33 l 1
 258 305 l 1
 12 628 l 1
 12 673 l 1
 592 673 l 1
 605 478 l 1
 575 478 l 1
 559 587 499 639 389 639 c 2
 210 639 l 1
 384 390 l 1
 162 142 l 1
 440 142 l 2
 510 142 588 149 593 237 c 1
 621 237 l 1
EndSplineSet
EndChar

StartChar: Upsilon
Encoding: 933 933 513
Width: 722
Flags: MW
LayerCount: 2
Fore
SplineSet
719 584 m 0
 719 549 690 519 655 519 c 0
 620 519 591 548 591 583 c 0
 591 617 613 639 645 639 c 0
 648 639 652 638 655 638 c 1
 647 643 638 644 629 644 c 0
 489 644 451 461 451 351 c 2
 451 82 l 2
 451 24 494 18 541 18 c 1
 541 0 l 1
 197 0 l 1
 197 18 l 1
 244 18 287 24 287 82 c 2
 287 352 l 2
 287 460 250 644 111 644 c 0
 102 644 92 643 84 638 c 1
 122 638 148 625 148 583 c 0
 148 548 119 519 84 519 c 0
 49 519 20 549 20 584 c 0
 20 644 54 676 114 676 c 0
 235 676 331 526 367 425 c 1
 406 525 504 676 625 676 c 0
 685 676 719 644 719 584 c 0
EndSplineSet
EndChar

StartChar: Phi
Encoding: 934 934 514
Width: 868
Flags: MW
LayerCount: 2
Fore
SplineSet
816 344 m 0
 816 177 659 129 520 122 c 1
 520 112 l 1
 520 106 l 0
 520 53 534 23 594 23 c 0
 597 23 l 1
 597 0 l 1
 271 0 l 1
 271 23 l 1
 274 23 l 0
 334 23 348 53 348 106 c 0
 348 112 l 0
 348 122 l 1
 209 129 52 177 52 344 c 0
 52 496 220 559 348 559 c 1
 348 560 348 562 348 563 c 0
 348 612 331 649 276 649 c 0
 275 649 275 649 274 649 c 1
 274 673 l 1
 594 673 l 1
 594 649 l 1
 593 649 593 649 592 649 c 0
 538 649 520 614 520 567 c 0
 520 564 520 562 520 559 c 1
 648 559 816 495 816 344 c 0
640 322 m 0
 640 404 630 530 520 530 c 1
 520 150 l 1
 612 150 640 246 640 322 c 0
348 150 m 1
 348 530 l 1
 238 530 228 404 228 322 c 0
 228 246 255 150 348 150 c 1
EndSplineSet
EndChar

StartChar: Psi
Encoding: 936 936 516
Width: 868
Flags: MW
LayerCount: 2
Fore
SplineSet
855 653 m 1
 850 655 844 656 839 656 c 0
 814 656 802 631 801 609 c 0
 796 430 l 1
 791 268 663 215 520 215 c 1
 520 122 l 2
 520 60 524 24 597 23 c 1
 597 0 l 1
 271 0 l 1
 271 23 l 1
 344 24 348 60 348 122 c 2
 348 215 l 1
 204 215 77 268 72 430 c 0
 66 609 l 2
 65 633 51 656 28 656 c 0
 23 656 18 655 13 653 c 1
 13 681 l 1
 34 685 55 690 77 690 c 0
 229 690 243 589 243 478 c 0
 243 454 242 430 242 406 c 0
 242 327 249 246 348 244 c 1
 348 559 l 2
 348 612 334 648 274 649 c 1
 274 673 l 1
 594 673 l 1
 594 649 l 1
 534 648 520 613 520 559 c 2
 520 244 l 1
 614 246 627 324 627 401 c 0
 627 431 625 460 625 485 c 0
 625 606 650 690 791 690 c 0
 813 690 834 685 855 681 c 1
 855 653 l 1
EndSplineSet
EndChar

StartChar: uni03A9
Encoding: 937 937 517
Width: 811
Flags: MW
LayerCount: 2
Fore
SplineSet
756 424 m 0
 756 282 623 199 496 181 c 1
 496 125 l 1
 641 125 l 2
 678 125 722 126 722 174 c 0
 722 180 l 1
 746 180 l 1
 746 0 l 1
 462 0 l 1
 462 215 l 1
 552 249 566 358 566 441 c 0
 566 540 522 656 406 656 c 0
 290 656 245 540 245 441 c 0
 245 358 259 249 349 215 c 1
 349 0 l 1
 65 0 l 1
 65 180 l 1
 89 180 l 1
 89 174 l 0
 89 126 134 125 171 125 c 2
 315 125 l 1
 315 181 l 1
 188 199 56 282 56 424 c 0
 56 618 239 690 406 690 c 0
 572 690 756 618 756 424 c 0
EndSplineSet
EndChar

StartChar: Iotadieresis
Encoding: 938 938 518
Width: 0
Flags: MW
LayerCount: 2
Fore
SplineSet
348 786 m 0
 348 752 319 722 285 722 c 0
 250 722 221 751 221 786 c 0
 221 820 251 849 285 849 c 0
 319 849 348 820 348 786 c 0
168 786 m 0
 168 751 139 722 104 722 c 0
 70 722 41 752 41 786 c 0
 41 820 70 849 104 849 c 0
 138 849 168 820 168 786 c 0
370 0 m 1
 20 0 l 1
 20 25 l 1
 71 30 113 33 113 96 c 2
 113 580 l 2
 113 642 71 648 20 651 c 1
 20 676 l 1
 370 676 l 1
 370 651 l 1
 317 649 275 644 275 580 c 2
 275 96 l 2
 275 31 318 29 370 25 c 1
 370 0 l 1
EndSplineSet
EndChar

StartChar: Upsilondieresis
Encoding: 939 939 519
Width: 722
Flags: MW
LayerCount: 2
Fore
SplineSet
524 786 m 0
 524 752 495 722 461 722 c 0
 427 722 398 752 398 786 c 0
 398 820 427 849 461 849 c 0
 495 849 524 820 524 786 c 0
317 786 m 0
 317 751 288 722 253 722 c 0
 219 722 190 752 190 786 c 0
 190 820 219 849 253 849 c 0
 287 849 317 820 317 786 c 0
709 584 m 0
 709 549 680 519 645 519 c 0
 610 519 581 548 581 583 c 0
 581 617 603 639 635 639 c 0
 638 639 642 638 645 638 c 1
 637 643 628 644 619 644 c 0
 479 644 441 461 441 351 c 2
 441 82 l 2
 441 24 484 18 531 18 c 1
 531 0 l 1
 187 0 l 1
 187 18 l 1
 234 18 277 24 277 82 c 2
 277 352 l 2
 277 460 240 644 101 644 c 0
 92 644 82 643 74 638 c 1
 112 638 138 625 138 583 c 0
 138 548 109 519 74 519 c 0
 39 519 10 549 10 584 c 0
 10 644 44 676 104 676 c 0
 225 676 321 526 357 425 c 1
 396 525 494 676 615 676 c 0
 675 676 709 644 709 584 c 0
EndSplineSet
EndChar

StartChar: alpha
Encoding: 945 945 525
Width: 605
Flags: MW
LayerCount: 2
Fore
SplineSet
588 133 m 1
 583 84 570 -13 504 -13 c 0
 449 -13 428 73 421 115 c 1
 419 115 l 1
 386 50 333 -13 254 -13 c 0
 111 -13 37 102 37 235 c 0
 37 351 124 474 248 474 c 0
 330 474 357 412 370 342 c 1
 372 342 l 1
 401 461 l 1
 541 461 l 1
 440 153 l 1
 451 124 471 84 507 84 c 0
 534 84 554 109 559 133 c 1
 588 133 l 1
346 227 m 0
 346 283 345 435 264 435 c 0
 195 435 189 309 189 230 c 0
 189 212 189 196 189 185 c 0
 189 137 191 22 261 22 c 0
 339 22 346 172 346 227 c 0
EndSplineSet
EndChar

StartChar: beta
Encoding: 946 946 526
Width: 550
Flags: MW
LayerCount: 2
Fore
SplineSet
522 177 m 0
 522 74 449 -24 331 -24 c 0
 269 -24 208 -2 193 61 c 1
 191 61 l 1
 191 -200 l 1
 56 -200 l 1
 56 374 l 2
 56 510 93 679 274 679 c 0
 370 679 473 638 473 533 c 0
 473 439 400 400 312 381 c 1
 312 379 l 1
 439 363 522 303 522 177 c 0
361 129 m 2
 361 209 l 2
 361 251 358 358 293 358 c 0
 278 358 264 350 249 350 c 0
 234 350 228 368 228 378 c 0
 228 390 238 403 251 403 c 0
 263 403 275 396 287 396 c 0
 332 396 332 476 332 505 c 0
 332 507 332 510 332 513 c 0
 332 559 331 651 269 651 c 0
 193 651 191 512 191 463 c 2
 191 69 l 1
 222 69 l 1
 225 45 252 19 278 19 c 0
 347 19 361 75 361 129 c 2
EndSplineSet
EndChar

StartChar: gamma
Encoding: 947 947 527
Width: 550
Flags: MW
LayerCount: 2
Fore
SplineSet
298 87 m 1
 394 281 331 474 462 474 c 0
 505 474 523 452 523 410 c 0
 523 340 351 116 304 48 c 1
 329 -8 352 -71 352 -133 c 0
 352 -180 327 -231 274 -231 c 0
 223 -231 198 -191 198 -144 c 0
 198 -71 232 -7 274 50 c 1
 254 128 216 338 110 338 c 0
 75 338 62 305 62 275 c 1
 28 275 l 1
 28 338 33 474 122 474 c 0
 246 474 278 177 296 87 c 1
 298 87 l 1
EndSplineSet
EndChar

StartChar: delta
Encoding: 948 948 528
Width: 550
Flags: MW
LayerCount: 2
Fore
SplineSet
513 236 m 0
 513 102 424 -13 272 -13 c 0
 144 -13 38 80 38 202 c 0
 38 311 111 412 236 412 c 0
 261 412 287 406 311 399 c 1
 313 401 l 1
 236 440 110 485 110 584 c 0
 110 653 183 690 249 690 c 0
 327 690 380 648 418 588 c 1
 384 574 l 1
 366 620 315 656 262 656 c 0
 228 656 200 645 200 609 c 0
 200 544 513 479 513 236 c 0
347 170 m 2
 347 223 l 2
 347 268 345 385 275 385 c 0
 202 385 198 289 198 239 c 2
 198 187 l 2
 198 139 200 14 275 14 c 0
 345 14 347 125 347 170 c 2
EndSplineSet
EndChar

StartChar: epsilon
Encoding: 949 949 529
Width: 440
Flags: MW
LayerCount: 2
Fore
SplineSet
431 103 m 1
 378 12 315 -13 213 -13 c 0
 123 -13 36 26 36 128 c 0
 36 206 100 238 168 248 c 1
 168 249 l 1
 108 251 46 285 46 352 c 0
 46 443 151 474 226 474 c 0
 277 474 408 461 408 391 c 0
 408 368 391 343 366 343 c 0
 288 343 316 440 249 440 c 0
 196 440 190 391 190 349 c 0
 190 317 194 269 236 269 c 0
 261 269 283 283 307 283 c 0
 329 283 345 271 345 248 c 0
 345 224 328 215 306 215 c 0
 280 215 258 230 232 230 c 0
 189 230 185 160 185 130 c 0
 185 66 216 33 281 33 c 0
 334 33 382 72 403 119 c 1
 431 103 l 1
EndSplineSet
EndChar

StartChar: zeta
Encoding: 950 950 530
Width: 495
Flags: MW
LayerCount: 2
Fore
SplineSet
476 0 m 0
 476 -108 390 -180 285 -180 c 0
 256 -180 204 -170 204 -132 c 0
 204 -100 224 -85 255 -85 c 0
 292 -85 326 -104 363 -104 c 0
 392 -104 429 -87 429 -53 c 0
 429 -6 392 0 353 0 c 0
 321 0 289 -4 257 -4 c 0
 111 -4 69 79 69 217 c 0
 69 333 108 449 184 537 c 1
 127 547 47 584 47 652 c 0
 47 712 121 735 170 735 c 0
 185 735 201 734 216 733 c 1
 216 706 l 1
 174 706 120 692 120 640 c 0
 120 596 171 568 209 561 c 1
 247 597 294 634 349 634 c 0
 382 634 424 622 424 582 c 0
 424 527 333 521 294 521 c 0
 271 521 249 524 227 528 c 1
 161 455 122 359 122 260 c 0
 122 174 155 141 239 141 c 0
 273 141 306 145 340 145 c 0
 427 145 476 84 476 0 c 0
EndSplineSet
EndChar

StartChar: eta
Encoding: 951 951 531
Width: 605
Flags: MW
LayerCount: 2
Fore
SplineSet
529 -231 m 1
 374 -231 l 1
 374 327 l 2
 374 356 374 406 334 406 c 0
 282 406 250 321 250 278 c 2
 250 0 l 1
 96 0 l 1
 96 374 l 2
 96 390 94 411 73 411 c 0
 49 411 39 353 38 335 c 1
 9 335 l 1
 9 401 59 474 130 474 c 0
 216 474 233 415 240 342 c 1
 242 342 l 1
 263 419 326 474 407 474 c 0
 476 474 529 429 529 358 c 2
 529 -231 l 1
EndSplineSet
EndChar

StartChar: theta
Encoding: 952 952 532
Width: 550
Flags: MW
LayerCount: 2
Fore
SplineSet
501 342 m 0
 501 207 444 -13 275 -13 c 0
 107 -13 50 208 50 342 c 0
 50 475 108 696 275 696 c 0
 443 696 501 476 501 342 c 0
337 382 m 1
 337 434 338 486 338 539 c 0
 338 582 336 667 275 667 c 0
 215 667 213 581 213 539 c 0
 213 487 214 434 214 382 c 1
 337 382 l 1
337 337 m 1
 214 337 l 1
 214 273 213 208 213 144 c 0
 213 102 215 16 275 16 c 0
 336 16 338 101 338 144 c 0
 338 209 337 273 337 337 c 1
EndSplineSet
EndChar

StartChar: iota
Encoding: 953 953 533
Width: 330
Flags: MW
LayerCount: 2
Fore
SplineSet
318 148 m 1
 318 55 279 -13 178 -13 c 0
 110 -13 65 39 65 105 c 2
 65 461 l 1
 220 461 l 1
 220 78 l 2
 220 64 223 45 241 45 c 0
 286 45 289 116 289 148 c 1
 318 148 l 1
EndSplineSet
EndChar

StartChar: kappa
Encoding: 954 954 534
Width: 608
Flags: MW
LayerCount: 2
Fore
SplineSet
213 273 m 1
 379 436 444 486 501 486 c 0
 534 486 560 460 560 427 c 0
 560 394 534 368 501 368 c 0
 461 368 452 402 423 402 c 0
 388 402 322 329 297 304 c 1
 477 78 l 2
 508 39 525 17 579 17 c 1
 579 0 l 1
 286 0 l 1
 286 17 l 1
 298 17 330 17 330 35 c 0
 330 50 230 167 213 187 c 1
 213 0 l 1
 58 0 l 1
 59 371 l 1
 59 401 51 420 17 420 c 1
 17 447 l 1
 84 448 150 459 213 481 c 1
 213 273 l 1
EndSplineSet
EndChar

StartChar: lambda
Encoding: 955 955 535
Width: 495
Flags: MW
LayerCount: 2
Fore
SplineSet
486 147 m 2
 486 93 477 -13 402 -13 c 0
 356 -13 342 42 333 76 c 2
 282 273 l 1
 280 273 l 1
 175 0 l 1
 12 0 l 1
 225 499 l 1
 215 534 202 599 154 599 c 0
 109 599 86 558 82 519 c 1
 53 519 l 1
 55 580 74 694 155 694 c 0
 225 694 242 570 255 520 c 2
 352 150 l 1
 359 121 369 82 406 82 c 0
 444 82 457 132 457 161 c 1
 486 161 l 1
 486 147 l 2
EndSplineSet
EndChar

StartChar: uni03BC
Encoding: 956 956 536
Width: 605
Flags: MW
LayerCount: 2
Fore
SplineSet
49 -151 m 0
 49 -82 67 -48 67 193 c 0
 67 283 65 372 65 461 c 1
 220 461 l 1
 220 131 l 2
 220 98 223 58 266 58 c 0
 337 58 344 199 344 249 c 2
 344 461 l 1
 498 461 l 1
 498 88 l 2
 498 73 498 50 519 50 c 0
 549 50 557 109 558 131 c 1
 587 131 l 1
 580 60 542 -13 461 -13 c 0
 382 -13 358 57 353 124 c 1
 351 124 l 1
 332 51 281 -13 200 -13 c 0
 147 -13 115 17 96 64 c 1
 94 64 l 1
 94 52 l 2
 94 -38 161 -93 161 -152 c 0
 161 -185 143 -215 107 -215 c 0
 72 -215 49 -184 49 -151 c 0
EndSplineSet
EndChar

StartChar: nu
Encoding: 957 957 537
Width: 495
Flags: MW
LayerCount: 2
Fore
SplineSet
472 422 m 0
 472 356 279 62 265 -13 c 1
 231 -13 l 1
 220 30 201 70 185 112 c 2
 98 344 l 1
 93 356 83 394 67 394 c 0
 42 394 39 337 38 320 c 1
 9 320 l 1
 10 394 42 474 128 474 c 0
 185 474 213 432 231 384 c 2
 314 160 l 1
 334 205 370 271 370 320 c 0
 370 356 359 391 359 427 c 0
 359 456 390 474 416 474 c 0
 450 474 472 458 472 422 c 0
EndSplineSet
EndChar

StartChar: xi
Encoding: 958 958 538
Width: 495
Flags: MW
LayerCount: 2
Fore
SplineSet
460 -2 m 0
 460 -118 360 -192 257 -192 c 0
 226 -192 176 -187 176 -143 c 0
 176 -102 207 -96 240 -96 c 0
 274 -96 309 -106 344 -106 c 0
 377 -106 422 -88 422 -47 c 0
 422 2 384 5 348 5 c 0
 301 5 255 2 209 2 c 0
 114 2 57 58 57 159 c 0
 57 231 93 300 151 338 c 1
 119 361 103 395 103 435 c 0
 103 483 125 531 161 559 c 1
 122 571 44 605 44 655 c 0
 44 726 108 739 162 739 c 0
 179 739 196 738 214 736 c 1
 214 711 l 1
 208 712 201 714 195 714 c 0
 156 714 121 695 121 649 c 0
 121 618 161 595 185 583 c 1
 226 615 276 641 328 641 c 0
 364 641 421 632 421 583 c 0
 421 538 353 527 320 527 c 0
 277 527 235 535 194 548 c 1
 167 521 141 485 141 444 c 0
 141 412 161 383 186 367 c 1
 230 394 280 408 332 408 c 0
 367 408 432 402 432 352 c 0
 432 301 346 294 310 294 c 0
 266 294 222 304 182 321 c 1
 142 294 115 259 115 207 c 0
 115 151 187 147 225 147 c 0
 259 147 292 152 325 152 c 0
 413 152 460 86 460 -2 c 0
EndSplineSet
EndChar

StartChar: omicron
Encoding: 959 959 539
Width: 550
Flags: MW
LayerCount: 2
Fore
SplineSet
514 231 m 0
 514 92 415 -13 275 -13 c 0
 135 -13 37 93 37 231 c 0
 37 368 136 474 275 474 c 0
 414 474 514 369 514 231 c 0
349 307 m 2
 349 359 346 446 275 446 c 0
 205 446 201 358 201 307 c 2
 201 153 l 2
 201 102 205 16 275 16 c 0
 345 16 349 101 349 153 c 2
 349 307 l 2
EndSplineSet
EndChar

StartChar: pi
Encoding: 960 960 540
Width: 605
Flags: MW
LayerCount: 2
Fore
SplineSet
570 498 m 1
 564 404 567 356 456 353 c 1
 456 263 453 173 453 83 c 0
 453 64 461 40 484 40 c 0
 527 40 531 125 533 155 c 1
 567 155 l 1
 561 62 545 -13 434 -13 c 0
 350 -13 320 51 320 126 c 0
 320 202 325 277 325 353 c 1
 210 353 l 1
 210 314 l 2
 210 242 210 -13 102 -13 c 0
 48 -13 26 36 26 83 c 0
 26 99 27 115 28 131 c 1
 60 131 l 1
 60 111 64 72 91 72 c 0
 175 72 175 295 175 353 c 1
 123 353 l 2
 89 353 73 345 67 310 c 1
 39 310 l 1
 47 443 70 474 206 474 c 0
 302 474 398 464 494 464 c 0
 517 464 540 472 542 498 c 1
 570 498 l 1
EndSplineSet
EndChar

StartChar: rho
Encoding: 961 961 541
Width: 550
Flags: MW
LayerCount: 2
Fore
SplineSet
508 231 m 0
 508 94 416 -13 275 -13 c 0
 241 -13 207 -4 177 13 c 1
 177 -202 l 1
 43 -202 l 1
 43 168 l 2
 43 329 86 474 275 474 c 0
 415 474 508 368 508 231 c 0
371 231 m 0
 371 300 359 446 264 446 c 0
 180 446 177 300 177 241 c 2
 177 52 l 1
 205 31 240 16 275 16 c 0
 367 16 371 167 371 231 c 0
EndSplineSet
EndChar

StartChar: sigma1
Encoding: 962 962 542
Width: 440
Flags: MW
LayerCount: 2
Fore
SplineSet
420 490 m 1
 420 353 373 343 279 343 c 0
 263 343 245 343 226 343 c 0
 149 343 74 329 74 235 c 0
 74 155 128 142 188 142 c 0
 218 142 249 145 275 145 c 0
 365 145 412 87 412 0 c 0
 412 -114 301 -192 194 -192 c 0
 159 -192 114 -180 114 -137 c 0
 114 -101 157 -95 184 -95 c 0
 221 -95 259 -102 296 -102 c 0
 332 -102 364 -84 364 -44 c 0
 364 -7 329 1 291 1 c 0
 263 1 234 -3 216 -3 c 0
 76 -3 40 85 40 214 c 0
 40 324 91 461 221 461 c 0
 261 461 300 458 340 458 c 0
 362 458 391 461 391 489 c 0
 391 490 l 1
 420 490 l 1
EndSplineSet
EndChar

StartChar: sigma
Encoding: 963 963 543
Width: 550
Flags: MW
LayerCount: 2
Fore
SplineSet
537 374 m 1
 486 375 433 376 385 396 c 1
 383 394 l 1
 439 359 487 300 487 231 c 0
 487 89 408 -13 260 -13 c 0
 113 -13 34 90 34 231 c 0
 34 368 135 474 273 474 c 0
 323 474 373 464 423 464 c 0
 461 464 499 467 537 474 c 1
 537 374 l 1
333 263 m 2
 333 314 332 417 260 417 c 0
 190 417 188 320 188 270 c 0
 188 256 187 232 187 205 c 0
 187 125 195 16 260 16 c 0
 332 16 333 145 333 194 c 2
 333 263 l 2
EndSplineSet
EndChar

StartChar: tau
Encoding: 964 964 544
Width: 440
Flags: MW
LayerCount: 2
Fore
SplineSet
423 487 m 2
 423 376 388 355 282 355 c 1
 282 93 l 2
 282 68 284 45 315 45 c 0
 359 45 370 120 371 153 c 1
 400 153 l 1
 400 59 358 -13 256 -13 c 0
 175 -13 138 39 138 116 c 2
 138 361 l 1
 102 361 l 2
 62 361 39 355 37 310 c 1
 8 310 l 1
 11 413 29 474 146 474 c 0
 211 474 277 468 342 468 c 0
 362 468 394 470 394 497 c 0
 394 497 394 498 394 499 c 1
 423 499 l 1
 423 487 l 2
EndSplineSet
EndChar

StartChar: upsilon
Encoding: 965 965 545
Width: 550
Flags: MW
LayerCount: 2
Fore
SplineSet
490 310 m 0
 490 162 443 -13 263 -13 c 0
 153 -13 94 60 94 166 c 2
 94 372 l 2
 94 386 93 417 72 417 c 0
 44 417 37 363 37 343 c 1
 8 343 l 1
 8 423 47 474 130 474 c 0
 234 474 250 380 250 289 c 0
 250 250 247 212 247 183 c 0
 247 129 248 45 321 45 c 0
 397 45 431 114 431 181 c 0
 431 275 359 343 359 408 c 0
 359 438 379 474 413 474 c 0
 489 474 490 370 490 314 c 0
 490 310 l 0
EndSplineSet
EndChar

StartChar: phi
Encoding: 966 966 546
Width: 660
Flags: MW
LayerCount: 2
Fore
SplineSet
622 268 m 0
 622 141 569 25 436 -7 c 1
 436 -211 l 1
 302 -211 l 1
 302 -13 l 1
 159 -11 39 115 39 257 c 0
 39 353 96 474 206 474 c 0
 251 474 280 457 311 426 c 1
 289 400 l 1
 282 412 267 429 252 429 c 0
 192 429 192 308 192 268 c 0
 192 139 203 22 302 22 c 1
 302 248 l 2
 302 359 351 474 478 474 c 0
 588 474 622 358 622 268 c 0
587 265 m 0
 587 319 565 435 494 435 c 0
 440 435 436 368 436 328 c 2
 436 27 l 1
 545 54 587 163 587 265 c 0
EndSplineSet
EndChar

StartChar: chi
Encoding: 967 967 547
Width: 495
Flags: MW
LayerCount: 2
Fore
SplineSet
486 461 m 1
 293 70 l 1
 308 30 343 -105 395 -105 c 0
 439 -105 452 -65 454 -28 c 1
 483 -28 l 1
 479 -90 479 -211 391 -211 c 0
 312 -211 284 -24 271 35 c 1
 269 35 l 1
 164 -196 l 1
 9 -196 l 1
 209 214 l 1
 189 262 160 368 95 368 c 0
 53 368 39 335 39 298 c 1
 10 298 l 1
 10 355 18 474 97 474 c 0
 181 474 211 311 231 250 c 1
 330 461 l 1
 486 461 l 1
EndSplineSet
EndChar

StartChar: psi
Encoding: 968 968 548
Width: 715
Flags: MW
LayerCount: 2
Fore
SplineSet
659 346 m 0
 659 200 600 22 439 -13 c 1
 447 -211 l 1
 346 -211 l 1
 355 -13 l 1
 225 -10 97 50 97 198 c 0
 97 247 98 297 98 346 c 0
 98 364 98 411 71 411 c 0
 40 411 38 363 38 341 c 1
 9 341 l 1
 9 417 43 474 125 474 c 0
 234 474 252 395 252 311 c 0
 252 271 248 230 248 195 c 0
 248 111 262 32 358 16 c 1
 383 578 l 1
 411 578 l 1
 436 16 l 1
 521 34 579 126 579 210 c 0
 579 281 532 343 532 414 c 0
 532 442 549 474 581 474 c 0
 647 474 659 397 659 346 c 0
EndSplineSet
EndChar

StartChar: omega
Encoding: 969 969 549
Width: 715
Flags: MW
LayerCount: 2
Fore
SplineSet
680 246 m 0
 680 130 638 -13 498 -13 c 0
 416 -13 376 25 358 104 c 1
 356 104 l 1
 338 26 300 -13 217 -13 c 0
 77 -13 35 130 35 246 c 0
 35 387 122 474 263 474 c 1
 263 440 l 17
 196 440 189 369 189 318 c 2
 189 160 l 2
 189 121 191 22 248 22 c 0
 310 22 321 80 321 130 c 0
 321 196 289 257 289 323 c 0
 289 367 312 392 357 392 c 0
 403 392 426 369 426 323 c 0
 426 257 394 196 394 130 c 0
 394 80 405 22 467 22 c 0
 524 22 526 121 526 160 c 2
 526 318 l 2
 526 370 520 440 451 440 c 1
 451 474 l 1
 593 474 680 388 680 246 c 0
EndSplineSet
EndChar

StartChar: iotadieresis
Encoding: 970 970 550
Width: 330
Flags: MW
LayerCount: 2
Fore
SplineSet
307 621 m 0
 307 587 278 557 244 557 c 0
 209 557 180 586 180 621 c 0
 180 655 210 684 244 684 c 0
 278 684 307 655 307 621 c 0
127 621 m 0
 127 586 98 557 63 557 c 0
 29 557 0 587 0 621 c 0
 0 655 29 684 63 684 c 0
 97 684 127 655 127 621 c 0
318 148 m 1
 318 55 279 -13 178 -13 c 0
 110 -13 65 39 65 105 c 2
 65 461 l 1
 220 461 l 1
 220 78 l 2
 220 64 223 45 241 45 c 0
 286 45 289 116 289 148 c 1
 318 148 l 1
EndSplineSet
EndChar

StartChar: upsilondieresis
Encoding: 971 971 551
Width: 550
Flags: MW
LayerCount: 2
Fore
SplineSet
452 621 m 0
 452 587 423 557 389 557 c 0
 355 557 326 587 326 621 c 0
 326 655 355 684 389 684 c 0
 423 684 452 655 452 621 c 0
245 621 m 0
 245 586 216 557 181 557 c 0
 147 557 118 587 118 621 c 0
 118 655 147 684 181 684 c 0
 215 684 245 655 245 621 c 0
490 310 m 0
 490 162 443 -13 263 -13 c 0
 153 -13 94 60 94 166 c 2
 94 372 l 2
 94 386 93 417 72 417 c 0
 44 417 37 363 37 343 c 1
 8 343 l 1
 8 423 47 474 130 474 c 0
 234 474 250 380 250 289 c 0
 250 250 247 212 247 183 c 0
 247 129 248 45 321 45 c 0
 397 45 431 114 431 181 c 0
 431 275 359 343 359 408 c 0
 359 438 379 474 413 474 c 0
 489 474 490 370 490 314 c 0
 490 310 l 0
EndSplineSet
EndChar

StartChar: uni03D0
Encoding: 976 976 555
Width: 550
Flags: MW
LayerCount: 2
Fore
SplineSet
507 229 m 0
 507 82 417 -13 269 -13 c 0
 82 -13 44 160 44 312 c 0
 44 490 138 727 348 727 c 0
 398 727 460 703 460 644 c 0
 460 524 216 493 128 492 c 1
 116 436 108 380 106 323 c 1
 108 323 l 1
 150 395 209 435 294 435 c 0
 415 435 507 352 507 229 c 0
376 635 m 0
 376 670 345 687 314 687 c 0
 231 687 159 593 137 521 c 1
 200 522 376 551 376 635 c 0
348 256 m 0
 348 310 343 400 269 400 c 0
 190 400 188 294 188 237 c 2
 188 158 l 2
 188 108 195 16 263 16 c 0
 344 16 348 134 348 256 c 0
EndSplineSet
EndChar

StartChar: theta1
Encoding: 977 977 556
Width: 605
Flags: MW
LayerCount: 2
Fore
SplineSet
592 329 m 1
 563 329 l 1
 563 369 561.5 415 512 415 c 1
 513 383 515 351 515 319 c 0
 515 177 470 -13 294 -13 c 0
 179 -13 93 50 93 171 c 2
 93 326 l 2
 93 341 92 364 71 364 c 0
 42 364 37 311 37 290 c 1
 8 290 l 1
 8 367 44 417 125 417 c 0
 230.982 417 247.025 325.117 247.025 235.245 c 0
 247.025 196.222 244 157.578 244 127 c 0
 244 88 244 16 299 16 c 0
 356 16 360 130 360 170 c 2
 360 415 l 1
 261 415 153 468 153 580 c 0
 153 667 221 727 306 727 c 0
 451 727 503 563 511 444 c 1
 580 444 592 385 592 329 c 1
360 444 m 1
 360 479 l 2
 360 542.5 355 698 301 698 c 0
 251 698 243 634 243 596 c 0
 243 523 275 444 360 444 c 1
EndSplineSet
EndChar

StartChar: Upsilon1
Encoding: 978 978 557
Width: 722
Flags: MW
LayerCount: 2
Fore
SplineSet
709 584 m 0
 709 549 680 519 645 519 c 0
 610 519 581 548 581 583 c 0
 581 617.412 603.143 638.703 634.802 638.703 c 0
 638.103 638.703 641.507 638.472 645 638 c 1
 637 643 628 644 619 644 c 0
 479 644 441 461 441 351 c 2
 441 82 l 2
 441 24 484 18 531 18 c 1
 531 0 l 1
 187 0 l 1
 187 18 l 1
 234 18 277 24 277 82 c 2
 277 352 l 2
 277 467 249 573 130 615 c 0
 112 621 17 636 17 653 c 0
 17 670 52 670 63 670 c 0
 213 670 349 569 396 427 c 1
 411 537 490 676 615 676 c 0
 675 676 709 644 709 584 c 0
EndSplineSet
EndChar

StartChar: uni03D3
Encoding: 979 979 558
Width: 782
Flags: MW
LayerCount: 2
Fore
SplineSet
762 584 m 0
 762 549 733 519 698 519 c 0
 663 519 634 548 634 583 c 0
 634 617.412 656.143 638.703 687.802 638.703 c 0
 691.103 638.703 694.507 638.472 698 638 c 1
 690 643 681 644 672 644 c 0
 532 644 494 461 494 351 c 2
 494 82 l 2
 494 24 537 18 584 18 c 1
 584 0 l 1
 240 0 l 1
 240 18 l 1
 287 18 330 24 330 82 c 2
 330 352 l 2
 330 462.576 304.113 564.831 196.333 609.872 c 1
 191.653 592.033 177.455 583.159 158 571 c 2
 16 483 l 1
 -40 483 l 1
 94.5409 637.182 l 1
 80.1963 642.076 70 647.431 70 653 c 0
 70 670 105 670 116 670 c 0
 129.183 670 142.257 669.22 155.173 667.701 c 0
 156.344 667.588 157.542 667.442 158.76 667.259 c 0
 291.3 650.224 406.513 555.364 449 427 c 1
 464 537 543 676 668 676 c 0
 728 676 762 644 762 584 c 0
EndSplineSet
EndChar

StartChar: phi1
Encoding: 981 981 560
Width: 660
Flags: MW
LayerCount: 2
Fore
SplineSet
617 224 m 0
 617 83 502 -5 369 -13 c 1
 376 -211 l 1
 284 -211 l 1
 291 -13 l 1
 158 -5 44 84 44 224 c 0
 44 372 170 469 310 474 c 1
 316 676 l 1
 345 676 l 1
 350 474 l 1
 490 469 617 372 617 224 c 0
462 231 m 0
 462 310 456 438 352 446 c 1
 367 16 l 1
 458 26 462 163 462 231 c 0
308 446 m 1
 204 438 198 310 198 231 c 0
 198 163 203 26 293 16 c 1
 308 446 l 1
EndSplineSet
EndChar

StartChar: omega1
Encoding: 982 982 561
Width: 715
Flags: MW
LayerCount: 2
Fore
SplineSet
680 246 m 0
 680 130 638 -13 498 -13 c 0
 416 -13 376 25 358 104 c 1
 356 104 l 1
 339 25 299 -13 217 -13 c 0
 77 -13 35 130 35 246 c 0
 35 317 59 390 119 433 c 1
 89 429 64 412 41 394 c 1
 25 394 l 1
 47 449 91 547 161 547 c 2
 675 547 l 1
 675 440 l 1
 586 440 l 1
 652 398 680 322 680 246 c 0
526 160 m 2
 526 318 l 2
 526 362 521 440 461 440 c 2
 253 440 l 2
 194 440 189 361 189 318 c 2
 189 160 l 2
 189 121 192 22 248 22 c 0
 310 22 321 80 321 130 c 0
 321 196 289 257 289 323 c 0
 289 367 312 392 357 392 c 0
 403 392 426 369 426 323 c 0
 426 257 394 196 394 130 c 0
 394 80 405 22 467 22 c 0
 523 22 526 121 526 160 c 2
EndSplineSet
EndChar

StartChar: uni03DA
Encoding: 986 986 562
Width: 650
Flags: MW
LayerCount: 2
Fore
SplineSet
621 237 m 1
 596 0 l 1
 348 0 l 1
 348 -131 l 2
 348 -143 350 -155 365 -155 c 0
 387 -155 392 -117 393 -101 c 1
 407 -101 l 1
 407 -147 385 -184 335 -184 c 0
 295 -184 276 -158 276 -120 c 2
 276 0 l 1
 12 0 l 1
 12 33 l 1
 258 305 l 1
 12 628 l 1
 12 673 l 1
 592 673 l 1
 605 478 l 1
 575 478 l 1
 559 587 499 639 389 639 c 2
 210 639 l 1
 384 390 l 1
 162 142 l 1
 440 142 l 2
 512 142 587 147 593 237 c 1
 621 237 l 1
EndSplineSet
EndChar

StartChar: uni03DB
Encoding: 987 987 563
Width: 550
Flags: MW
LayerCount: 2
Fore
SplineSet
508 490 m 1
 508 397 473 341 374 341 c 0
 337 341 301 344 264 344 c 0
 189 344 76 335 76 235 c 0
 76 148 155 142 222 142 c 2
 498 142 l 1
 478 -219 l 1
 369 -219 l 1
 381 0 l 1
 208 0 l 2
 83 0 33 103 33 214 c 0
 33 349 117 461 259 461 c 0
 309 461 358 458 408 458 c 0
 431 458 472 458 473 490 c 1
 508 490 l 1
EndSplineSet
EndChar

StartChar: uni03DC
Encoding: 988 988 564
Width: 611
Flags: MW
LayerCount: 2
Fore
SplineSet
583 475 m 1
 559 475 l 1
 529 623 466 642 325 642 c 0
 289 642 266 638 266 595 c 2
 266 363 l 1
 444 363 l 1
 444 174 l 1
 419 174 l 1
 406 275 377 329 266 329 c 1
 266 96 l 2
 266 24 321 27 376 25 c 1
 376 0 l 1
 16 0 l 1
 16 25 l 1
 68 30 104 33 104 96 c 2
 104 580 l 2
 104 641 68 648 16 651 c 1
 16 676 l 1
 583 676 l 1
 583 475 l 1
EndSplineSet
EndChar

StartChar: uni03DD
Encoding: 989 989 565
Width: 513
Flags: MW
LayerCount: 2
Fore
SplineSet
478 490 m 1
 478 420 460 322 371 322 c 2
 215 322 l 2
 133 322 102 295 99 212 c 2
 94 82 l 1
 115.946 161.738 173.748 172.441 237.652 172.441 c 0
 261.103 172.441 285.376 171 309 171 c 0
 322 171 342 174.667 342 192 c 1
 367 192 l 1
 367 44.5 330 43 161 43 c 0
 128 43 94 39 94 -2 c 0
 94 -46 161 -92 161 -152 c 0
 161 -185 143 -215 107 -215 c 0
 72 -215 49 -184 49 -151 c 0
 49 -114 56 -78 59 -42 c 0
 64.4444 21.7778 65.0494 84.9506 65.0494 148.46 c 0
 65.0494 166.605 65 184.778 65 203 c 0
 65 457 150 458 398 458 c 0
 420 458 449 461 449 490 c 1
 478 490 l 1
EndSplineSet
EndChar

StartChar: afii10060
Encoding: 1035 1035 566
Width: 932
Flags: MW
LayerCount: 2
Fore
SplineSet
415 330 m 1
 415 117 l 2
 415 41 426 31 513 25 c 1
 513 0 l 1
 156 0 l 1
 156 25 l 1
 242 32 253 43 253 117 c 2
 253 644 l 1
 129 640 77 594 60 475 c 1
 31 475 l 1
 34 676 l 1
 634 676 l 1
 636 475 l 1
 607 475 l 1
 590 594 538 640 415 644 c 1
 415 387 l 1
 436 416 498 437 558 437 c 0
 666 437 818 420 818 313 c 2
 818 96 l 2
 818 46 836 31 903 25 c 1
 903 0 l 1
 566 0 l 1
 566 25 l 1
 636 30 656 46 656 96 c 2
 656 315 l 2
 656 366 604 383 540 383 c 0
 487 383 438 364 415 330 c 1
EndSplineSet
EndChar

StartChar: afii10145
Encoding: 1039 1039 570
Width: 778
Flags: MW
LayerCount: 2
Fore
SplineSet
271 47 m 1
 512 47 l 1
 512 580 l 2
 512 629 495 643 422 651 c 1
 422 676 l 1
 759 676 l 1
 759 651 l 1
 689 642 674 629 674 580 c 2
 674 96 l 2
 674 46 692 31 759 25 c 1
 759 0 l 1
 480 0 l 1
 454 -68 446 -228 446 -228 c 1
 340 -228 l 1
 340 -228 332 -68 302 0 c 1
 21 0 l 1
 21 25 l 1
 89 30 109 46 109 96 c 2
 109 580 l 2
 109 629 93 642 21 651 c 1
 21 676 l 1
 361 676 l 1
 361 651 l 1
 288 643 271 629 271 580 c 2
 271 47 l 1
EndSplineSet
EndChar

StartChar: afii10018
Encoding: 1041 1041 572
Width: 667
Flags: MW
LayerCount: 2
Fore
SplineSet
264 374 m 1
 264 93 l 2
 264 49 281 32 325 32 c 0
 406 32 447 102 447 199 c 0
 447 308 389 383 296 383 c 0
 295 383 295 383 294 383 c 0
 281 383 272 380 264 374 c 1
559 475 m 1
 539 566 525 642 330 642 c 0
 279 642 264 632 264 595 c 2
 264 413 l 1
 302 422 314 425 378 425 c 0
 379 425 381 425 382 425 c 0
 535 425 619 366 619 213 c 0
 619 57 507 0 338 0 c 2
 16 0 l 1
 16 25 l 1
 89 33 104 45 104 96 c 2
 104 580 l 2
 104 631 85 647 16 651 c 1
 16 676 l 1
 583 676 l 1
 583 475 l 1
 559 475 l 1
EndSplineSet
EndChar

StartChar: afii10020
Encoding: 1043 1043 574
Width: 591
Flags: MW
LayerCount: 2
Fore
SplineSet
539 475 m 1
 504 634 427 642 330 642 c 0
 279 642 266 620 266 583 c 2
 266 96 l 2
 266 41 284 29 376 25 c 1
 376 0 l 1
 16 0 l 1
 16 25 l 1
 90 33 104 44 104 96 c 2
 104 580 l 2
 104 632 85 647 16 651 c 1
 16 676 l 1
 563 676 l 1
 563 475 l 1
 539 475 l 1
EndSplineSet
EndChar

StartChar: afii10021
Encoding: 1044 1044 575
Width: 778
Flags: MW
LayerCount: 2
Fore
SplineSet
274 0 m 2
 72 0 74 -71 45 -200 c 1
 21 -200 l 1
 21 34 l 1
 89 39 119 28 158 66 c 0
 230 137 232 297 232 355 c 2
 232 580 l 2
 232 630 214 645 147 651 c 1
 147 676 l 1
 759 676 l 1
 759 651 l 1
 691 646 671 630 671 580 c 2
 671 105 l 2
 671 55 691 39 759 34 c 1
 759 -200 l 1
 735 -200 l 1
 706 -70 708 0 506 0 c 2
 274 0 l 2
319 341 m 2
 319 135 260 93 260 59 c 0
 260 52 265 47 278 47 c 2
 423 47 l 2
 489 47 509 70 509 118 c 2
 509 629 l 1
 319 629 l 1
 319 341 l 2
EndSplineSet
EndChar

StartChar: afii10024
Encoding: 1046 1046 577
Width: 1107
Flags: MW
LayerCount: 2
Fore
SplineSet
89 616 m 0
 89 672 145 685 185 685 c 0
 254 685 305 626 311 578 c 0
 326 460 400 372 444 372 c 2
 473 372 l 1
 473 557 l 2
 473 628 455 647 386 651 c 1
 386 676 l 1
 724 676 l 1
 724 651 l 1
 650 646 635 630 635 559 c 2
 635 372 l 1
 664 372 l 2
 708 372 782 460 797 578 c 0
 803 626 854 685 923 685 c 0
 963 685 1019 671 1019 616 c 0
 1019 565 995 556 956 556 c 0
 888 556 908 583 865 583 c 0
 833 583 841 418 749 352 c 1
 781 349 838 329 866 286 c 2
 1024 46 l 2
 1035 29 1048 26 1073 25 c 1
 1073 0 l 1
 875 0 l 1
 718 254 l 2
 693 294 682 318 654 318 c 2
 635 318 l 1
 635 96 l 2
 635 47 651 34 723 25 c 1
 723 0 l 1
 386 0 l 1
 386 25 l 1
 458 33 473 45 473 96 c 2
 473 318 l 1
 454 318 l 2
 426 318 415 294 390 254 c 2
 233 0 l 1
 35 0 l 1
 35 25 l 1
 60 26 73 29 84 46 c 2
 242 286 l 2
 271 328 327 349 359 352 c 1
 267 418 275 583 243 583 c 0
 200 583 220 556 152 556 c 0
 113 556 89 565 89 616 c 0
EndSplineSet
EndChar

StartChar: afii10025
Encoding: 1047 1047 578
Width: 564
Flags: MW
LayerCount: 2
Fore
SplineSet
260 691 m 0
 400 691 513 617 513 495 c 0
 513 397 460 370 423 358 c 1
 472 344 546 308 546 181 c 0
 546 34 389 -19 238 -19 c 0
 84 -19 35 68 -1 135 c 1
 37 168 l 1
 81 102 133 55 213 55 c 0
 306 55 373 94 373 181 c 0
 373 228 363 325 223 325 c 2
 165 325 l 1
 165 383 l 1
 226 383 l 2
 336 383 352 434 352 516 c 0
 352 584 311 632 232 632 c 0
 138 632 101 575 78 475 c 1
 41 475 l 1
 41 688 l 1
 74 688 l 1
 82 666 91 658 109 658 c 0
 142 658 196 691 260 691 c 0
EndSplineSet
EndChar

StartChar: afii10026
Encoding: 1048 1048 579
Width: 773
Flags: MW
LayerCount: 2
Fore
SplineSet
504 456 m 1
 263 176 l 1
 263 96 l 2
 263 47 280 33 353 25 c 1
 353 0 l 1
 16 0 l 1
 16 25 l 1
 86 34 101 47 101 96 c 2
 101 580 l 2
 101 630 83 645 16 651 c 1
 16 676 l 1
 353 676 l 1
 353 651 l 1
 283 646 263 630 263 580 c 2
 263 243 l 1
 504 523 l 1
 504 580 l 2
 504 630 484 646 414 651 c 1
 414 676 l 1
 754 676 l 1
 754 651 l 1
 686 646 666 630 666 580 c 2
 666 96 l 2
 666 47 682 34 754 25 c 1
 754 0 l 1
 414 0 l 1
 414 25 l 1
 487 33 504 47 504 96 c 2
 504 456 l 1
EndSplineSet
EndChar

StartChar: afii10028
Encoding: 1050 1050 581
Width: 764
Flags: MW
LayerCount: 2
Fore
SplineSet
664 616 m 0
 664 565 640 556 601 556 c 0
 533 556 553 583 510 583 c 0
 478 583 486 418 394 352 c 1
 426 349 483 329 511 286 c 0
 669 46 l 1
 682 31 693 26 718 25 c 1
 718 0 l 1
 520 0 l 1
 360 254 l 1
 332 292 320 318 292 318 c 2
 265 318 l 1
 265 96 l 2
 265 47 281 34 353 25 c 1
 353 0 l 1
 16 0 l 1
 16 25 l 1
 88 33 103 45 103 96 c 2
 103 580 l 2
 103 632 85 647 16 651 c 1
 16 676 l 1
 354 676 l 1
 354 651 l 1
 280 646 265 630 265 559 c 2
 265 371 l 1
 302 372 l 2
 346 373 427 460 442 578 c 0
 448 626 499 685 568 685 c 0
 608 685 664 671 664 616 c 0
EndSplineSet
EndChar

StartChar: afii10029
Encoding: 1051 1051 582
Width: 778
Flags: MW
LayerCount: 2
Fore
SplineSet
494 629 m 1
 319 629 l 1
 319 302 l 2
 319 151 304 -14 112 -14 c 0
 67 -14 18 0 18 48 c 0
 18 85 43 118 80 118 c 0
 130 118 121 66 158 66 c 0
 216 66 232 152 232 341 c 2
 232 580 l 2
 232 630 214 645 147 651 c 1
 147 676 l 1
 744 676 l 1
 744 651 l 1
 676 646 656 630 656 580 c 2
 656 96 l 2
 656 47 672 34 744 25 c 1
 744 0 l 1
 404 0 l 1
 404 25 l 1
 477 33 494 47 494 96 c 2
 494 629 l 1
EndSplineSet
EndChar

StartChar: afii10033
Encoding: 1055 1055 586
Width: 774
Flags: MW
LayerCount: 2
Fore
SplineSet
504 629 m 1
 263 629 l 1
 263 96 l 2
 263 47 280 33 353 25 c 1
 353 0 l 1
 16 0 l 1
 16 25 l 1
 86 34 101 47 101 96 c 2
 101 580 l 2
 101 630 83 645 16 651 c 1
 16 676 l 1
 754 676 l 1
 754 651 l 1
 686 646 666 630 666 580 c 2
 666 96 l 2
 666 47 682 34 754 25 c 1
 754 0 l 1
 414 0 l 1
 414 25 l 1
 487 33 504 47 504 96 c 2
 504 629 l 1
EndSplineSet
EndChar

StartChar: afii10037
Encoding: 1059 1059 590
Width: 722
Flags: MW
LayerCount: 2
Fore
SplineSet
236 45 m 0
 251 45 295 84 295 115 c 0
 295 118 295 120 294 122 c 0
 95 593 l 2
 74 643 51 648 15 651 c 1
 15 676 l 1
 335 676 l 1
 335 651 l 1
 321 650 309 649 304 649 c 0
 268 647 256 639 256 618 c 1
 395 289 l 1
 503 502 l 1
 534 557 537 581 537 598 c 0
 537 604 537 609 537 614 c 0
 537 649 503 646 461 651 c 1
 461 676 l 1
 714 676 l 1
 714 651 l 1
 640 644 619 616 560 499 c 0
 326 34 l 2
 309 0 249 -14 192 -14 c 0
 108 -14 86 12 86 52 c 0
 86 90 113 120 151 120 c 0
 239 120 194 45 236 45 c 0
EndSplineSet
EndChar

StartChar: afii10038
Encoding: 1060 1060 591
Width: 800
Flags: MW
LayerCount: 2
Fore
SplineSet
318 522 m 1
 274 522 154 493 154 339 c 0
 154 169 254 145 314 145 c 0
 315 145 317 145 318 145 c 1
 318 522 l 1
223 25 m 1
 299 30 318 44 318 91 c 1
 208 91 12 127 12 347 c 0
 12 569 278 585 318 585 c 1
 318 632 297 648 223 651 c 1
 223 676 l 1
 573 676 l 1
 573 651 l 1
 499 648 478 632 478 585 c 1
 518 585 784 569 784 347 c 0
 784 127 588 91 478 91 c 1
 478 44 497 30 573 25 c 1
 573 0 l 1
 223 0 l 1
 223 25 l 1
478 522 m 1
 478 145 l 1
 479 145 481 145 482 145 c 0
 542 145 642 169 642 339 c 0
 642 493 522 522 478 522 c 1
EndSplineSet
EndChar

StartChar: afii10040
Encoding: 1062 1062 593
Width: 773
Flags: MW
LayerCount: 2
Fore
SplineSet
730 -200 m 1
 701 -70 703 0 501 0 c 2
 16 0 l 1
 16 25 l 1
 83 31 101 46 101 96 c 2
 101 580 l 2
 101 629 86 642 16 651 c 1
 16 676 l 1
 353 676 l 1
 353 651 l 1
 280 643 263 629 263 580 c 2
 263 47 l 1
 504 47 l 1
 504 580 l 2
 504 629 487 643 414 651 c 1
 414 676 l 1
 754 676 l 1
 754 651 l 1
 682 642 666 629 666 580 c 2
 666 105 l 2
 666 55 686 39 754 34 c 1
 754 -200 l 1
 730 -200 l 1
EndSplineSet
EndChar

StartChar: afii10041
Encoding: 1063 1063 594
Width: 778
Flags: MW
LayerCount: 2
Fore
SplineSet
509 275 m 1
 486 256 426 225 366 225 c 0
 258 225 106 275 106 349 c 2
 106 580 l 2
 106 630 88 645 21 651 c 1
 21 676 l 1
 358 676 l 1
 358 651 l 1
 288 646 268 630 268 580 c 2
 268 347 l 2
 268 302 320 279 384 279 c 0
 437 279 492 312 509 332 c 1
 509 580 l 2
 509 630 489 646 419 651 c 1
 419 676 l 1
 759 676 l 1
 759 651 l 1
 691 646 671 630 671 580 c 2
 671 96 l 2
 671 47 687 34 759 25 c 1
 759 0 l 1
 419 0 l 1
 419 25 l 1
 492 33 509 47 509 96 c 2
 509 275 l 1
EndSplineSet
EndChar

StartChar: afii10042
Encoding: 1064 1064 595
Width: 1113
Flags: MW
LayerCount: 2
Fore
SplineSet
635 47 m 1
 843 47 l 1
 843 580 l 2
 843 629 826 643 753 651 c 1
 753 676 l 1
 1093 676 l 1
 1093 651 l 1
 1021 642 1005 629 1005 580 c 2
 1005 96 l 2
 1005 46 1025 30 1093 25 c 1
 1093 0 l 1
 16 0 l 1
 16 25 l 1
 83 31 101 46 101 96 c 2
 101 580 l 2
 101 629 86 642 16 651 c 1
 16 676 l 1
 353 676 l 1
 353 651 l 1
 280 643 263 629 263 580 c 2
 263 47 l 1
 473 47 l 1
 473 580 l 2
 473 629 456 643 383 651 c 1
 383 676 l 1
 723 676 l 1
 723 651 l 1
 651 642 635 629 635 580 c 2
 635 47 l 1
EndSplineSet
EndChar

StartChar: afii10043
Encoding: 1065 1065 596
Width: 1112
Flags: MW
LayerCount: 2
Fore
SplineSet
1069 -200 m 1
 1040 -70 1042 0 840 0 c 2
 16 0 l 1
 16 25 l 1
 83 31 101 46 101 96 c 2
 101 580 l 2
 101 629 86 642 16 651 c 1
 16 676 l 1
 353 676 l 1
 353 651 l 1
 280 643 263 629 263 580 c 2
 263 47 l 1
 473 47 l 1
 473 580 l 2
 473 629 456 643 383 651 c 1
 383 676 l 1
 723 676 l 1
 723 651 l 1
 651 642 635 629 635 580 c 2
 635 47 l 1
 843 47 l 1
 843 580 l 2
 843 629 826 643 753 651 c 1
 753 676 l 1
 1093 676 l 1
 1093 651 l 1
 1021 642 1005 629 1005 580 c 2
 1005 105 l 2
 1005 55 1025 39 1093 34 c 1
 1093 -200 l 1
 1069 -200 l 1
EndSplineSet
EndChar

StartChar: afii10044
Encoding: 1066 1066 597
Width: 867
Flags: MW
LayerCount: 2
Fore
SplineSet
223 0 m 1
 223 25 l 1
 293 31 307 47 307 117 c 2
 307 644 l 1
 183 640 131 594 114 475 c 1
 85 475 l 1
 88 676 l 1
 557 676 l 1
 557 651 l 1
 478 641 469 632 469 559 c 2
 469 393 l 1
 604 392 638 389 682 371 c 0
 763 340 807 269 807 192 c 0
 807 76 712 0 545 0 c 2
 223 0 l 1
469 70 m 2
 469 47 486 35 519 35 c 0
 602 35 635 89 635 197 c 0
 635 343 555 346 469 346 c 1
 469 70 l 2
EndSplineSet
EndChar

StartChar: afii10045
Encoding: 1067 1067 598
Width: 970
Flags: MW
LayerCount: 2
Fore
SplineSet
693 96 m 2
 693 580 l 2
 693 631 672 646 600 651 c 1
 600 676 l 1
 950 676 l 1
 950 651 l 1
 876 648 855 632 855 580 c 2
 855 96 l 2
 855 44 874 30 950 25 c 1
 950 0 l 1
 600 0 l 1
 600 25 l 1
 675 32 693 46 693 96 c 2
262 393 m 1
 397 392 431 389 475 371 c 0
 556 340 600 269 600 192 c 0
 600 76 505 0 338 0 c 2
 16 0 l 1
 16 25 l 1
 86 31 100 47 100 117 c 2
 100 559 l 2
 100 621 87 641 40 647 c 0
 37 647 27 649 16 651 c 1
 16 676 l 1
 350 676 l 1
 350 651 l 1
 271 641 262 632 262 559 c 2
 262 393 l 1
262 70 m 2
 262 47 279 35 312 35 c 0
 395 35 428 89 428 197 c 0
 428 343 348 346 262 346 c 1
 262 70 l 2
EndSplineSet
EndChar

StartChar: afii10046
Encoding: 1068 1068 599
Width: 630
Flags: MW
LayerCount: 2
Fore
SplineSet
262 393 m 1
 397 392 431 389 475 371 c 0
 556 340 600 269 600 192 c 0
 600 76 505 0 338 0 c 2
 16 0 l 1
 16 25 l 1
 86 31 100 47 100 117 c 2
 100 559 l 2
 100 621 87 641 40 647 c 0
 37 647 27 649 16 651 c 1
 16 676 l 1
 350 676 l 1
 350 651 l 1
 271 641 262 632 262 559 c 2
 262 393 l 1
262 70 m 2
 262 47 279 35 312 35 c 0
 395 35 428 89 428 197 c 0
 428 343 348 346 262 346 c 1
 262 70 l 2
EndSplineSet
EndChar

StartChar: afii10047
Encoding: 1069 1069 600
Width: 722
Flags: MW
LayerCount: 2
Fore
SplineSet
79 152 m 1
 149 79 216 29 309 29 c 0
 397 29 508 75 511 326 c 1
 259 326 l 1
 259 373 l 1
 510 373 l 1
 504 559 440 658 326 658 c 0
 186 658 114 502 92 454 c 1
 67 454 l 1
 67 688 l 1
 94 688 l 1
 108 653 119 642 138 642 c 0
 171 642 235 691 339 691 c 0
 538 691 687 537 687 333 c 0
 687 127 540 -19 333 -19 c 0
 169 -19 92 79 49 127 c 1
 79 152 l 1
EndSplineSet
EndChar

StartChar: afii10048
Encoding: 1070 1070 601
Width: 1114
Flags: MW
LayerCount: 2
Fore
SplineSet
359 326 m 1
 263 326 l 1
 263 96 l 2
 263 47 280 33 353 25 c 1
 353 0 l 1
 16 0 l 1
 16 25 l 1
 86 34 101 47 101 96 c 2
 101 580 l 2
 101 630 83 645 16 651 c 1
 16 676 l 1
 353 676 l 1
 353 651 l 1
 283 646 263 630 263 580 c 2
 263 373 l 1
 361 373 l 1
 379 559 522 691 717 691 c 0
 918 691 1067 540 1067 336 c 0
 1067 129 920 -19 713 -19 c 0
 509 -19 363 124 359 326 c 1
716 658 m 0
 599 658 536 542 536 326 c 0
 536 124 598 14 713 14 c 0
 828 14 890 124 890 329 c 0
 890 537 826 658 716 658 c 0
EndSplineSet
EndChar

StartChar: afii10049
Encoding: 1071 1071 602
Width: 735
Flags: MW
LayerCount: 2
Fore
SplineSet
268 329 m 1
 190 354 111 390 111 498 c 0
 111 613 210 676 393 676 c 2
 715 676 l 1
 715 651 l 1
 641 646 627 631 627 559 c 2
 627 117 l 2
 627 44 637 34 715 25 c 1
 715 0 l 1
 377 0 l 1
 377 25 l 1
 455 35 465 46 465 117 c 2
 465 313 l 1
 438 313 l 1
 231 0 l 1
 26 0 l 1
 26 25 l 1
 44 25 58 31 67 44 c 0
 268 329 l 1
465 600 m 2
 465 635 442 642 411 642 c 0
 319 642 282 599 282 494 c 0
 282 373 327 347 465 345 c 1
 465 600 l 2
EndSplineSet
EndChar

StartChar: afii10066
Encoding: 1073 1073 604
Width: 500
Flags: MW
LayerCount: 2
Fore
SplineSet
210 672 m 0
 390 673 l 2
 416 673 434 690 434 690 c 1
 456 690 l 1
 448 626 390 587 342 587 c 2
 194 587 l 2
 112 587 100 464 82 394 c 1
 123 443 183 473 251 473 c 0
 380 473 476 369 476 229 c 0
 476 90 380 -14 251 -14 c 0
 121 -14 29 59 29 292 c 0
 29 293 29 295 29 296 c 0
 29 359 33 671 210 672 c 0
252 442 m 0
 190 442 172 390 172 214 c 0
 172 68 192 17 251 17 c 0
 309 17 329 69 329 223 c 0
 329 387 310 442 252 442 c 0
EndSplineSet
EndChar

StartChar: afii10067
Encoding: 1074 1074 605
Width: 502
Flags: MW
LayerCount: 2
Fore
SplineSet
27 461 m 1
 264 461 l 2
 378 461 441 422 441 351 c 0
 441 300 411 262 332 248 c 1
 400 240 464 212 464 128 c 0
 464 29 388 0 272 0 c 2
 21 0 l 1
 21 25 l 1
 71 30 74 53 74 88 c 2
 74 367 l 2
 74 402 74 434 27 436 c 1
 27 461 l 1
264 41 m 0
 311 41 340 63 340 130 c 0
 340 195 313 219 242 224 c 2
 213 226 l 1
 213 82 l 2
 213 52 234 41 264 41 c 0
213 360 m 2
 213 264 l 1
 275 264 321 275 321 347 c 0
 321 404 296 421 259 421 c 0
 214 421 213 391 213 360 c 2
EndSplineSet
EndChar

StartChar: afii10068
Encoding: 1075 1075 606
Width: 443
Flags: MW
LayerCount: 2
Fore
SplineSet
408 461 m 1
 415 309 l 1
 389 309 l 1
 364 404 354 429 213 429 c 1
 213 81 l 2
 213 44 225 29 262 24 c 1
 262 0 l 1
 21 0 l 1
 21 24 l 1
 66 33 74 42 74 84 c 2
 74 380 l 2
 74 417 61 433 27 437 c 1
 27 461 l 1
 408 461 l 1
EndSplineSet
EndChar

StartChar: afii10069
Encoding: 1076 1076 607
Width: 556
Flags: MW
LayerCount: 2
Fore
SplineSet
24 32 m 1
 108 42 155 58 155 193 c 0
 155 211 154 226 154 237 c 2
 154 380 l 2
 154 417 141 433 107 437 c 1
 107 461 l 1
 539 461 l 1
 539 437 l 1
 500 434 490 422 490 380 c 2
 490 89 l 2
 490 52 503 36 537 32 c 1
 544 -142 l 1
 518 -142 l 1
 493 -48 468 0 331 0 c 0
 330 0 328 0 327 0 c 2
 234 0 l 2
 233 0 231 0 230 0 c 0
 93 0 68 -48 43 -142 c 1
 17 -142 l 1
 24 32 l 1
228 206 m 2
 228 96 206 70 206 52 c 0
 206 40 217 40 228 40 c 2
 304 40 l 2
 338 40 351 60 351 97 c 2
 351 421 l 1
 228 421 l 1
 228 206 l 2
EndSplineSet
EndChar

StartChar: afii10072
Encoding: 1078 1078 609
Width: 750
Flags: MW
LayerCount: 2
Fore
SplineSet
715 414 m 0
 715 385 695 366 668 366 c 0
 626 366 638 396 613 396 c 0
 576 396 585 271 531 243 c 1
 560 242 590 228 607 200 c 2
 706 39 l 2
 714 26 724 24 735 24 c 1
 735 0 l 1
 590 0 l 1
 491 168 l 1
 491 168 469 214 453 214 c 2
 443 214 l 1
 443 84 l 2
 443 37 448 31 495 24 c 1
 495 0 l 1
 256 0 l 1
 256 24 l 1
 289 27 304 45 304 84 c 2
 304 214 l 1
 294 214 l 2
 278 214 256 168 256 168 c 1
 157 0 l 1
 12 0 l 1
 12 24 l 1
 23 24 33 26 41 39 c 2
 140 200 l 2
 157 228 187 242 216 243 c 1
 162 271 171 396 134 396 c 0
 109 396 121 366 79 366 c 0
 52 366 32 385 32 414 c 0
 32 451 48 470 102 470 c 0
 179 470 200 392 205 368 c 0
 213 328 239 261 283 261 c 2
 304 261 l 1
 304 377 l 2
 304 416 289 434 256 437 c 1
 256 461 l 1
 495 461 l 1
 495 437 l 1
 448 430 443 424 443 377 c 2
 443 261 l 1
 464 261 l 2
 508 261 534 328 542 368 c 0
 547 392 568 470 645 470 c 0
 699 470 715 451 715 414 c 0
EndSplineSet
EndChar

StartChar: afii10073
Encoding: 1079 1079 610
Width: 408
Flags: MW
LayerCount: 2
Fore
SplineSet
80 451 m 0
 103 451 140 473 183 473 c 0
 274 473 360 426 360 342 c 0
 360 278 330 251 304 243 c 1
 338 234 383 209 383 122 c 0
 383 18 271 -14 168 -14 c 0
 63 -14 30 45 5 91 c 1
 31 113 l 1
 61 68 97 36 151 36 c 0
 215 36 260 63 260 122 c 0
 260 154 253 220 158 220 c 2
 118 220 l 1
 118 260 l 1
 160 260 l 2
 235 260 246 298 246 354 c 0
 246 400 218 435 164 435 c 0
 100 435 75 394 59 326 c 1
 34 326 l 1
 34 471 l 1
 56 471 l 1
 62 456 68 451 80 451 c 0
EndSplineSet
EndChar

StartChar: afii10074
Encoding: 1080 1080 611
Width: 574
Flags: MW
LayerCount: 2
Fore
SplineSet
367 81 m 2
 367 277 l 1
 213 136 l 1
 213 81 l 2
 213 44 225 29 262 24 c 1
 262 0 l 1
 21 0 l 1
 21 24 l 1
 66 33 74 42 74 84 c 2
 74 380 l 2
 74 417 61 433 27 437 c 1
 27 461 l 1
 262 461 l 1
 262 437 l 1
 223 434 213 422 213 380 c 2
 213 195 l 1
 367 336 l 1
 367 380 l 2
 367 422 357 434 318 437 c 1
 318 461 l 1
 553 461 l 1
 553 437 l 1
 514 434 504 422 504 380 c 2
 504 81 l 2
 504 39 514 27 553 24 c 1
 553 0 l 1
 318 0 l 1
 318 24 l 1
 352 28 367 44 367 81 c 2
EndSplineSet
EndChar

StartChar: afii10076
Encoding: 1082 1082 613
Width: 534
Flags: MW
LayerCount: 2
Fore
SplineSet
491 414 m 0
 491 385 471 366 444 366 c 0
 402 366 414 396 389 396 c 0
 352 396 351 271 297 243 c 1
 326 242 365 228 383 200 c 0
 485 39 l 2
 493 26 503 24 514 24 c 1
 514 0 l 1
 366 0 l 1
 264 168 l 1
 264 168 235 214 219 214 c 2
 209 214 l 1
 209 84 l 2
 209 37 214 31 261 24 c 1
 261 0 l 1
 22 0 l 1
 22 24 l 1
 55 27 70 45 70 84 c 2
 70 377 l 2
 70 416 55 434 22 437 c 1
 22 461 l 1
 261 461 l 1
 261 437 l 1
 214 430 209 424 209 377 c 2
 209 261 l 1
 230 261 l 2
 284 261 310 330 318 368 c 0
 323 392 344 470 421 470 c 0
 475 470 491 451 491 414 c 0
EndSplineSet
EndChar

StartChar: afii10077
Encoding: 1083 1083 614
Width: 544
Flags: MW
LayerCount: 2
Fore
SplineSet
331 421 m 1
 228 421 l 1
 228 258 l 2
 228 56 211 -10 76 -10 c 0
 43 -10 7 0 7 34 c 0
 7 60 23 82 49 82 c 0
 79 82 82 55 108 55 c 0
 150 55 154 139 154 196 c 0
 154 210 154 223 154 232 c 2
 154 380 l 2
 154 417 141 433 107 437 c 1
 107 461 l 1
 519 461 l 1
 519 437 l 1
 480 434 470 422 470 380 c 2
 470 81 l 2
 470 39 480 27 519 24 c 1
 519 0 l 1
 284 0 l 1
 284 24 l 1
 318 28 331 44 331 81 c 2
 331 421 l 1
EndSplineSet
EndChar

StartChar: afii10078
Encoding: 1084 1084 615
Width: 676
Flags: MW
LayerCount: 2
Fore
SplineSet
463 81 m 2
 463 382 l 1
 303 -14 l 1
 277 -14 l 1
 112 399 l 1
 112 81 l 2
 112 44 124 29 161 24 c 1
 161 0 l 1
 21 0 l 1
 21 24 l 1
 66 33 74 42 74 84 c 2
 74 380 l 2
 74 417 61 433 27 437 c 1
 27 461 l 1
 233 461 l 1
 342 177 l 1
 454 461 l 1
 650 461 l 1
 650 437 l 1
 611 434 601 422 601 380 c 2
 601 81 l 2
 601 39 611 27 650 24 c 1
 650 0 l 1
 414 0 l 1
 414 24 l 1
 448 28 463 44 463 81 c 2
EndSplineSet
EndChar

StartChar: afii10079
Encoding: 1085 1085 616
Width: 556
Flags: MW
LayerCount: 2
Fore
SplineSet
353 81 m 2
 353 216 l 1
 213 216 l 1
 213 81 l 2
 213 44 225 29 262 24 c 1
 262 0 l 1
 21 0 l 1
 21 24 l 1
 66 33 74 42 74 84 c 2
 74 380 l 2
 74 417 61 433 27 437 c 1
 27 461 l 1
 262 461 l 1
 262 437 l 1
 223 434 213 422 213 380 c 2
 213 256 l 1
 353 256 l 1
 353 380 l 2
 353 422 343 434 304 437 c 1
 304 461 l 1
 539 461 l 1
 539 437 l 1
 500 434 490 422 490 380 c 2
 490 81 l 2
 490 39 500 27 539 24 c 1
 539 0 l 1
 304 0 l 1
 304 24 l 1
 350 30 353 52 353 81 c 2
EndSplineSet
EndChar

StartChar: afii10081
Encoding: 1087 1087 618
Width: 556
Flags: MW
LayerCount: 2
Fore
SplineSet
351 421 m 1
 213 421 l 1
 213 81 l 2
 213 44 225 29 262 24 c 1
 262 0 l 1
 21 0 l 1
 21 24 l 1
 66 33 74 42 74 84 c 2
 74 380 l 2
 74 417 61 433 27 437 c 1
 27 461 l 1
 539 461 l 1
 539 437 l 1
 500 434 490 422 490 380 c 2
 490 81 l 2
 490 39 500 27 539 24 c 1
 539 0 l 1
 304 0 l 1
 304 24 l 1
 338 28 351 44 351 81 c 2
 351 421 l 1
EndSplineSet
EndChar

StartChar: afii10084
Encoding: 1090 1090 621
Width: 494
Flags: MW
LayerCount: 2
Fore
SplineSet
468 461 m 1
 475 319 l 1
 449 319 l 1
 424 414 394 424 313 424 c 1
 313 81 l 2
 313 44 325 29 362 24 c 1
 362 0 l 1
 121 0 l 1
 121 24 l 1
 166 33 174 42 174 84 c 2
 174 424 l 1
 88 424 63 414 38 319 c 1
 12 319 l 1
 19 461 l 1
 468 461 l 1
EndSplineSet
EndChar

StartChar: afii10086
Encoding: 1092 1092 623
Width: 825
Flags: MW
LayerCount: 2
Fore
SplineSet
344 392 m 1
 344 600 l 2
 344 642 333 652 289 659 c 1
 289 683 l 1
 481 683 l 1
 481 392 l 1
 512 450 548 473 607 473 c 0
 718 473 793 378 793 239 c 0
 793 91 713 -13 601 -13 c 0
 557 -13 531 0 483 47 c 1
 483 -94 l 2
 483 -161 500 -181 561 -184 c 1
 561 -205 l 1
 288 -205 l 1
 288 -181 l 1
 336 -173 344 -164 344 -123 c 2
 344 47 l 1
 296 0 270 -13 226 -13 c 0
 114 -13 34 91 34 239 c 0
 34 378 109 473 220 473 c 0
 279 473 313 450 344 392 c 1
344 346 m 2
 344 360 303 416 258 416 c 0
 206 416 182 356 182 225 c 0
 182 101 210 42 267 42 c 0
 300 42 329 65 344 103 c 1
 344 346 l 2
569 416 m 0
 521 416 483 360 483 346 c 2
 483 103 l 1
 498 65 527 42 560 42 c 0
 617 42 645 101 645 225 c 0
 645 356 621 416 569 416 c 0
EndSplineSet
EndChar

StartChar: afii10088
Encoding: 1094 1094 625
Width: 556
Flags: MW
LayerCount: 2
Fore
SplineSet
323 0 m 2
 21 0 l 1
 21 24 l 1
 60 27 70 39 70 81 c 2
 70 380 l 2
 70 422 60 434 21 437 c 1
 21 461 l 1
 256 461 l 1
 256 437 l 1
 222 433 209 417 209 380 c 2
 209 40 l 1
 347 40 l 1
 347 380 l 2
 347 417 335 432 298 437 c 1
 298 461 l 1
 539 461 l 1
 539 437 l 1
 494 428 486 419 486 377 c 2
 486 89 l 2
 486 52 499 36 533 32 c 1
 540 -142 l 1
 514 -142 l 1
 489 -48 464 0 327 0 c 0
 326 0 324 0 323 0 c 2
EndSplineSet
EndChar

StartChar: afii10089
Encoding: 1095 1095 626
Width: 556
Flags: MW
LayerCount: 2
Fore
SplineSet
213 224 m 2
 214 203 258 195 284 195 c 0
 313 195 353 222 353 222 c 0
 353 380 l 2
 353 422 343 434 304 437 c 1
 304 461 l 1
 539 461 l 1
 539 437 l 1
 500 434 490 422 490 380 c 2
 490 81 l 2
 490 39 500 27 539 24 c 1
 539 0 l 1
 304 0 l 1
 304 24 l 1
 338 28 351 44 351 81 c 1
 353 81 l 1
 353 182 l 1
 322 163 284 155 230 155 c 0
 108 155 74 212 74 251 c 2
 74 380 l 2
 74 417 61 433 27 437 c 1
 27 461 l 1
 262 461 l 1
 262 437 l 1
 223 434 213 422 213 380 c 2
 213 224 l 2
EndSplineSet
EndChar

StartChar: afii10090
Encoding: 1096 1096 627
Width: 818
Flags: MW
LayerCount: 2
Fore
SplineSet
474 40 m 1
 611 40 l 1
 611 380 l 2
 611 417 599 432 562 437 c 1
 562 461 l 1
 803 461 l 1
 803 437 l 1
 758 428 750 419 750 377 c 2
 750 81 l 2
 750 44 763 28 797 24 c 1
 797 0 l 1
 21 0 l 1
 21 24 l 1
 60 27 70 39 70 81 c 2
 70 380 l 2
 70 422 60 434 21 437 c 1
 21 461 l 1
 256 461 l 1
 256 437 l 1
 222 433 209 417 209 380 c 2
 209 40 l 1
 335 40 l 1
 335 380 l 2
 335 417 323 432 286 437 c 1
 286 461 l 1
 527 461 l 1
 527 437 l 1
 482 428 474 419 474 377 c 2
 474 40 l 1
EndSplineSet
EndChar

StartChar: afii10091
Encoding: 1097 1097 628
Width: 818
Flags: MW
LayerCount: 2
Fore
SplineSet
587 0 m 2
 21 0 l 1
 21 24 l 1
 60 27 70 39 70 81 c 2
 70 380 l 2
 70 422 60 434 21 437 c 1
 21 461 l 1
 256 461 l 1
 256 437 l 1
 222 433 209 417 209 380 c 2
 209 40 l 1
 335 40 l 1
 335 380 l 2
 335 417 323 432 286 437 c 1
 286 461 l 1
 527 461 l 1
 527 437 l 1
 482 428 474 419 474 377 c 2
 474 40 l 1
 611 40 l 1
 611 380 l 2
 611 417 599 432 562 437 c 1
 562 461 l 1
 803 461 l 1
 803 437 l 1
 758 428 750 419 750 377 c 2
 750 89 l 2
 750 52 763 36 797 32 c 1
 804 -142 l 1
 778 -142 l 1
 753 -48 728 0 591 0 c 0
 590 0 588 0 587 0 c 2
EndSplineSet
EndChar

StartChar: afii10092
Encoding: 1098 1098 629
Width: 612
Flags: MW
LayerCount: 2
Fore
SplineSet
372 284 m 2
 546 284 590 198 590 138 c 0
 590 61 514 0 398 0 c 2
 121 0 l 1
 121 25 l 1
 171 30 174 53 174 88 c 2
 174 424 l 1
 88 424 63 414 38 319 c 1
 12 319 l 1
 19 461 l 1
 360 461 l 1
 360 436 l 1
 313 434 313 402 313 367 c 2
 313 284 l 1
 372 284 l 2
390 41 m 0
 422 41 466 56 466 139 c 0
 466 205 438 246 368 246 c 2
 313 246 l 1
 313 82 l 2
 313 52 360 41 390 41 c 0
EndSplineSet
EndChar

StartChar: afii10093
Encoding: 1099 1099 630
Width: 762
Flags: MW
LayerCount: 2
Fore
SplineSet
272 284 m 2
 446 284 490 198 490 138 c 0
 490 61 414 0 298 0 c 2
 21 0 l 1
 21 25 l 1
 71 30 74 53 74 88 c 2
 74 367 l 2
 74 402 74 434 27 436 c 1
 27 461 l 1
 260 461 l 1
 260 436 l 1
 213 434 213 402 213 367 c 2
 213 284 l 1
 272 284 l 2
290 41 m 0
 322 41 366 56 366 139 c 0
 366 205 338 246 268 246 c 2
 213 246 l 1
 213 82 l 2
 213 52 260 41 290 41 c 0
551 81 m 1
 553 81 l 1
 553 380 l 2
 553 422 543 434 504 437 c 1
 504 461 l 1
 739 461 l 1
 739 437 l 1
 700 434 690 422 690 380 c 2
 690 81 l 2
 690 39 700 27 739 24 c 1
 739 0 l 1
 504 0 l 1
 504 24 l 1
 538 28 551 44 551 81 c 1
EndSplineSet
EndChar

StartChar: afii10094
Encoding: 1100 1100 631
Width: 512
Flags: MW
LayerCount: 2
Fore
SplineSet
272 284 m 2
 446 284 490 198 490 138 c 0
 490 61 414 0 298 0 c 2
 21 0 l 1
 21 25 l 1
 71 30 74 53 74 88 c 2
 74 367 l 2
 74 402 74 434 27 436 c 1
 27 461 l 1
 260 461 l 1
 260 436 l 1
 213 434 213 402 213 367 c 2
 213 284 l 1
 272 284 l 2
290 41 m 0
 322 41 366 56 366 139 c 0
 366 205 338 246 268 246 c 2
 213 246 l 1
 213 82 l 2
 213 52 260 41 290 41 c 0
EndSplineSet
EndChar

StartChar: afii10095
Encoding: 1101 1101 632
Width: 444
Flags: MW
LayerCount: 2
Fore
SplineSet
43 109 m 1
 80 67 106 53 147 53 c 0
 217.957 53 267.627 110.872 283.533 206 c 1
 149 206 l 1
 149 246 l 1
 288.066 246 l 1
 288.685 255.709 289 265.714 289 276 c 0
 289 379 257 442 205 442 c 0
 189 442 174.043 433.977 168 423 c 0
 163.035 413.981 163 414 163 372 c 0
 162 323 144 300 107 300 c 0
 65 300 39 324 39 363 c 0
 39 425 106 473 194 473 c 0
 330 473 430 367 430 223 c 0
 430 85 340 -14 216 -14 c 0
 139 -14 83 17 25 91 c 1
 43 109 l 1
EndSplineSet
EndChar

StartChar: afii10096
Encoding: 1102 1102 633
Width: 790
Flags: MW
LayerCount: 2
Fore
SplineSet
303 256 m 1
 314 380 409 473 528 473 c 0
 657 473 753 369 753 229 c 0
 753 90 657 -14 528 -14 c 0
 402 -14 309 81 302 216 c 1
 221 216 l 1
 221 81 l 2
 221 44 233 29 270 24 c 1
 270 0 l 1
 29 0 l 1
 29 24 l 1
 74 33 82 42 82 84 c 2
 82 380 l 2
 82 417 69 433 35 437 c 1
 35 461 l 1
 270 461 l 1
 270 437 l 1
 231 434 221 422 221 380 c 2
 221 256 l 1
 303 256 l 1
529 442 m 0
 467 442 449 390 449 214 c 0
 449 68 469 17 528 17 c 0
 586 17 606 69 606 223 c 0
 606 387 587 442 529 442 c 0
EndSplineSet
EndChar

StartChar: afii10097
Encoding: 1103 1103 634
Width: 512
Flags: MW
LayerCount: 2
Fore
SplineSet
139 209 m 1
 83 224 34 258 34 333 c 0
 34 410 97 461 213 461 c 2
 490 461 l 1
 490 436 l 1
 440 431 437 408 437 373 c 2
 437 94 l 2
 437 59 437 27 484 25 c 1
 484 0 l 1
 251 0 l 1
 251 25 l 1
 298 27 298 59 298 94 c 2
 298 197 l 1
 272 197 l 1
 157 0 l 1
 12 0 l 1
 12 24 l 1
 23 24 34 26 41 39 c 2
 139 209 l 1
233 420 m 0
 171 420 150 382 150 331 c 0
 150 266 173 235 243 235 c 2
 298 235 l 1
 298 379 l 2
 298 409 263 420 233 420 c 0
EndSplineSet
EndChar

StartChar: afii10099
Encoding: 1106 1106 637
Width: 556
Flags: MW
LayerCount: 2
Fore
SplineSet
294 406 m 0
 252 406 208 359 208 348 c 2
 208 81 l 2
 208 44 220 29 257 24 c 1
 257 0 l 1
 16 0 l 1
 16 24 l 1
 61 33 69 42 69 84 c 2
 69 545 l 1
 13 545 l 1
 13 589 l 1
 69 589 l 1
 69 594 l 2
 69 635 62 643 16 652 c 1
 16 676 l 1
 208 676 l 1
 208 589 l 1
 343 589 l 1
 343 545 l 1
 208 545 l 1
 208 395 l 1
 236 440 290 473 350 473 c 0
 432 473 485 418 485 332 c 2
 485 2 l 2
 485 -108 447 -205 308 -205 c 0
 226 -205 168 -162 168 -103 c 0
 168 -67 193 -42 230 -42 c 0
 262 -42 289 -66 289 -96 c 0
 289 -119 266 -141 266 -155 c 0
 266 -165 279 -172 298 -172 c 0
 331 -172 346 -149 346 -96 c 2
 346 323 l 2
 346 379 329 406 294 406 c 0
EndSplineSet
EndChar

StartChar: afii10101
Encoding: 1108 1108 639
Width: 444
Flags: MW
LayerCount: 2
Fore
SplineSet
166 256 m 1
 310 256 l 1
 310 216 l 1
 170 216 l 1
 184 115 235 53 308 53 c 0
 349 53 375 67 412 109 c 1
 430 91 l 1
 372 17 316 -14 239 -14 c 0
 115 -14 25 85 25 223 c 0
 25 367 125 473 261 473 c 0
 349 473 416 425 416 363 c 0
 416 324 390 300 348 300 c 0
 311 300 293 323 292 372 c 0
 292 414 292 414 287 423 c 0
 281 434 266 442 250 442 c 0
 198 442 166 379 166 276 c 2
 166 256 l 1
EndSplineSet
EndChar

StartChar: afii10106
Encoding: 1113 1113 644
Width: 792
Flags: MW
LayerCount: 2
Fore
SplineSet
555 264 m 2
 684 264 773 210 773 128 c 0
 773 51 697 0 581 0 c 2
 304 0 l 1
 304 24 l 1
 338 28 351 44 351 81 c 2
 351 421 l 1
 213 421 l 1
 213 181 l 2
 213 120 204 -10 76 -10 c 0
 43 -10 7 0 7 34 c 0
 7 60 23 82 49 82 c 0
 79 82 82 55 108 55 c 0
 150 55 154 125 154 175 c 2
 154 380 l 2
 154 417 141 433 107 437 c 1
 107 461 l 1
 543 461 l 1
 543 436 l 1
 496 434 496 402 496 367 c 2
 496 264 l 1
 555 264 l 2
573 41 m 0
 620 41 649 63 649 129 c 0
 649 195 621 226 551 226 c 2
 496 226 l 1
 496 82 l 2
 496 52 543 41 573 41 c 0
EndSplineSet
EndChar

StartChar: afii10107
Encoding: 1114 1114 645
Width: 786
Flags: MW
LayerCount: 2
Fore
SplineSet
555 264 m 2
 684 264 773 210 773 128 c 0
 773 51 697 0 581 0 c 2
 304 0 l 1
 304 24 l 1
 338 28 353 38 353 81 c 2
 353 223 l 1
 213 223 l 1
 213 81 l 2
 213 44 225 29 262 24 c 1
 262 0 l 1
 21 0 l 1
 21 24 l 1
 66 33 74 42 74 84 c 2
 74 380 l 2
 74 417 61 433 27 437 c 1
 27 461 l 1
 262 461 l 1
 262 437 l 1
 223 434 213 422 213 380 c 2
 213 263 l 1
 353 263 l 1
 353 380 l 2
 353 422 343 434 304 437 c 1
 304 461 l 1
 543 461 l 1
 543 436 l 1
 496 434 496 402 496 367 c 2
 496 264 l 1
 555 264 l 2
573 41 m 0
 620 41 649 63 649 129 c 0
 649 195 621 226 551 226 c 2
 496 226 l 1
 496 82 l 2
 496 52 543 41 573 41 c 0
EndSplineSet
EndChar

StartChar: afii10108
Encoding: 1115 1115 646
Width: 556
Flags: MW
LayerCount: 2
Fore
SplineSet
294 406 m 0
 252 406 208 359 208 348 c 2
 208 81 l 2
 208 44 220 29 257 24 c 1
 257 0 l 1
 16 0 l 1
 16 24 l 1
 61 33 69 42 69 84 c 2
 69 545 l 1
 13 545 l 1
 13 589 l 1
 69 589 l 1
 69 594 l 2
 69 635 62 643 16 652 c 1
 16 676 l 1
 208 676 l 1
 208 589 l 1
 343 589 l 1
 343 545 l 1
 208 545 l 1
 208 395 l 1
 260 453 297 473 350 473 c 0
 432 473 485 418 485 332 c 2
 485 84 l 2
 485 42 498 27 534 24 c 1
 534 0 l 1
 299 0 l 1
 299 24 l 1
 333 28 346 44 346 81 c 2
 346 323 l 2
 346 379 329 406 294 406 c 0
EndSplineSet
EndChar

StartChar: afii10193
Encoding: 1119 1119 650
Width: 556
Flags: MW
LayerCount: 2
Fore
SplineSet
209 40 m 1
 347 40 l 1
 347 380 l 2
 347 417 335 432 298 437 c 1
 298 461 l 1
 539 461 l 1
 539 437 l 1
 494 428 486 419 486 377 c 2
 486 81 l 2
 486 44 499 28 533 24 c 1
 533 0 l 1
 336 0 l 1
 319 -60 314 -179 314 -179 c 1
 248 -179 l 1
 248 -179 239 -59 220 0 c 1
 21 0 l 1
 21 24 l 1
 60 27 70 39 70 81 c 2
 70 380 l 2
 70 422 60 434 21 437 c 1
 21 461 l 1
 256 461 l 1
 256 437 l 1
 222 433 209 417 209 380 c 2
 209 40 l 1
EndSplineSet
EndChar

StartChar: uni048C
Encoding: 1164 1164 651
Width: 611
Flags: MW
LayerCount: 2
Fore
SplineSet
262 338 m 1
 262 70 l 2
 262 47 279 35 312 35 c 0
 395 35 428 79 428 187 c 0
 428 310 389 338 262 338 c 1
350 651 m 1
 271 641 262 632 262 559 c 1
 348 559 l 1
 348 487 l 1
 262 487 l 1
 262 373 l 1
 397 372 431 369 475 351 c 0
 556 320 600 259 600 182 c 0
 600 66 505 0 338 0 c 2
 16 0 l 1
 16 25 l 1
 86 31 100 47 100 117 c 2
 100 487 l 1
 18 487 l 1
 18 559 l 1
 100 559 l 1
 100 621 87 641 40 647 c 0
 37 647 27 649 16 651 c 1
 16 676 l 1
 350 676 l 1
 350 651 l 1
EndSplineSet
EndChar

StartChar: uni048D
Encoding: 1165 1165 652
Width: 512
Flags: MW
LayerCount: 2
Fore
SplineSet
290 41 m 0
 337 41 366 63 366 129 c 0
 366 195 338 226 268 226 c 2
 213 226 l 1
 213 82 l 2
 213 52 260 41 290 41 c 0
272 264 m 2
 401 264 490 210 490 128 c 0
 490 51 414 0 298 0 c 2
 21 0 l 1
 21 25 l 1
 71 30 74 53 74 88 c 2
 74 294 l 1
 17 294 l 1
 17 366 l 1
 74 366 l 1
 74 367 l 2
 74 402 74 434 27 436 c 1
 27 461 l 1
 260 461 l 1
 260 436 l 1
 213 434 213 402 213 367 c 2
 213 366 l 1
 274 366 l 1
 274 294 l 1
 213 294 l 1
 213 264 l 1
 272 264 l 2
EndSplineSet
EndChar

StartChar: uni048E
Encoding: 1166 1166 653
Width: 611
Flags: MW
LayerCount: 2
Fore
SplineSet
340 483 m 1
 417 406 l 1
 424 428 428 455 428 489 c 0
 428 597 395 641 312 641 c 0
 279 641 262 629 262 606 c 2
 262 338 l 1
 315 338 347 342 369 352 c 1
 289 432 l 1
 340 483 l 1
574 250 m 1
 523 199 l 1
 413 309 l 1
 381 305 337 304 262 303 c 1
 262 117 l 2
 262 44 271 35 350 25 c 1
 350 0 l 1
 16 0 l 1
 16 25 l 1
 27 27 37 29 40 29 c 0
 87 35 100 55 100 117 c 2
 100 559 l 2
 100 629 86 645 16 651 c 1
 16 676 l 1
 338 676 l 2
 505 676 600 610 600 494 c 0
 600 422 562 365 491 332 c 1
 574 250 l 1
EndSplineSet
EndChar

StartChar: uni048F
Encoding: 1167 1167 654
Width: 556
Flags: MW
LayerCount: 2
Fore
SplineSet
300 416 m 0
 252 416 214 360 214 346 c 2
 214 103 l 1
 229 65 258 42 291 42 c 0
 310 42 326 48 338 62 c 1
 240 159 l 1
 291 210 l 1
 369 133 l 1
 374 158 376 189 376 225 c 0
 376 356 352 416 300 416 c 0
525 -23 m 1
 474 -74 l 1
 399 1 l 1
 378 -8 356 -13 332 -13 c 0
 288 -13 262 0 214 47 c 1
 214 -94 l 2
 214 -161 231 -181 292 -184 c 1
 292 -205 l 1
 19 -205 l 1
 19 -181 l 1
 67 -173 75 -164 75 -123 c 2
 75 378 l 2
 75 420 65 430 21 437 c 1
 21 461 l 1
 212 461 l 1
 212 392 l 1
 243 450 279 473 338 473 c 0
 449 473 524 378 524 239 c 0
 524 157 499 88 458 43 c 1
 525 -23 l 1
EndSplineSet
EndChar

StartChar: afii10050
Encoding: 1168 1168 655
Width: 611
Flags: MW
LayerCount: 2
Fore
SplineSet
330 675 m 2
 433 675 541 689 559 842 c 1
 583 842 l 1
 584 642 l 1
 330 642 l 2
 279 642 266 632 266 595 c 2
 266 96 l 2
 266 41 284 29 376 25 c 1
 376 0 l 1
 16 0 l 1
 16 25 l 1
 90 33 104 44 104 96 c 2
 104 580 l 2
 104 632 85 647 16 651 c 1
 16 676 l 1
 330 675 l 2
EndSplineSet
EndChar

StartChar: afii10098
Encoding: 1169 1169 656
Width: 458
Flags: MW
LayerCount: 2
Fore
SplineSet
212 428 m 1
 213 81 l 1
 213 44 225 29 262 24 c 1
 262 0 l 1
 21 0 l 1
 21 24 l 1
 66 33 74 42 74 84 c 2
 74 380 l 2
 74 417 61 433 27 437 c 1
 27 461 l 1
 213 461 l 2
 350 462 379 476 404 571 c 1
 430 571 l 1
 423 429 l 1
 212 428 l 1
EndSplineSet
EndChar

StartChar: uni0492
Encoding: 1170 1170 657
Width: 611
Flags: MW
LayerCount: 2
Fore
SplineSet
559 475 m 1
 539 566 525 642 330 642 c 0
 279 642 266 632 266 595 c 2
 266 462 l 1
 358 462 l 1
 358 390 l 1
 266 390 l 1
 266 96 l 2
 266 41 284 29 376 25 c 1
 376 0 l 1
 16 0 l 1
 16 25 l 1
 90 33 104 44 104 96 c 2
 104 390 l 1
 28 390 l 1
 28 462 l 1
 104 462 l 1
 104 580 l 2
 104 632 85 647 16 651 c 1
 16 676 l 1
 583 676 l 1
 583 475 l 1
 559 475 l 1
EndSplineSet
EndChar

StartChar: uni0493
Encoding: 1171 1171 658
Width: 458
Flags: MW
LayerCount: 2
Fore
SplineSet
27 461 m 1
 423 461 l 1
 430 319 l 1
 404 319 l 1
 380 411 354 429 224 429 c 0
 221 429 217 429 213 429 c 1
 213 297 l 1
 320 297 l 1
 320 225 l 1
 213 225 l 1
 213 81 l 2
 213 44 225 29 262 24 c 1
 262 0 l 1
 21 0 l 1
 21 24 l 1
 66 33 74 42 74 84 c 2
 74 225 l 1
 24 225 l 1
 24 297 l 1
 74 297 l 1
 74 380 l 2
 74 417 61 433 27 437 c 1
 27 461 l 1
EndSplineSet
EndChar

StartChar: uni0495
Encoding: 1173 1173 659
Width: 458
Flags: MW
LayerCount: 2
Fore
SplineSet
315 -203 m 0
 279 -203 173 -183 173 -103 c 0
 173 -67 198 -42 235 -42 c 0
 267 -42 294 -66 294 -96 c 0
 294 -119 271 -141 271 -155 c 0
 271 -165 289 -172 303 -172 c 0
 352 -172 393 -46 393 50 c 0
 393 130 378 239 300 239 c 0
 299 239 l 0
 270 239 252 226 230 204 c 0
 220 194 213 185 213 181 c 2
 213 81 l 2
 213 44 225 29 262 24 c 1
 262 0 l 1
 21 0 l 1
 21 24 l 1
 66 33 74 42 74 84 c 2
 74 380 l 2
 74 417 61 433 27 437 c 1
 27 461 l 1
 423 461 l 1
 430 319 l 1
 404 319 l 1
 380 411 354 429 224 429 c 0
 221 429 217 429 213 429 c 1
 213 219 l 1
 248 281 286 306 355 306 c 0
 475 306 532 184 532 64 c 0
 532 -75 447 -203 315 -203 c 0
EndSplineSet
EndChar

StartChar: uni0496
Encoding: 1174 1174 660
Width: 1107
Flags: MW
LayerCount: 2
Fore
SplineSet
1019 616 m 0
 1019 565 995 556 956 556 c 0
 888 556 908 583 865 583 c 0
 833 583 841 418 749 352 c 1
 781 349 838 329 866 286 c 0
 996 87 l 2
 1006 71 1016 39 1084 34 c 1
 1084 -167 l 1
 1060 -167 l 1
 1025 -8 959 0 875 0 c 1
 718 254 l 1
 690 292 682 318 654 318 c 2
 635 318 l 1
 635 96 l 2
 635 47 651 34 723 25 c 1
 723 0 l 1
 386 0 l 1
 386 25 l 1
 458 33 473 45 473 96 c 2
 473 318 l 1
 454 318 l 2
 426 318 415 294 390 254 c 0
 233 0 l 1
 35 0 l 1
 35 25 l 1
 60 26 73 29 84 46 c 0
 242 286 l 1
 271 328 327 349 359 352 c 1
 267 418 275 583 243 583 c 0
 200 583 220 556 152 556 c 0
 113 556 89 565 89 616 c 0
 89 672 145 685 185 685 c 0
 254 685 305 626 311 578 c 0
 326 460 400 374 444 372 c 2
 473 371 l 1
 473 557 l 2
 473 628 455 647 386 651 c 1
 386 676 l 1
 724 676 l 1
 724 651 l 1
 650 646 635 630 635 559 c 2
 635 371 l 1
 664 372 l 2
 708 374 782 460 797 578 c 0
 803 626 854 685 923 685 c 0
 963 685 1019 671 1019 616 c 0
EndSplineSet
EndChar

StartChar: uni0497
Encoding: 1175 1175 661
Width: 750
Flags: MW
LayerCount: 2
Fore
SplineSet
715 414 m 0
 715 385 695 366 668 366 c 0
 626 366 638 396 613 396 c 0
 576 396 585 271 531 243 c 1
 560 242 590 228 607 200 c 2
 706 39 l 2
 714 26 733 24 733 24 c 1
 741 -110 l 1
 715 -110 l 1
 696 -16 682 0 590 0 c 1
 491 168 l 1
 491 168 469 214 453 214 c 2
 443 214 l 1
 443 84 l 2
 443 37 448 31 495 24 c 1
 495 0 l 1
 256 0 l 1
 256 24 l 1
 289 27 304 45 304 84 c 2
 304 214 l 1
 294 214 l 2
 278 214 256 168 256 168 c 1
 157 0 l 1
 12 0 l 1
 12 24 l 1
 23 24 33 26 41 39 c 2
 140 200 l 2
 157 228 187 242 216 243 c 1
 162 271 171 396 134 396 c 0
 109 396 121 366 79 366 c 0
 52 366 32 385 32 414 c 0
 32 451 48 470 102 470 c 0
 179 470 203 392 205 368 c 0
 209 324 267 263 283 262 c 2
 304 261 l 1
 304 377 l 2
 304 416 289 434 256 437 c 1
 256 461 l 1
 495 461 l 1
 495 437 l 1
 448 430 443 424 443 377 c 2
 443 261 l 1
 464 262 l 2
 480 263 538 324 542 368 c 0
 544 392 568 470 645 470 c 0
 699 470 715 451 715 414 c 0
EndSplineSet
EndChar

StartChar: uni0498
Encoding: 1176 1176 662
Width: 580
Flags: MW
LayerCount: 2
Fore
SplineSet
111 658 m 0
 139 658 187 691 270 691 c 0
 406 691 535 662 535 516 c 0
 535 398 479 366 448 357 c 1
 493 344 560 318 560 192 c 0
 560 50 434 -12 295 -18 c 1
 275 -64 l 1
 287 -60 295 -59 308 -59 c 0
 363 -59 396 -85 396 -129 c 0
 396 -184 346 -218 266 -218 c 0
 233 -218 206 -213 170 -200 c 1
 186 -163 l 1
 199 -167 223 -177 246 -177 c 0
 282 -177 303 -162 303 -136 c 0
 303 -114 286 -100 257 -100 c 0
 248 -100 240 -101 229 -104 c 1
 218 -96 l 1
 253 -19 l 1
 116 -15 77 38 13 112 c 1
 43 137 l 1
 111 68 177 26 266 26 c 0
 339 26 401 100 401 164 c 0
 401 168 l 0
 401 221 399 320 242 320 c 2
 173 320 l 1
 173 365 l 1
 242 365 l 2
 355 365 401 406 401 530 c 0
 401 614 338 660 270 660 c 0
 195 660 118 609 77 475 c 1
 49 475 l 1
 49 692 l 1
 79 692 l 1
 86 666 94 658 111 658 c 0
EndSplineSet
EndChar

StartChar: uni0499
Encoding: 1177 1177 663
Width: 389
Flags: MW
LayerCount: 2
Fore
SplineSet
107 -163 m 1
 120 -167 144 -177 167 -177 c 0
 203 -177 224 -162 224 -136 c 0
 224 -114 207 -100 178 -100 c 0
 169 -100 161 -101 150 -104 c 1
 139 -96 l 1
 176 -12 l 1
 115 -5 66 27 16 91 c 1
 34 109 l 1
 71 67 125 36 166 36 c 0
 211 36 265 63 265 122 c 0
 265 125 265 129 265 132 c 0
 265 166 260 220 160 220 c 2
 118 220 l 1
 118 260 l 1
 162 260 l 2
 245 260 246 318 246 360 c 0
 246 393 228 440 174 440 c 0
 127 440 81 410 52 326 c 1
 27 326 l 1
 27 471 l 1
 49 471 l 1
 55 456 61 451 73 451 c 0
 95 451 134 473 183 473 c 0
 274 473 340 411 340 327 c 0
 340 295 331 263 308 243 c 1
 346 222 368 181 368 138 c 0
 368 51 300 -10 218 -14 c 1
 196 -64 l 1
 208 -60 216 -59 229 -59 c 0
 284 -59 317 -85 317 -129 c 0
 317 -184 267 -218 187 -218 c 0
 154 -218 127 -213 91 -200 c 1
 107 -163 l 1
EndSplineSet
EndChar

StartChar: uni049A
Encoding: 1178 1178 664
Width: 778
Flags: MW
LayerCount: 2
Fore
SplineSet
678 616 m 0
 678 565 654 556 615 556 c 0
 547 556 567 583 524 583 c 0
 492 583 500 418 408 352 c 1
 440 349 497 329 525 286 c 0
 655 87 l 2
 665 71 675 39 743 34 c 1
 743 -167 l 1
 719 -167 l 1
 684 -8 618 0 534 0 c 1
 374 254 l 1
 346 292 334 318 306 318 c 2
 279 318 l 1
 279 96 l 2
 279 47 295 34 367 25 c 1
 367 0 l 1
 30 0 l 1
 30 25 l 1
 102 33 117 45 117 96 c 2
 117 580 l 2
 117 632 99 647 30 651 c 1
 30 676 l 1
 368 676 l 1
 368 651 l 1
 294 646 279 630 279 559 c 2
 279 371 l 1
 316 372 l 2
 360 373 441 460 456 578 c 0
 462 626 513 685 582 685 c 0
 622 685 678 671 678 616 c 0
EndSplineSet
EndChar

StartChar: uni049B
Encoding: 1179 1179 665
Width: 534
Flags: MW
LayerCount: 2
Fore
SplineSet
491 414 m 0
 491 385 471 366 444 366 c 0
 402 366 414 396 389 396 c 0
 352 396 351 271 297 243 c 1
 326 242 366 228 383 200 c 2
 482 39 l 2
 490 26 509 24 509 24 c 1
 517 -110 l 1
 491 -110 l 1
 472 -16 458 0 366 0 c 1
 264 168 l 1
 264 168 235 214 219 214 c 2
 209 214 l 1
 209 84 l 2
 209 37 214 31 261 24 c 1
 261 0 l 1
 22 0 l 1
 22 24 l 1
 55 27 70 45 70 84 c 2
 70 377 l 2
 70 416 55 434 22 437 c 1
 22 461 l 1
 261 461 l 1
 261 437 l 1
 214 430 209 424 209 377 c 2
 209 261 l 1
 230 262 l 2
 246 263 314 324 318 368 c 0
 320 392 344 470 421 470 c 0
 475 470 491 451 491 414 c 0
EndSplineSet
EndChar

StartChar: uni049C
Encoding: 1180 1180 666
Width: 778
Flags: MW
LayerCount: 2
Fore
SplineSet
677 616 m 0
 677 565 653 556 614 556 c 0
 546 556 566 583 523 583 c 0
 491 583 499 418 407 352 c 1
 439 349 496 329 524 286 c 0
 682 46 l 1
 695 31 706 26 731 25 c 1
 731 0 l 1
 533 0 l 1
 373 254 l 1
 373 175 l 1
 301 175 l 1
 301 318 l 1
 279 318 l 1
 279 96 l 2
 279 47 295 34 367 25 c 1
 367 0 l 1
 30 0 l 1
 30 25 l 1
 102 33 117 45 117 96 c 2
 117 580 l 2
 117 632 99 647 30 651 c 1
 30 676 l 1
 368 676 l 1
 368 651 l 1
 294 646 279 630.001 279 559 c 2
 279 371 l 1
 301 371 l 1
 301 505 l 1
 373 505 l 1
 373 404 l 1
 409 440 445 503 455 578 c 0
 461 626 512 685 581 685 c 0
 621 685 677 671 677 616 c 0
EndSplineSet
EndChar

